<svg width="32" height="32" viewBox="0 0 32 32" fill="none" xmlns="http://www.w3.org/2000/svg">
<rect width="32" height="32" rx="2" fill="#E5E5E5"/>
<path fill-rule="evenodd" clip-rule="evenodd" d="M8 8C7.73478 8 7.48043 8.10536 7.29289 8.29289C7.10536 8.48043 7 8.73478 7 9V15C7 17.3869 7.94821 19.6761 9.63604 21.364C10.4718 22.1997 11.4639 22.8626 12.5558 23.3149C13.6478 23.7672 14.8181 24 16 24C18.3869 24 20.6761 23.0518 22.364 21.364C24.0518 19.6761 25 17.3869 25 15V9C25 8.73478 24.8946 8.48043 24.7071 8.29289C24.5196 8.10536 24.2652 8 24 8H8ZM8 6H24C24.7957 6 25.5587 6.31607 26.1213 6.87868C26.6839 7.44129 27 8.20435 27 9V15C27 17.9174 25.8411 20.7153 23.7782 22.7782C21.7153 24.8411 18.9174 26 16 26C14.5555 26 13.1251 25.7155 11.7905 25.1627C10.4559 24.6099 9.24327 23.7996 8.22183 22.7782C6.15893 20.7153 5 17.9174 5 15V9C5 8.20435 5.31607 7.44129 5.87868 6.87868C6.44129 6.31607 7.20435 6 8 6Z" fill="#AAB8CC"/>
<path fill-rule="evenodd" clip-rule="evenodd" d="M11.2929 13.2929C11.6834 12.9024 12.3166 12.9024 12.7071 13.2929L16 16.5858L19.2929 13.2929C19.6834 12.9024 20.3166 12.9024 20.7071 13.2929C21.0976 13.6834 21.0976 14.3166 20.7071 14.7071L16.7071 18.7071C16.3166 19.0976 15.6834 19.0976 15.2929 18.7071L11.2929 14.7071C10.9024 14.3166 10.9024 13.6834 11.2929 13.2929Z" fill="#AAB8CC"/>
</svg>
