<svg width="32" height="32" viewBox="0 0 32 32" fill="none" xmlns="http://www.w3.org/2000/svg">
<rect width="32" height="32" rx="2" fill="#2ED47A"/>
<path fill-rule="evenodd" clip-rule="evenodd" d="M8 15C8.55228 15 9 15.4477 9 16V25H23V16C23 15.4477 23.4477 15 24 15C24.5523 15 25 15.4477 25 16V26C25 26.5523 24.5523 27 24 27H8C7.44772 27 7 26.5523 7 26V16C7 15.4477 7.44772 15 8 15Z" fill="#E4FF98"/>
<path fill-rule="evenodd" clip-rule="evenodd" d="M5 11C5 10.4477 5.44772 10 6 10H26C26.5523 10 27 10.4477 27 11V16C27 16.5523 26.5523 17 26 17H6C5.44772 17 5 16.5523 5 16V11ZM7 12V15H25V12H7Z" fill="#E4FF98"/>
<path fill-rule="evenodd" clip-rule="evenodd" d="M16 10C16.5523 10 17 10.4477 17 11V26C17 26.5523 16.5523 27 16 27C15.4477 27 15 26.5523 15 26V11C15 10.4477 15.4477 10 16 10Z" fill="#E4FF98"/>
<path fill-rule="evenodd" clip-rule="evenodd" d="M11.5 7C11.1022 7 10.7206 7.15804 10.4393 7.43934C10.158 7.72064 10 8.10218 10 8.5C10 8.89782 10.158 9.27936 10.4393 9.56066C10.7206 9.84196 11.1022 10 11.5 10H14.654C14.5319 9.68061 14.3774 9.32942 14.1863 8.98192C13.5573 7.83834 12.6939 7 11.5 7ZM16 11C16.9806 10.8039 16.9805 10.8035 16.9804 10.8032L16.9799 10.8004L16.9788 10.795L16.9754 10.7789C16.9727 10.7658 16.9688 10.748 16.9639 10.7259C16.954 10.6816 16.9396 10.6197 16.9203 10.5426C16.8819 10.3888 16.8237 10.1734 16.7424 9.91686C16.581 9.40732 16.3233 8.71734 15.9387 8.01808C15.1927 6.66166 13.8061 5 11.5 5C10.5717 5 9.6815 5.36875 9.02513 6.02513C8.36875 6.6815 8 7.57174 8 8.5C8 9.42826 8.36875 10.3185 9.02513 10.9749C9.6815 11.6313 10.5717 12 11.5 12H16C16.2996 12 16.5834 11.8657 16.7733 11.634C16.9633 11.4023 17.0392 11.097 16.9804 10.8032L16 11Z" fill="#E4FF98"/>
<path fill-rule="evenodd" clip-rule="evenodd" d="M16.0613 8.01808C16.8073 6.66166 18.1939 5 20.5 5C21.4283 5 22.3185 5.36875 22.9749 6.02513C23.6313 6.6815 24 7.57174 24 8.5C24 9.42826 23.6313 10.3185 22.9749 10.9749C22.3185 11.6313 21.4283 12 20.5 12H16C15.7004 12 15.4166 11.8657 15.2267 11.634C15.0367 11.4023 14.9607 11.0977 15.0194 10.8039L16 11C15.0194 10.8039 15.0193 10.8042 15.0194 10.8039L15.0197 10.8024L15.0201 10.8004L15.0212 10.795L15.0246 10.7789C15.0273 10.7658 15.0312 10.748 15.0361 10.7259C15.046 10.6816 15.0604 10.6197 15.0797 10.5426C15.1181 10.3888 15.1763 10.1734 15.2576 9.91686C15.419 9.40732 15.6767 8.71734 16.0613 8.01808ZM17.346 10H20.5C20.8978 10 21.2794 9.84196 21.5607 9.56066C21.842 9.27936 22 8.89782 22 8.5C22 8.10218 21.842 7.72064 21.5607 7.43934C21.2794 7.15804 20.8978 7 20.5 7C19.3061 7 18.4427 7.83834 17.8137 8.98192C17.6226 9.32942 17.4681 9.68061 17.346 10ZM16.9802 11.1978C16.9802 11.1981 16.9802 11.1981 16.9802 11.1978V11.1978Z" fill="#E4FF98"/>
</svg>
