<svg width="32" height="32" viewBox="0 0 32 32" fill="none" xmlns="http://www.w3.org/2000/svg">
<rect width="32" height="32" rx="2" fill="#E5E5E5"/>
<path fill-rule="evenodd" clip-rule="evenodd" d="M8 9C8 9.00089 7.99998 9.00521 8.00305 9.01529C8.00645 9.02644 8.01483 9.04845 8.03507 9.08143C8.07752 9.15057 8.16408 9.25453 8.32624 9.38232C8.65642 9.64253 9.19616 9.9206 9.95227 10.1726C11.454 10.6732 13.5923 11 16 11C18.4077 11 20.546 10.6732 22.0477 10.1726C22.8038 9.9206 23.3436 9.64253 23.6738 9.38232C23.8359 9.25453 23.9225 9.15057 23.9649 9.08143C23.9852 9.04845 23.9935 9.02644 23.9969 9.01529C24 9.00521 24 9.00095 24 9.00006C24 8.99934 24.0001 8.99506 23.9969 8.98471C23.9935 8.97356 23.9852 8.95155 23.9649 8.91857C23.9225 8.84943 23.8359 8.74547 23.6738 8.61768C23.3436 8.35747 22.8038 8.0794 22.0477 7.82736C20.546 7.32678 18.4077 7 16 7C13.5923 7 11.454 7.32678 9.95227 7.82736C9.19616 8.0794 8.65642 8.35747 8.32624 8.61768C8.16408 8.74547 8.07752 8.84943 8.03507 8.91857C8.01483 8.95155 8.00645 8.97356 8.00305 8.98471C7.99998 8.99479 8 8.99911 8 9ZM9.31981 5.93C11.0754 5.3448 13.4371 5 16 5C18.5629 5 20.9246 5.3448 22.6802 5.93C23.5528 6.22085 24.331 6.58923 24.9117 7.04685C25.4811 7.49559 26 8.14805 26 9C26 9.85195 25.4811 10.5044 24.9117 10.9531C24.331 11.4108 23.5528 11.7791 22.6802 12.07C20.9246 12.6552 18.5629 13 16 13C13.4371 13 11.0754 12.6552 9.31981 12.07C8.44724 11.7791 7.66896 11.4108 7.08829 10.9531C6.51889 10.5044 6 9.85195 6 9C6 8.14805 6.51889 7.49559 7.08829 7.04685C7.66896 6.58923 8.44724 6.22085 9.31981 5.93Z" fill="#AAB8CC"/>
<path fill-rule="evenodd" clip-rule="evenodd" d="M7 15C7.55228 15 8 15.4477 8 16C8 16.0019 8.00008 16.007 8.0034 16.018C8.00695 16.0298 8.01544 16.0521 8.03558 16.0851C8.07772 16.1543 8.16348 16.258 8.32419 16.3853C8.65159 16.6447 9.18788 16.9223 9.94167 17.174C11.4389 17.6738 13.5768 18 16 18C18.4232 18 20.5611 17.6738 22.0583 17.174C22.8121 16.9223 23.3484 16.6447 23.6758 16.3853C23.8365 16.258 23.9223 16.1543 23.9644 16.0851C23.9846 16.0521 23.993 16.0298 23.9966 16.018C23.9999 16.007 24 16.0019 24 16C24 15.4477 24.4477 15 25 15C25.5523 15 26 15.4477 26 16C26 16.8494 25.4868 17.502 24.9179 17.9528C24.3391 18.4115 23.5629 18.7802 22.6917 19.071C20.9389 19.6562 18.5768 20 16 20C13.4232 20 11.0611 19.6562 9.30833 19.071C8.43712 18.7802 7.66091 18.4115 7.08206 17.9528C6.51319 17.502 6 16.8494 6 16C6 15.4477 6.44772 15 7 15Z" fill="#AAB8CC"/>
<path fill-rule="evenodd" clip-rule="evenodd" d="M7 8C7.55228 8 8 8.44772 8 9V23C8 23.0019 8.00008 23.007 8.0034 23.018C8.00695 23.0298 8.01544 23.0521 8.03558 23.0851C8.07772 23.1543 8.16348 23.258 8.32419 23.3853C8.65159 23.6447 9.18788 23.9223 9.94167 24.174C11.4389 24.6738 13.5768 25 16 25C18.4232 25 20.5611 24.6738 22.0583 24.174C22.8121 23.9223 23.3484 23.6447 23.6758 23.3853C23.8365 23.258 23.9223 23.1543 23.9644 23.0851C23.9846 23.0521 23.993 23.0298 23.9966 23.018C23.9999 23.007 24 23.0019 24 23V9.00006C24 8.44778 24.4477 8 25 8C25.5523 8 26 8.44772 26 9V23C26 23.8494 25.4868 24.502 24.9179 24.9528C24.3391 25.4115 23.5629 25.7802 22.6917 26.071C20.9389 26.6562 18.5768 27 16 27C13.4232 27 11.0611 26.6562 9.30833 26.071C8.43712 25.7802 7.66091 25.4115 7.08206 24.9528C6.51319 24.502 6 23.8494 6 23V9C6 8.44772 6.44772 8 7 8Z" fill="#AAB8CC"/>
</svg>
