<svg width="1438" height="850" viewBox="0 0 1438 850" fill="none" xmlns="http://www.w3.org/2000/svg">
<path d="M1436.6 0H0V850.646H1436.6V0Z" fill="white"/>
<path d="M1438 0H-0.300293C-0.300293 0 -0.300293 240.128 -0.300293 240.152C-0.300293 225.763 156.68 189.421 174.373 185.71C264.271 166.964 404.014 133.231 471.791 217.623C516.968 273.861 506.577 365.291 562.456 410.898C600.139 441.687 655.347 439.364 701.768 424.688C748.166 410.037 791.068 384.851 838.471 373.91C885.898 362.969 942.542 370.127 971.942 408.911C1020.92 473.528 963.61 572.284 997.822 645.807C1021.43 696.514 1081.3 718.994 1136.66 726.823C1242.86 741.858 1351.36 746 1408.74 851.843H1437.98V0H1438Z" fill="url(#paint0_linear)"/>
<path d="M552.76 100.456C548.091 146.303 557.5 193.706 582.087 231.557C602.509 262.991 634.35 287.435 670.358 298.185C690.803 304.289 719.029 307.857 739.619 300.986C772.585 289.973 767.199 259.496 740.481 242.235C729.492 235.124 717.114 230.456 705.575 224.255C682.472 211.806 661.356 189.493 662.625 163.277C663.534 144.388 676.247 127.557 692.192 117.359C708.136 107.16 726.978 102.659 745.628 99.4268C762.722 96.4581 780.366 94.447 797.34 98.0142C845.725 108.165 843.259 160.021 875.915 187.458C901.747 209.148 938.233 209.483 969.308 200.841C1041.15 180.898 1109.84 154.563 1171.01 217.288C1188.68 235.387 1201.73 261.172 1195.24 285.616C1190.09 305.032 1174.08 319.181 1161.1 334.527C1142.93 356.026 1129.83 381.762 1123.08 409.079C1119.01 425.574 1117.33 443.219 1122.75 459.307C1130.5 482.362 1152.29 498.858 1175.87 504.891C1199.45 510.9 1224.52 507.644 1247.84 500.725C1301.18 484.876 1350.16 447.049 1368.38 394.475C1387.8 338.477 1355.76 204.049 1423.9 175.655C1428.59 173.835 1433.28 172.04 1438 170.244V0H589.677C589.581 0.119705 589.485 0.26335 589.389 0.383055C568.824 29.1361 556.423 64.3293 552.76 100.456Z" fill="url(#paint1_linear)"/>
<defs>
<linearGradient id="paint0_linear" x1="1652.9" y1="832.714" x2="-60.3761" y2="-474.453" gradientUnits="userSpaceOnUse">
<stop stop-color="#A6FFA9"/>
<stop offset="1" stop-color="#008DA6"/>
</linearGradient>
<linearGradient id="paint1_linear" x1="1439.75" y1="449.564" x2="546.573" y2="-231.896" gradientUnits="userSpaceOnUse">
<stop stop-color="#A6FFA9"/>
<stop offset="1" stop-color="#008DA6"/>
</linearGradient>
</defs>
</svg>
