<svg width="124" height="105" viewBox="0 0 124 105" fill="none" xmlns="http://www.w3.org/2000/svg">
    <g filter="url(#filter0_d)">
    <path d="M61.5253 97C48.1887 97 34.8578 94.0679 24.7029 88.2096C14.8325 82.508 9.39221 74.9194 9.39221 66.8373C9.39221 58.7551 14.8267 51.1665 24.7029 45.4649C45.0011 33.7424 78.0379 33.7424 98.3419 45.4649C108.212 51.1665 113.653 58.7551 113.653 66.8373C113.653 74.9194 108.218 82.508 98.3419 88.2096C88.1928 94.0679 74.8561 96.9942 61.5253 97ZM61.5253 37.0577C48.2583 37.0577 34.9972 39.9724 24.9003 45.8017C15.1519 51.4278 9.78703 58.9003 9.78703 66.8373C9.78703 74.7742 15.1519 82.2467 24.9003 87.8728C45.094 99.5315 77.9566 99.5315 98.1503 87.8728C107.899 82.2467 113.264 74.7742 113.264 66.8373C113.264 58.9003 107.893 51.4278 98.1503 45.8017C88.0534 39.9724 74.7865 37.0577 61.5253 37.0577Z" fill="white"/>
    </g>
    <path opacity="0.5" d="M61.5254 88.3315C82.0895 88.3315 98.76 78.7082 98.76 66.8372C98.76 54.9663 82.0895 45.343 61.5254 45.343C40.9613 45.343 24.2908 54.9663 24.2908 66.8372C24.2908 78.7082 40.9613 88.3315 61.5254 88.3315Z" fill="#13247A"/>
    <path d="M116.919 30.5431L95.3598 7.39061L73.8002 5.64575C73.8002 5.64575 70.3369 34.8722 95.3598 65.8699C120.389 63.7681 116.919 30.5431 116.919 30.5431Z" fill="url(#paint0_linear)"/>
    <path d="M73.8068 5.64575L68.9556 8.44811L90.5152 10.193L95.3664 7.39061L73.8068 5.64575Z" fill="url(#paint1_linear)"/>
    <path d="M112.075 33.3455L90.5153 10.1931L81.6522 9.2942L68.9557 8.44821C68.9557 8.44821 65.4924 37.6746 90.5153 68.6723C115.538 66.5706 112.075 33.3455 112.075 33.3455Z" fill="url(#paint2_linear)"/>
    <path d="M112.075 33.3454L90.5152 10.193L68.9556 8.4481C69.5637 8.09781 69.5637 8.09781 69.5637 8.09781L91.4075 9.8625L112.967 33.0149C112.967 33.0149 115.862 60.7873 97.2237 67.1587C114.871 60.2189 112.075 33.3454 112.075 33.3454Z" fill="white"/>
    <path d="M5.60521 30.5431L27.1648 7.39061L48.7244 5.64575C48.7244 5.64575 52.1877 34.8722 27.1648 65.8699C2.13532 63.7681 5.60521 30.5431 5.60521 30.5431Z" fill="url(#paint3_linear)"/>
    <path d="M48.7177 5.64575L53.569 8.44811L32.0094 10.193L27.1581 7.39061L48.7177 5.64575Z" fill="url(#paint4_linear)"/>
    <path d="M10.4497 33.3455L32.0093 10.1931L40.8724 9.2942L53.5689 8.44821C53.5689 8.44821 57.0322 37.6746 32.0093 68.6723C6.98643 66.5706 10.4497 33.3455 10.4497 33.3455Z" fill="url(#paint5_linear)"/>
    <path d="M10.4498 33.3454L32.0094 10.193L53.569 8.4481C52.9609 8.09781 52.9609 8.09781 52.9609 8.09781L31.1171 9.8625L9.5575 33.0149C9.5575 33.0149 6.66261 60.7873 25.3009 67.1587C7.65401 60.2189 10.4498 33.3454 10.4498 33.3454Z" fill="white"/>
    <path d="M78.9816 34.1212V29.9626C78.9816 28.2221 80.8648 27.1379 82.3699 28.0081L96.0869 35.9259C97.2781 36.6178 98.0128 37.8875 98.0128 39.2642V43.4228C98.0128 45.1633 96.1297 46.2475 94.6246 45.3773L80.9076 37.4595C79.7163 36.7747 78.9816 35.4979 78.9816 34.1212Z" fill="#E6E7E8"/>
    <path d="M78.4467 34.3851V30.2265C78.4467 28.486 80.3298 27.4018 81.8349 28.272L95.5519 36.1898C96.7431 36.8817 97.4779 38.1514 97.4779 39.5281V43.6867C97.4779 45.4272 95.5947 46.5115 94.0896 45.6412L80.3726 37.7234C79.1814 37.0386 78.4467 35.7689 78.4467 34.3851Z" fill="url(#paint6_linear)"/>
    <path d="M80.3583 35.5122L95.5662 44.2931V38.4153L80.3583 29.6345V35.5122Z" fill="url(#paint7_linear)"/>
    <path d="M81.6352 35.0342V30.3692L80.3583 29.6345V35.5122L95.5662 44.2931V43.0733L81.6352 35.0342Z" fill="#7A6330"/>
    <path d="M92.984 39.3997H72.7758V42.2529C72.7758 42.2815 72.7758 42.31 72.7758 42.3314C72.7758 45.577 77.2982 48.2162 82.8835 48.2162C88.4616 48.2162 92.9911 45.5841 92.9911 42.3314C92.9911 42.3029 92.9911 42.2743 92.984 42.2529H92.9911V39.3997H92.984Z" fill="url(#paint8_linear)"/>
    <path d="M72.7758 41.8749V41.9534C72.7758 41.932 72.783 41.9034 72.7758 41.8749Z" fill="url(#paint9_linear)"/>
    <path d="M82.8835 47.5885C77.3054 47.5885 72.7758 44.9564 72.7758 41.7037V42.253C72.7758 42.2815 72.7758 42.31 72.7758 42.3314C72.7758 45.577 77.2982 48.2163 82.8835 48.2163C88.4616 48.2163 92.9911 45.5841 92.9911 42.3314C92.9911 42.3029 92.9911 42.2744 92.984 42.253H92.9911V41.7037C92.984 44.9564 88.4616 47.5885 82.8835 47.5885Z" fill="url(#paint10_linear)"/>
    <path d="M92.984 41.9534V41.8749H92.9769C92.984 41.9034 92.984 41.932 92.984 41.9534Z" fill="url(#paint11_linear)"/>
    <path d="M85.9792 47.9309C86.0791 47.9095 86.1647 47.8881 86.2646 47.8739V40.4055H85.9792V47.9309Z" fill="#FDD65B"/>
    <path d="M87.249 47.6385C87.3417 47.61 87.4416 47.5886 87.5343 47.56V40.4055H87.249V47.6385Z" fill="#FDD65B"/>
    <path d="M88.5186 47.2176C88.6185 47.182 88.7041 47.1392 88.804 47.0964V40.4055H88.5186V47.2176Z" fill="#FDD65B"/>
    <path d="M84.7095 48.1164C84.8023 48.1093 84.9021 48.1021 84.9949 48.0879V40.4055H84.7095V48.1164Z" fill="#FDD65B"/>
    <path d="M91.058 45.7839C91.1508 45.7054 91.2506 45.6269 91.3434 45.5485V40.3983H91.058V45.7839Z" fill="#FDD65B"/>
    <path d="M92.3206 44.4143C92.4276 44.2502 92.5203 44.0862 92.6059 43.915V40.4055H92.3206V44.4143Z" fill="#FDD65B"/>
    <path d="M89.7812 46.6256C89.874 46.5757 89.9738 46.5257 90.0665 46.4687V40.4055H89.7812V46.6256Z" fill="#FDD65B"/>
    <path d="M83.4398 48.202C83.5326 48.202 83.6253 48.1949 83.7252 48.1949V40.4055H83.4398V48.202Z" fill="#FDD65B"/>
    <path d="M82.1701 48.1949C82.2629 48.202 82.3556 48.202 82.4555 48.202V40.4055H82.1701V48.1949Z" fill="#FDD65B"/>
    <path d="M79.6307 47.9024C79.7235 47.9238 79.8162 47.9452 79.9161 47.9595V40.4055H79.6307V47.9024Z" fill="#FDD65B"/>
    <path d="M80.9005 48.1021C80.9932 48.1093 81.0931 48.1164 81.1858 48.1235V40.4055H80.9005V48.1021Z" fill="#FDD65B"/>
    <path d="M78.3611 47.5886C78.4538 47.6171 78.5465 47.6456 78.6464 47.667V40.4055H78.3611V47.5886Z" fill="#FDD65B"/>
    <path d="M73.2823 44.1646C73.3679 44.3144 73.4606 44.4714 73.5676 44.614V40.3983H73.2823V44.1646Z" fill="#FDD65B"/>
    <path d="M74.552 45.6626C74.6447 45.7411 74.7374 45.8124 74.8373 45.8837V40.4055H74.552V45.6626Z" fill="#FDD65B"/>
    <path d="M77.0913 47.1534C77.1841 47.1891 77.2768 47.2319 77.3767 47.2676V40.4055H77.0913V47.1534Z" fill="#FDD65B"/>
    <path d="M75.8217 46.54C75.9144 46.5899 76.0071 46.6398 76.107 46.6898V40.4055H75.8217V46.54Z" fill="#FDD65B"/>
    <path d="M92.984 39.4425C92.984 42.6952 88.4616 45.3274 82.8763 45.3274C77.2982 45.3274 72.7687 42.6952 72.7687 39.4425C72.7687 36.1898 77.2911 33.5577 82.8763 33.5577C88.4616 33.5577 92.984 36.1898 92.984 39.4425Z" fill="url(#paint12_linear)"/>
    <path d="M82.8835 45.1704C77.4195 45.1704 72.9827 42.6453 72.7972 39.4925C72.7901 39.5638 72.783 39.628 72.783 39.6993C72.783 42.9449 77.3054 45.5842 82.8906 45.5842C88.4687 45.5842 92.9983 42.952 92.9983 39.6993C92.9983 39.628 92.984 39.5638 92.984 39.4925C92.7843 42.6453 88.3403 45.1704 82.8835 45.1704Z" fill="url(#paint13_radial)"/>
    <path d="M90.4375 39.4425C90.4375 41.8749 87.0564 43.8436 82.8835 43.8436C78.7106 43.8436 75.3295 41.8749 75.3295 39.4425C75.3295 37.0101 78.7106 35.0414 82.8835 35.0414C87.0492 35.0414 90.4375 37.0101 90.4375 39.4425Z" fill="url(#paint14_linear)"/>
    <path d="M83.1332 35.2625C87.1705 35.2625 90.4517 37.1028 90.6657 39.4211C90.6729 39.3426 90.6871 39.2642 90.6871 39.1857C90.6871 36.7533 87.306 34.7846 83.1332 34.7846C78.9603 34.7846 75.5792 36.7533 75.5792 39.1857C75.5792 39.2642 75.5934 39.3426 75.6006 39.4211C75.8146 37.11 79.0958 35.2625 83.1332 35.2625Z" fill="url(#paint15_radial)"/>
    <path d="M82.8835 35.5193C86.9209 35.5193 90.2021 37.3596 90.4161 39.6779C90.4232 39.5994 90.4375 39.521 90.4375 39.4425C90.4375 37.0101 87.0564 35.0414 82.8835 35.0414C78.7106 35.0414 75.3295 37.0101 75.3295 39.4425C75.3295 39.521 75.3438 39.5994 75.3509 39.6779C75.5578 37.3596 78.8461 35.5193 82.8835 35.5193Z" fill="url(#paint16_linear)"/>
    <path d="M83.4613 38.0587C83.2758 38.0943 83.0761 38.1371 82.8763 38.1942C82.698 38.237 82.5197 38.2941 82.32 38.3583C82.1202 38.4224 81.9348 38.4938 81.7493 38.5722L82.3556 38.9218C82.4127 38.9004 82.484 38.8718 82.5553 38.8504C82.6267 38.829 82.698 38.8005 82.7765 38.772C83.1189 38.6507 83.447 38.5508 83.7537 38.4652C84.0604 38.3796 84.3458 38.3297 84.6168 38.3012C84.8879 38.2727 85.1375 38.2798 85.3801 38.3226C85.6226 38.3654 85.858 38.451 86.0791 38.5794C86.343 38.7363 86.5142 38.9004 86.5856 39.0716C86.6569 39.2428 86.6569 39.4211 86.5856 39.5994C86.5142 39.7777 86.3858 39.9561 86.2075 40.1273C86.022 40.3056 85.8081 40.4697 85.5655 40.6266L86.3787 41.0974L85.7011 41.4897L84.8736 41.0189C84.4599 41.2258 84.0105 41.4184 83.5255 41.5824C83.0475 41.7536 82.5839 41.882 82.1345 41.9748L81.6922 40.8976C81.9205 40.8548 82.1559 40.7978 82.3984 40.7407C82.6053 40.6908 82.8335 40.6266 83.0832 40.541C83.3329 40.4625 83.5754 40.3698 83.7965 40.2628L83.2045 39.9204C82.9905 39.9989 82.7765 40.0773 82.5482 40.1487C82.213 40.2628 81.9062 40.3484 81.628 40.4126C81.3498 40.4768 81.1002 40.5125 80.8719 40.5267C80.6437 40.541 80.4297 40.5196 80.2371 40.4768C80.0445 40.434 79.859 40.3627 79.6807 40.2557C79.4382 40.113 79.2741 39.9632 79.1885 39.7991C79.1029 39.6351 79.0815 39.4567 79.1243 39.2784C79.1671 39.1001 79.2598 38.9218 79.4168 38.7363C79.5666 38.5508 79.7663 38.3796 80.0159 38.2156L79.3312 37.8233L80.0088 37.4309L80.6936 37.8304C80.9005 37.7305 81.1073 37.6449 81.3213 37.5665C81.5353 37.488 81.7422 37.4167 81.949 37.3453C82.1559 37.2811 82.3556 37.2241 82.5482 37.167C82.7408 37.1171 82.9191 37.0672 83.0832 37.0244L83.4613 38.0587ZM81.1858 39.1429C81.25 39.1857 81.3356 39.2 81.4354 39.1928C81.5353 39.1857 81.6566 39.1572 81.8064 39.1144L81.2928 38.8148C81.093 38.9574 81.0503 39.0716 81.1858 39.1429ZM84.4242 39.685C84.36 39.6493 84.2744 39.6351 84.1603 39.6493C84.0462 39.6636 83.9106 39.6921 83.7608 39.7349L84.2602 40.0203C84.3886 39.9347 84.4599 39.8705 84.4813 39.8134C84.5027 39.7635 84.4884 39.7207 84.4242 39.685Z" fill="url(#paint17_linear)"/>
    <path d="M83.4613 37.809C83.2758 37.8447 83.0761 37.8875 82.8763 37.9445C82.698 37.9873 82.5197 38.0444 82.32 38.1086C82.1202 38.1728 81.9348 38.2441 81.7493 38.3226L82.3556 38.6721C82.4127 38.6507 82.484 38.6222 82.5554 38.6008C82.6267 38.5794 82.698 38.5508 82.7765 38.5223C83.1189 38.4011 83.447 38.3012 83.7537 38.2156C84.0604 38.13 84.3458 38.0801 84.6168 38.0515C84.8879 38.023 85.1376 38.0301 85.3801 38.0729C85.6226 38.1157 85.858 38.2013 86.0791 38.3297C86.3431 38.4795 86.5142 38.6436 86.5856 38.8219C86.6569 38.9931 86.6569 39.1714 86.5856 39.3498C86.5142 39.5281 86.3858 39.7064 86.2075 39.8776C86.0221 40.0559 85.8081 40.22 85.5655 40.3769L86.3787 40.8477L85.7011 41.24L84.8736 40.7693C84.4599 40.9761 84.0105 41.1687 83.5255 41.3328C83.0475 41.504 82.5839 41.6324 82.1345 41.7251L81.6922 40.648C81.9205 40.6052 82.1559 40.5481 82.3984 40.4911C82.6053 40.4411 82.8336 40.3769 83.0832 40.2913C83.3329 40.2129 83.5754 40.1201 83.7965 40.0131L83.2116 39.6708C82.9976 39.7492 82.7836 39.8277 82.5554 39.899C82.2201 40.0131 81.9134 40.0987 81.6352 40.1629C81.357 40.2271 81.1073 40.2628 80.8791 40.2771C80.6508 40.2913 80.4368 40.2699 80.2442 40.2271C80.0516 40.1843 79.8662 40.113 79.6878 40.0131C79.4453 39.8705 79.2812 39.7207 79.1956 39.5566C79.11 39.3926 79.0886 39.2142 79.1314 39.0359C79.1742 38.8576 79.267 38.6792 79.4239 38.4938C79.5737 38.3083 79.7734 38.1371 80.0231 37.9731L79.3383 37.5807L80.016 37.1884L80.7007 37.5879C80.9076 37.488 81.1145 37.4024 81.3285 37.3239C81.5424 37.2455 81.7493 37.1742 81.9562 37.1028C82.163 37.0386 82.3628 36.9816 82.5554 36.9245C82.748 36.8746 82.9263 36.8246 83.0903 36.7818L83.4613 37.809ZM81.1858 38.8932C81.25 38.9289 81.3356 38.9503 81.4354 38.9432C81.5353 38.936 81.6566 38.9075 81.8064 38.8647L81.2928 38.5651C81.0931 38.7078 81.0503 38.8148 81.1858 38.8932ZM84.4242 39.4354C84.36 39.3997 84.2744 39.3854 84.1603 39.3997C84.0462 39.414 83.9107 39.4354 83.7609 39.4853L84.2602 39.7778C84.3886 39.6922 84.4599 39.628 84.4813 39.5709C84.5027 39.5138 84.4884 39.471 84.4242 39.4354Z" fill="url(#paint18_linear)"/>
    <path d="M83.4613 37.809C83.2758 37.8447 83.0761 37.8875 82.8763 37.9445C82.698 37.9873 82.5197 38.0444 82.32 38.1086C82.1202 38.1728 81.9348 38.2441 81.7493 38.3226L82.3556 38.6721C82.4127 38.6507 82.484 38.6222 82.5554 38.6008C82.6267 38.5794 82.698 38.5508 82.7765 38.5223C83.1189 38.4011 83.447 38.3012 83.7537 38.2156C84.0604 38.13 84.3458 38.0801 84.6168 38.0515C84.8879 38.023 85.1376 38.0301 85.3801 38.0729C85.6226 38.1157 85.858 38.2013 86.0791 38.3297C86.3431 38.4795 86.5142 38.6436 86.5856 38.8219C86.6569 38.9931 86.6569 39.1714 86.5856 39.3498C86.5142 39.5281 86.3858 39.7064 86.2075 39.8776C86.0221 40.0559 85.8081 40.22 85.5655 40.3769L86.3787 40.8477L85.7011 41.24L84.8736 40.7693C84.4599 40.9761 84.0105 41.1687 83.5255 41.3328C83.0475 41.504 82.5839 41.6324 82.1345 41.7251L81.6922 40.648C81.9205 40.6052 82.1559 40.5481 82.3984 40.4911C82.6053 40.4411 82.8336 40.3769 83.0832 40.2913C83.3329 40.2129 83.5754 40.1201 83.7965 40.0131L83.2116 39.6708C82.9976 39.7492 82.7836 39.8277 82.5554 39.899C82.2201 40.0131 81.9134 40.0987 81.6352 40.1629C81.357 40.2271 81.1073 40.2628 80.8791 40.2771C80.6508 40.2913 80.4368 40.2699 80.2442 40.2271C80.0516 40.1843 79.8662 40.113 79.6878 40.0131C79.4453 39.8705 79.2812 39.7207 79.1956 39.5566C79.11 39.3926 79.0886 39.2142 79.1314 39.0359C79.1742 38.8576 79.267 38.6792 79.4239 38.4938C79.5737 38.3083 79.7734 38.1371 80.0231 37.9731L79.3383 37.5807L80.016 37.1884L80.7007 37.5879C80.9076 37.488 81.1145 37.4024 81.3285 37.3239C81.5424 37.2455 81.7493 37.1742 81.9562 37.1028C82.163 37.0386 82.3628 36.9816 82.5554 36.9245C82.748 36.8746 82.9263 36.8246 83.0903 36.7818L83.4613 37.809ZM81.1858 38.8932C81.25 38.9289 81.3356 38.9503 81.4354 38.9432C81.5353 38.936 81.6566 38.9075 81.8064 38.8647L81.2928 38.5651C81.0931 38.7078 81.0503 38.8148 81.1858 38.8932ZM84.4242 39.4354C84.36 39.3997 84.2744 39.3854 84.1603 39.3997C84.0462 39.414 83.9107 39.4354 83.7609 39.4853L84.2602 39.7778C84.3886 39.6922 84.4599 39.628 84.4813 39.5709C84.5027 39.5138 84.4884 39.471 84.4242 39.4354Z" fill="url(#paint19_radial)"/>
    <path d="M41.3936 34.1212V29.9626C41.3936 28.2221 39.5104 27.1379 38.0053 28.0081L24.2883 35.9259C23.0971 36.6178 22.3624 37.8875 22.3624 39.2642V43.4228C22.3624 45.1633 24.2455 46.2475 25.7506 45.3773L39.4676 37.4595C40.6589 36.7747 41.3936 35.4979 41.3936 34.1212Z" fill="#E6E7E8"/>
    <path d="M41.9286 34.3851V30.2265C41.9286 28.486 40.0454 27.4018 38.5403 28.272L24.8233 36.1898C23.6321 36.8817 22.8902 38.1514 22.8902 39.5281V43.6867C22.8902 45.4272 24.7734 46.5115 26.2785 45.6412L39.9955 37.7234C41.1939 37.0386 41.9286 35.7689 41.9286 34.3851Z" fill="url(#paint20_linear)"/>
    <path d="M40.0169 35.5122L24.809 44.2931V38.4153L40.0169 29.6345V35.5122Z" fill="url(#paint21_linear)"/>
    <path d="M38.74 35.0342V30.3692L40.0169 29.6345V35.5122L24.809 44.2931V43.0733L38.74 35.0342Z" fill="#7A6330"/>
    <path d="M28.1046 39.3997H48.3127V42.253C48.3127 42.2815 48.3127 42.31 48.3127 42.3314C48.3127 45.577 43.7903 48.2163 38.2122 48.2163C32.6341 48.2163 28.1046 45.5841 28.1046 42.3314C28.1046 42.3029 28.1046 42.2744 28.1117 42.253H28.1046V39.3997Z" fill="url(#paint22_linear)"/>
    <path d="M48.3127 41.8749V41.9534C48.3127 41.932 48.3056 41.9034 48.3127 41.8749Z" fill="url(#paint23_linear)"/>
    <path d="M38.2051 47.5886C43.7832 47.5886 48.3056 44.9564 48.3056 41.7037V42.253C48.3056 42.2815 48.3056 42.3101 48.3056 42.3315C48.3056 45.577 43.7832 48.2163 38.2051 48.2163C32.627 48.2163 28.0974 45.5842 28.0974 42.3315C28.0974 42.3029 28.0974 42.2744 28.1045 42.253H28.0974V41.7037C28.1045 44.9564 32.627 47.5886 38.2051 47.5886Z" fill="url(#paint24_linear)"/>
    <path d="M28.1046 41.9534V41.8749H28.1117C28.1046 41.9034 28.1046 41.932 28.1046 41.9534Z" fill="url(#paint25_linear)"/>
    <path d="M35.1093 47.9309C35.0166 47.9095 34.9238 47.8881 34.824 47.8739V40.4055H35.1093V47.9309Z" fill="#FDD65B"/>
    <path d="M33.8396 47.6385C33.7469 47.61 33.647 47.5886 33.5543 47.56V40.4055H33.8396V47.6385Z" fill="#FDD65B"/>
    <path d="M32.5699 47.2176C32.4772 47.182 32.3844 47.1392 32.2917 47.0964V40.4055H32.5699V47.2176Z" fill="#FDD65B"/>
    <path d="M36.379 48.1164C36.2863 48.1093 36.1864 48.1021 36.0937 48.0879V40.4055H36.379V48.1164Z" fill="#FDD65B"/>
    <path d="M30.0376 45.7839C29.9449 45.7054 29.8451 45.627 29.7523 45.5485V40.3984H30.0376V45.7839Z" fill="#FDD65B"/>
    <path d="M28.7679 44.4151C28.6609 44.251 28.5682 44.0869 28.4826 43.9158V40.4062H28.7679V44.4151Z" fill="#FDD65B"/>
    <path d="M31.3073 46.6256C31.2146 46.5757 31.1147 46.5257 31.022 46.4687V40.4055H31.3073V46.6256Z" fill="#FDD65B"/>
    <path d="M37.6487 48.202C37.556 48.202 37.4561 48.1949 37.3634 48.1949V40.4055H37.6487V48.202Z" fill="#FDD65B"/>
    <path d="M38.9184 48.1949C38.8257 48.202 38.7329 48.202 38.6331 48.202V40.4055H38.9184V48.1949Z" fill="#FDD65B"/>
    <path d="M41.4578 47.9024C41.3651 47.9238 41.2723 47.9452 41.1725 47.9595V40.4055H41.4578V47.9024Z" fill="#FDD65B"/>
    <path d="M40.1881 48.1021C40.0954 48.1093 39.9955 48.1164 39.9028 48.1235V40.4055H40.1881V48.1021Z" fill="#FDD65B"/>
    <path d="M42.7275 47.5886C42.6347 47.6171 42.542 47.6456 42.4421 47.667V40.4055H42.7275V47.5886Z" fill="#FDD65B"/>
    <path d="M47.8063 44.1647C47.7207 44.3145 47.6279 44.4714 47.5209 44.6141V40.3984H47.8063V44.1647Z" fill="#FDD65B"/>
    <path d="M46.5366 45.6626C46.4439 45.7411 46.3511 45.8124 46.2513 45.8837V40.4055H46.5366V45.6626Z" fill="#FDD65B"/>
    <path d="M43.9972 47.1534C43.9044 47.1891 43.8117 47.2319 43.7119 47.2676V40.4055H43.9972V47.1534Z" fill="#FDD65B"/>
    <path d="M45.2669 46.54C45.1741 46.5899 45.0814 46.6398 44.9815 46.6898V40.4055H45.2669V46.54Z" fill="#FDD65B"/>
    <path d="M28.1053 39.4425C28.1053 42.6953 32.6277 45.3274 38.2129 45.3274C43.7911 45.3274 48.3135 42.6953 48.3135 39.4425C48.3135 36.1898 43.7911 33.5577 38.2129 33.5577C32.6277 33.5577 28.1053 36.1898 28.1053 39.4425Z" fill="url(#paint26_linear)"/>
    <path d="M38.2051 45.1704C43.6691 45.1704 48.1059 42.6453 48.2913 39.4925C48.2985 39.5638 48.3056 39.628 48.3056 39.6993C48.3056 42.9449 43.7832 45.5842 38.2051 45.5842C32.627 45.5842 28.0974 42.952 28.0974 39.6993C28.0974 39.628 28.1117 39.5638 28.1117 39.4925C28.3114 42.6453 32.7482 45.1704 38.2051 45.1704Z" fill="url(#paint27_radial)"/>
    <path d="M30.6511 39.4425C30.6511 41.8749 34.0322 43.8437 38.2051 43.8437C42.378 43.8437 45.7591 41.8749 45.7591 39.4425C45.7591 37.0101 42.378 35.0414 38.2051 35.0414C34.0322 35.0414 30.6511 37.0101 30.6511 39.4425Z" fill="url(#paint28_linear)"/>
    <path d="M37.9554 35.2625C33.918 35.2625 30.6368 37.1028 30.4228 39.4211C30.4157 39.3426 30.4014 39.2642 30.4014 39.1857C30.4014 36.7533 33.7825 34.7846 37.9554 34.7846C42.1283 34.7846 45.5094 36.7533 45.5094 39.1857C45.5094 39.2642 45.4951 39.3426 45.488 39.4211C45.274 37.11 41.9927 35.2625 37.9554 35.2625Z" fill="url(#paint29_radial)"/>
    <path d="M38.2051 35.5193C34.1677 35.5193 30.8794 37.3596 30.6725 39.6779C30.6654 39.5995 30.6511 39.521 30.6511 39.4425C30.6511 37.0101 34.0322 35.0414 38.2051 35.0414C42.378 35.0414 45.7591 37.0101 45.7591 39.4425C45.7591 39.521 45.7448 39.5995 45.7377 39.6779C45.5308 37.3596 42.2424 35.5193 38.2051 35.5193Z" fill="url(#paint30_linear)"/>
    <path d="M37.9982 37.0244C38.1623 37.0672 38.3406 37.1171 38.5332 37.167C38.7258 37.217 38.9255 37.2812 39.1324 37.3454C39.3392 37.4096 39.5461 37.488 39.7601 37.5665C39.9741 37.645 40.1809 37.7377 40.3878 37.8304L41.0726 37.431L41.7502 37.8233L41.0655 38.2156C41.308 38.3797 41.5077 38.558 41.6575 38.7363C41.8144 38.9218 41.9072 39.1001 41.95 39.2785C41.9928 39.4568 41.9714 39.628 41.8858 39.7992C41.8002 39.9632 41.6361 40.1202 41.3936 40.2557C41.2153 40.3556 41.0369 40.434 40.8372 40.4768C40.6375 40.5196 40.4306 40.5339 40.2023 40.5267C39.9741 40.5196 39.7173 40.4768 39.4462 40.4126C39.168 40.3484 38.8685 40.2628 38.5261 40.1487C38.3049 40.0774 38.0838 39.9989 37.8698 39.9204L37.2778 40.2628C37.506 40.3698 37.7414 40.4626 37.9911 40.541C38.2407 40.6195 38.469 40.6908 38.6759 40.7407C38.9184 40.8049 39.1538 40.8549 39.382 40.8977L38.9398 41.9748C38.4904 41.8821 38.0267 41.7537 37.5488 41.5825C37.0709 41.4184 36.6215 41.2258 36.2007 41.0189L35.3732 41.4969L34.6956 41.1045L35.5087 40.6337C35.2591 40.4768 35.0451 40.3056 34.8668 40.1344C34.6813 39.9561 34.5529 39.7849 34.4887 39.6066C34.4174 39.4283 34.4174 39.2499 34.4887 39.0787C34.56 38.9004 34.7241 38.7435 34.9952 38.5865C35.2234 38.4581 35.4517 38.3725 35.6942 38.3297C35.9367 38.2869 36.1935 38.2798 36.4575 38.3083C36.7285 38.3369 37.0138 38.3939 37.3206 38.4724C37.6273 38.558 37.9483 38.6579 38.2978 38.7791C38.3763 38.8077 38.4476 38.8362 38.5189 38.8576C38.5903 38.879 38.6616 38.9075 38.7187 38.9289L39.325 38.5794C39.1466 38.5009 38.954 38.4296 38.7543 38.3654C38.5546 38.3012 38.3691 38.2442 38.1979 38.2014C37.9982 38.1514 37.8056 38.1015 37.613 38.0658L37.9982 37.0244ZM39.7958 38.8148L39.2822 39.1144C39.432 39.1572 39.5532 39.1857 39.6531 39.1929C39.753 39.2 39.8386 39.1857 39.9028 39.1429C40.0383 39.0716 39.9955 38.9575 39.7958 38.8148ZM36.6001 39.8134C36.6215 39.8705 36.6928 39.9347 36.8212 40.0203L37.3206 39.735C37.1708 39.6922 37.0424 39.6636 36.9282 39.6494C36.8141 39.6351 36.7214 39.6494 36.6643 39.685C36.6001 39.7207 36.5858 39.7635 36.6001 39.8134Z" fill="url(#paint31_linear)"/>
    <path d="M37.9982 36.7676C38.1623 36.8104 38.3406 36.8603 38.5332 36.9103C38.7258 36.9602 38.9255 37.0244 39.1324 37.0886C39.3392 37.1528 39.5461 37.2241 39.7601 37.3097C39.9741 37.3882 40.1809 37.4809 40.3878 37.5737L41.0726 37.1742L41.7502 37.5665L41.0654 37.9588C41.308 38.1229 41.5077 38.3012 41.6575 38.4796C41.8144 38.6579 41.9072 38.8433 41.95 39.0217C41.9927 39.2 41.9714 39.3712 41.8858 39.5424C41.8002 39.7065 41.6361 39.8634 41.3936 39.9989C41.2152 40.0988 41.0369 40.1701 40.8372 40.2129C40.6375 40.2557 40.4306 40.27 40.2023 40.2628C39.9741 40.2486 39.7173 40.2129 39.4462 40.1487C39.168 40.0845 38.8684 39.9989 38.526 39.8848C38.3049 39.8135 38.0838 39.735 37.8698 39.6565L37.2777 39.9989C37.506 40.1059 37.7414 40.1986 37.9911 40.2771C38.2407 40.3556 38.469 40.4198 38.6758 40.4768C38.9184 40.541 39.1538 40.591 39.382 40.6338L38.9398 41.7109C38.4904 41.6181 38.0267 41.4897 37.5488 41.3185C37.0709 41.1545 36.6215 40.9619 36.2006 40.755L35.3732 41.233L34.6956 40.8406L35.523 40.3841C35.2733 40.2272 35.0593 40.056 34.881 39.8848C34.6956 39.7065 34.5672 39.5353 34.503 39.3569C34.4316 39.1786 34.4316 39.0003 34.503 38.8291C34.5743 38.6508 34.7384 38.4938 35.0094 38.3369C35.2377 38.2085 35.4659 38.1229 35.7085 38.0801C35.951 38.0373 36.2078 38.0302 36.4717 38.0587C36.7428 38.0872 37.0281 38.1443 37.3348 38.2228C37.6415 38.3012 37.9625 38.4082 38.3121 38.5295C38.3905 38.558 38.4618 38.5866 38.5332 38.608C38.6045 38.6294 38.6758 38.6579 38.7329 38.6793L39.3392 38.3298C39.1609 38.2513 38.9683 38.18 38.7686 38.1158C38.5688 38.0516 38.3834 37.9945 38.2122 37.9517C38.0125 37.8946 37.8199 37.8518 37.6273 37.8162L37.9982 36.7676ZM39.7957 38.5652L39.2822 38.8648C39.432 38.9076 39.5532 38.9361 39.6531 38.9432C39.7529 38.9504 39.8385 38.9361 39.9027 38.8933C40.0383 38.8148 39.9955 38.7078 39.7957 38.5652ZM36.6001 39.5638C36.6215 39.6209 36.6928 39.6851 36.8212 39.7707L37.3205 39.4782C37.1708 39.4354 37.0424 39.4069 36.9282 39.3926C36.8141 39.3783 36.7214 39.3926 36.6643 39.4283C36.6001 39.4711 36.5858 39.5139 36.6001 39.5638Z" fill="url(#paint32_linear)"/>
    <path d="M37.9982 36.7676C38.1623 36.8104 38.3406 36.8603 38.5332 36.9103C38.7258 36.9602 38.9255 37.0244 39.1324 37.0886C39.3392 37.1528 39.5461 37.2241 39.7601 37.3097C39.9741 37.3882 40.1809 37.4809 40.3878 37.5737L41.0726 37.1742L41.7502 37.5665L41.0654 37.9588C41.308 38.1229 41.5077 38.3012 41.6575 38.4796C41.8144 38.6579 41.9072 38.8433 41.95 39.0217C41.9927 39.2 41.9714 39.3712 41.8858 39.5424C41.8002 39.7065 41.6361 39.8634 41.3936 39.9989C41.2152 40.0988 41.0369 40.1701 40.8372 40.2129C40.6375 40.2557 40.4306 40.27 40.2023 40.2628C39.9741 40.2486 39.7173 40.2129 39.4462 40.1487C39.168 40.0845 38.8684 39.9989 38.526 39.8848C38.3049 39.8135 38.0838 39.735 37.8698 39.6565L37.2777 39.9989C37.506 40.1059 37.7414 40.1986 37.9911 40.2771C38.2407 40.3556 38.469 40.4198 38.6758 40.4768C38.9184 40.541 39.1538 40.591 39.382 40.6338L38.9398 41.7109C38.4904 41.6181 38.0267 41.4897 37.5488 41.3185C37.0709 41.1545 36.6215 40.9619 36.2006 40.755L35.3732 41.233L34.6956 40.8406L35.523 40.3841C35.2733 40.2272 35.0593 40.056 34.881 39.8848C34.6956 39.7065 34.5672 39.5353 34.503 39.3569C34.4316 39.1786 34.4316 39.0003 34.503 38.8291C34.5743 38.6508 34.7384 38.4938 35.0094 38.3369C35.2377 38.2085 35.4659 38.1229 35.7085 38.0801C35.951 38.0373 36.2078 38.0302 36.4717 38.0587C36.7428 38.0872 37.0281 38.1443 37.3348 38.2228C37.6415 38.3012 37.9625 38.4082 38.3121 38.5295C38.3905 38.558 38.4618 38.5866 38.5332 38.608C38.6045 38.6294 38.6758 38.6579 38.7329 38.6793L39.3392 38.3298C39.1609 38.2513 38.9683 38.18 38.7686 38.1158C38.5688 38.0516 38.3834 37.9945 38.2122 37.9517C38.0125 37.8946 37.8199 37.8518 37.6273 37.8162L37.9982 36.7676ZM39.7957 38.5652L39.2822 38.8648C39.432 38.9076 39.5532 38.9361 39.6531 38.9432C39.7529 38.9504 39.8385 38.9361 39.9027 38.8933C40.0383 38.8148 39.9955 38.7078 39.7957 38.5652ZM36.6001 39.5638C36.6215 39.6209 36.6928 39.6851 36.8212 39.7707L37.3205 39.4782C37.1708 39.4354 37.0424 39.4069 36.9282 39.3926C36.8141 39.3783 36.7214 39.3926 36.6643 39.4283C36.6001 39.4711 36.5858 39.5139 36.6001 39.5638Z" fill="url(#paint33_radial)"/>
    <path d="M72.059 60.15H51.8508V63.0032C51.8508 63.0318 51.8508 63.0603 51.8508 63.0817C51.8508 66.3273 56.3732 68.9665 61.9513 68.9665C67.5294 68.9665 72.059 66.3344 72.059 63.0817C72.059 63.0532 72.059 63.0246 72.0518 63.0032H72.059V60.15Z" fill="url(#paint34_linear)"/>
    <path d="M61.9592 68.3388C56.3811 68.3388 51.8587 65.7067 51.8587 62.454V63.0032C51.8587 63.0318 51.8587 63.0603 51.8587 63.0817C51.8587 66.3273 56.3811 68.9665 61.9592 68.9665C67.5373 68.9665 72.0668 66.3344 72.0668 63.0817C72.0668 63.0532 72.0668 63.0246 72.0597 63.0032H72.0668V62.454C72.0597 65.7067 67.5373 68.3388 61.9592 68.3388Z" fill="url(#paint35_linear)"/>
    <path d="M72.059 62.7036V62.6251H72.0518C72.059 62.6537 72.059 62.6822 72.059 62.7036Z" fill="url(#paint36_linear)"/>
    <path d="M65.0471 68.6812C65.1398 68.6598 65.2325 68.6384 65.3324 68.6241V61.1558H65.0471V68.6812Z" fill="#FDD65B"/>
    <path d="M66.3168 68.3888C66.4095 68.3602 66.5094 68.3388 66.6021 68.3103V61.1558H66.3168V68.3888Z" fill="#FDD65B"/>
    <path d="M67.5936 67.9679C67.6863 67.9322 67.7791 67.8894 67.8718 67.8466V61.1558H67.5936V67.9679Z" fill="#FDD65B"/>
    <path d="M63.7845 68.8667C63.8772 68.8595 63.9771 68.8524 64.0698 68.8381V61.1558H63.7845V68.8667Z" fill="#FDD65B"/>
    <path d="M70.1259 66.5341C70.2186 66.4557 70.3185 66.3772 70.4112 66.2987V61.1486H70.1259V66.5341Z" fill="#FDD65B"/>
    <path d="M71.3956 65.1646C71.5026 65.0005 71.5953 64.8365 71.6809 64.6653V61.1558H71.3956V65.1646Z" fill="#FDD65B"/>
    <path d="M68.8562 67.3758C68.9489 67.3259 69.0488 67.276 69.1415 67.2189V61.1558H68.8562V67.3758Z" fill="#FDD65B"/>
    <path d="M62.5148 68.9523C62.6075 68.9523 62.7074 68.9451 62.8001 68.9451V61.1558H62.5148V68.9523Z" fill="#FDD65B"/>
    <path d="M61.2451 68.9451C61.3378 68.9523 61.4306 68.9523 61.5304 68.9523V61.1486H61.2451V68.9451Z" fill="#FDD65B"/>
    <path d="M58.7057 68.6527C58.7984 68.6741 58.8912 68.6955 58.991 68.7097V61.1558H58.7057V68.6527Z" fill="#FDD65B"/>
    <path d="M59.9754 68.8524C60.0681 68.8595 60.168 68.8667 60.2607 68.8738V61.1486H59.9754V68.8524Z" fill="#FDD65B"/>
    <path d="M57.436 68.3388C57.5287 68.3674 57.6215 68.3959 57.7213 68.4173V61.1486H57.436V68.3388Z" fill="#FDD65B"/>
    <path d="M52.3572 64.9149C52.4428 65.0647 52.5356 65.2216 52.6426 65.3643V61.1486H52.3572V64.9149Z" fill="#FDD65B"/>
    <path d="M53.6269 66.4129C53.7197 66.4913 53.8124 66.5627 53.9122 66.634V61.1558H53.6269V66.4129Z" fill="#FDD65B"/>
    <path d="M56.1663 67.9037C56.2591 67.9394 56.3518 67.9822 56.4516 68.0178V61.1558H56.1663V67.9037Z" fill="#FDD65B"/>
    <path d="M54.8966 67.2903C54.9894 67.3402 55.0821 67.3901 55.182 67.4401V61.1558H54.8966V67.2903Z" fill="#FDD65B"/>
    <path d="M72.0589 60.1928C72.0589 63.4455 67.5365 66.0776 61.9513 66.0776C56.3732 66.0776 51.8508 63.4455 51.8508 60.1928C51.8508 56.94 56.3732 54.3079 61.9513 54.3079C67.5365 54.3079 72.0589 56.94 72.0589 60.1928Z" fill="url(#paint37_linear)"/>
    <path d="M61.9584 65.9207C56.4945 65.9207 52.0576 63.3955 51.8722 60.2427C51.865 60.314 51.8579 60.3782 51.8579 60.4495C51.8579 63.6951 56.3803 66.3344 61.9584 66.3344C67.5365 66.3344 72.0661 63.7022 72.0661 60.4495C72.0661 60.3782 72.0518 60.314 72.0518 60.2427C71.8521 63.3955 67.4153 65.9207 61.9584 65.9207Z" fill="url(#paint38_radial)"/>
    <path d="M69.5124 60.1928C69.5124 62.6252 66.1313 64.5939 61.9584 64.5939C57.7856 64.5939 54.4044 62.6252 54.4044 60.1928C54.4044 57.7604 57.7856 55.7916 61.9584 55.7916C66.1242 55.7916 69.5124 57.7604 69.5124 60.1928Z" fill="url(#paint39_linear)"/>
    <path d="M62.2081 56.0127C66.2455 56.0127 69.5267 57.8531 69.7407 60.1713C69.7478 60.0929 69.7621 60.0144 69.7621 59.9359C69.7621 57.5035 66.381 55.5348 62.2081 55.5348C58.0352 55.5348 54.6541 57.5035 54.6541 59.9359C54.6541 60.0144 54.6684 60.0929 54.6755 60.1713C54.8824 57.8602 58.1708 56.0127 62.2081 56.0127Z" fill="url(#paint40_radial)"/>
    <path d="M61.9584 56.2695C65.9958 56.2695 69.2842 58.1099 69.491 60.4282C69.4982 60.3497 69.5124 60.2712 69.5124 60.1928C69.5124 57.7604 66.1313 55.7916 61.9584 55.7916C57.7856 55.7916 54.4044 57.7604 54.4044 60.1928C54.4044 60.2712 54.4187 60.3497 54.4258 60.4282C54.6327 58.1099 57.9211 56.2695 61.9584 56.2695Z" fill="url(#paint41_linear)"/>
    <path d="M62.5362 58.809C62.3507 58.8446 62.151 58.8874 61.9513 58.9445C61.7801 58.9873 61.5946 59.0443 61.3949 59.1085C61.1952 59.1727 61.0097 59.2441 60.8242 59.3225L61.4306 59.6721C61.4876 59.6507 61.559 59.6221 61.6303 59.6007C61.7016 59.5793 61.7801 59.5508 61.8514 59.5223C62.1938 59.401 62.5219 59.3011 62.8287 59.2155C63.1354 59.1299 63.4207 59.08 63.6918 59.0515C63.9628 59.0229 64.2125 59.0301 64.455 59.0729C64.6975 59.1157 64.9329 59.2013 65.1541 59.3297C65.418 59.4866 65.5892 59.6507 65.6605 59.8219C65.7318 59.9931 65.7318 60.1714 65.6605 60.3497C65.5892 60.528 65.4608 60.7064 65.2825 60.8776C65.097 61.0559 64.883 61.22 64.6405 61.3769L65.4536 61.8477L64.776 62.24L63.9486 61.7621C63.5277 61.9689 63.0854 62.1615 62.6004 62.3256C62.1225 62.4968 61.6588 62.6252 61.2094 62.7179L60.7672 61.6408C60.9954 61.598 61.2308 61.5409 61.4734 61.4839C61.6802 61.4339 61.9085 61.3698 62.1581 61.2842C62.4078 61.2057 62.6503 61.113 62.8715 61.006L62.2794 60.6636C62.0725 60.742 61.8514 60.8205 61.6232 60.8918C61.2879 61.006 60.9812 61.0916 60.703 61.1558C60.4319 61.22 60.1751 61.2556 59.9469 61.2699C59.7186 61.2842 59.5046 61.2628 59.312 61.22C59.1194 61.1772 58.934 61.1058 58.7556 60.9988C58.5131 60.8562 58.3491 60.7064 58.2635 60.5423C58.1779 60.3782 58.1565 60.1999 58.1993 60.0216C58.2349 59.8433 58.3348 59.6649 58.4917 59.4795C58.6415 59.294 58.8412 59.1228 59.0838 58.9587L58.399 58.5664L59.0766 58.1741L59.7614 58.5736C59.9683 58.4737 60.1751 58.3881 60.3891 58.3096C60.6031 58.2312 60.81 58.1598 61.0168 58.0885C61.2237 58.0243 61.4234 57.9672 61.616 57.9102C61.8086 57.8602 61.9869 57.8103 62.151 57.7675L62.5362 58.809ZM60.2607 59.8932C60.3249 59.936 60.4105 59.9503 60.5104 59.9431C60.6103 59.936 60.7315 59.9075 60.8813 59.8647L60.3677 59.5651C60.168 59.7077 60.1252 59.8219 60.2607 59.8932ZM63.4992 60.4353C63.435 60.3996 63.3494 60.3854 63.2352 60.3996C63.1211 60.4139 62.9856 60.4424 62.8429 60.4852L63.3422 60.7706C63.4706 60.685 63.542 60.6208 63.5634 60.5637C63.5776 60.5138 63.5634 60.471 63.4992 60.4353Z" fill="url(#paint42_linear)"/>
    <path d="M62.5362 58.5593C62.3507 58.5949 62.151 58.6377 61.9513 58.6948C61.7801 58.7376 61.5946 58.7947 61.3949 58.8589C61.1952 58.9231 61.0097 58.9944 60.8242 59.0729L61.4306 59.4224C61.4876 59.401 61.559 59.3724 61.6303 59.351C61.7016 59.3296 61.7801 59.3011 61.8514 59.2726C62.1938 59.1513 62.5219 59.0515 62.8287 58.9659C63.1354 58.8803 63.4207 58.8303 63.6918 58.8018C63.9628 58.7733 64.2125 58.7804 64.455 58.8232C64.6975 58.866 64.9329 58.9516 65.1541 59.08C65.418 59.2298 65.5892 59.3938 65.6605 59.5722C65.7318 59.7434 65.7318 59.9217 65.6605 60.1C65.5892 60.2784 65.4608 60.4567 65.2825 60.6279C65.097 60.8062 64.883 60.9703 64.6405 61.1272L65.4536 61.598L64.776 61.9903L63.9486 61.5124C63.5277 61.7193 63.0854 61.9118 62.6004 62.0759C62.1225 62.2471 61.6588 62.3755 61.2094 62.4682L60.7672 61.3911C60.9954 61.3483 61.2308 61.2913 61.4734 61.2342C61.6802 61.1843 61.9085 61.1201 62.1581 61.0345C62.4078 60.956 62.6503 60.8633 62.8715 60.7563L62.2794 60.4139C62.0725 60.4924 61.8514 60.5708 61.6232 60.6421C61.2879 60.7563 60.9812 60.8419 60.703 60.9061C60.4319 60.9703 60.1751 61.0059 59.9469 61.0202C59.7186 61.0345 59.5046 61.0131 59.312 60.9703C59.1194 60.9275 58.934 60.8561 58.7556 60.7563C58.5131 60.6136 58.3491 60.4638 58.2635 60.2998C58.1779 60.1357 58.1565 59.9574 58.1993 59.779C58.2349 59.6007 58.3348 59.4224 58.4917 59.2369C58.6415 59.0515 58.8412 58.8803 59.0838 58.7162L58.399 58.3239L59.0766 57.9316L59.7614 58.331C59.9683 58.2311 60.1751 58.1455 60.3891 58.0671C60.6031 57.9886 60.81 57.9173 61.0168 57.846C61.2237 57.7818 61.4234 57.7247 61.616 57.6676C61.8086 57.6177 61.9869 57.5678 62.151 57.525L62.5362 58.5593ZM60.2607 59.6435C60.3249 59.6792 60.4105 59.7006 60.5104 59.6934C60.6103 59.6863 60.7315 59.6578 60.8813 59.615L60.3677 59.3154C60.168 59.458 60.1252 59.565 60.2607 59.6435ZM63.4992 60.1856C63.435 60.15 63.3494 60.1357 63.2352 60.15C63.1211 60.1642 62.9856 60.1856 62.8429 60.2356L63.3422 60.528C63.4706 60.4424 63.542 60.3782 63.5634 60.3212C63.5776 60.2641 63.5634 60.2213 63.4992 60.1856Z" fill="url(#paint43_linear)"/>
    <path d="M62.5362 58.5593C62.3507 58.5949 62.151 58.6377 61.9513 58.6948C61.7801 58.7376 61.5946 58.7947 61.3949 58.8589C61.1952 58.9231 61.0097 58.9944 60.8242 59.0729L61.4306 59.4224C61.4876 59.401 61.559 59.3724 61.6303 59.351C61.7016 59.3296 61.7801 59.3011 61.8514 59.2726C62.1938 59.1513 62.5219 59.0515 62.8287 58.9659C63.1354 58.8803 63.4207 58.8303 63.6918 58.8018C63.9628 58.7733 64.2125 58.7804 64.455 58.8232C64.6975 58.866 64.9329 58.9516 65.1541 59.08C65.418 59.2298 65.5892 59.3938 65.6605 59.5722C65.7318 59.7434 65.7318 59.9217 65.6605 60.1C65.5892 60.2784 65.4608 60.4567 65.2825 60.6279C65.097 60.8062 64.883 60.9703 64.6405 61.1272L65.4536 61.598L64.776 61.9903L63.9486 61.5124C63.5277 61.7193 63.0854 61.9118 62.6004 62.0759C62.1225 62.2471 61.6588 62.3755 61.2094 62.4682L60.7672 61.3911C60.9954 61.3483 61.2308 61.2913 61.4734 61.2342C61.6802 61.1843 61.9085 61.1201 62.1581 61.0345C62.4078 60.956 62.6503 60.8633 62.8715 60.7563L62.2794 60.4139C62.0725 60.4924 61.8514 60.5708 61.6232 60.6421C61.2879 60.7563 60.9812 60.8419 60.703 60.9061C60.4319 60.9703 60.1751 61.0059 59.9469 61.0202C59.7186 61.0345 59.5046 61.0131 59.312 60.9703C59.1194 60.9275 58.934 60.8561 58.7556 60.7563C58.5131 60.6136 58.3491 60.4638 58.2635 60.2998C58.1779 60.1357 58.1565 59.9574 58.1993 59.779C58.2349 59.6007 58.3348 59.4224 58.4917 59.2369C58.6415 59.0515 58.8412 58.8803 59.0838 58.7162L58.399 58.3239L59.0766 57.9316L59.7614 58.331C59.9683 58.2311 60.1751 58.1455 60.3891 58.0671C60.6031 57.9886 60.81 57.9173 61.0168 57.846C61.2237 57.7818 61.4234 57.7247 61.616 57.6676C61.8086 57.6177 61.9869 57.5678 62.151 57.525L62.5362 58.5593ZM60.2607 59.6435C60.3249 59.6792 60.4105 59.7006 60.5104 59.6934C60.6103 59.6863 60.7315 59.6578 60.8813 59.615L60.3677 59.3154C60.168 59.458 60.1252 59.565 60.2607 59.6435ZM63.4992 60.1856C63.435 60.15 63.3494 60.1357 63.2352 60.15C63.1211 60.1642 62.9856 60.1856 62.8429 60.2356L63.3422 60.528C63.4706 60.4424 63.542 60.3782 63.5634 60.3212C63.5776 60.2641 63.5634 60.2213 63.4992 60.1856Z" fill="url(#paint44_radial)"/>
    <defs>
    <filter id="filter0_d" x="5.39221" y="36.673" width="112.26" height="68.327" filterUnits="userSpaceOnUse" color-interpolation-filters="sRGB">
    <feFlood flood-opacity="0" result="BackgroundImageFix"/>
    <feColorMatrix in="SourceAlpha" type="matrix" values="0 0 0 0 0 0 0 0 0 0 0 0 0 0 0 0 0 0 127 0"/>
    <feOffset dy="4"/>
    <feGaussianBlur stdDeviation="2"/>
    <feColorMatrix type="matrix" values="0 0 0 0 0.811765 0 0 0 0 0.898039 0 0 0 0 1 0 0 0 1 0"/>
    <feBlend mode="normal" in2="BackgroundImageFix" result="effect1_dropShadow"/>
    <feBlend mode="normal" in="SourceGraphic" in2="effect1_dropShadow" result="shape"/>
    </filter>
    <linearGradient id="paint0_linear" x1="89.127" y1="30.1413" x2="153.944" y2="50.0309" gradientUnits="userSpaceOnUse">
    <stop stop-color="#2573BA"/>
    <stop offset="0.907" stop-color="#0364AE"/>
    <stop offset="1" stop-color="#0063AD"/>
    </linearGradient>
    <linearGradient id="paint1_linear" x1="95.3634" y1="7.92042" x2="68.9536" y2="7.92042" gradientUnits="userSpaceOnUse">
    <stop stop-color="#0063AD"/>
    <stop offset="1" stop-color="#2573BA"/>
    </linearGradient>
    <linearGradient id="paint2_linear" x1="68.7907" y1="26.8911" x2="112.235" y2="26.8911" gradientUnits="userSpaceOnUse">
    <stop stop-color="#7BDAFF"/>
    <stop offset="1" stop-color="#59BDEF"/>
    </linearGradient>
    <linearGradient id="paint3_linear" x1="33.3976" y1="30.1413" x2="-31.4193" y2="50.0309" gradientUnits="userSpaceOnUse">
    <stop stop-color="#2573BA"/>
    <stop offset="0.907" stop-color="#0364AE"/>
    <stop offset="1" stop-color="#0063AD"/>
    </linearGradient>
    <linearGradient id="paint4_linear" x1="27.1612" y1="7.92042" x2="53.571" y2="7.92042" gradientUnits="userSpaceOnUse">
    <stop stop-color="#0063AD"/>
    <stop offset="1" stop-color="#2573BA"/>
    </linearGradient>
    <linearGradient id="paint5_linear" x1="53.7339" y1="26.8911" x2="10.29" y2="26.8911" gradientUnits="userSpaceOnUse">
    <stop stop-color="#7BDAFF"/>
    <stop offset="1" stop-color="#59BDEF"/>
    </linearGradient>
    <linearGradient id="paint6_linear" x1="78.4476" y1="36.9618" x2="97.4835" y2="36.9618" gradientUnits="userSpaceOnUse">
    <stop offset="0.0202" stop-color="#F8D992"/>
    <stop offset="0.2121" stop-color="#FBE19A"/>
    <stop offset="0.3788" stop-color="#FEECA6"/>
    <stop offset="0.601" stop-color="#FFF9D1"/>
    <stop offset="0.6964" stop-color="#FEF1C9"/>
    <stop offset="0.8482" stop-color="#FBDBB2"/>
    <stop offset="1" stop-color="#F8BF94"/>
    </linearGradient>
    <linearGradient id="paint7_linear" x1="85.7804" y1="35.5967" x2="106.559" y2="44.7664" gradientUnits="userSpaceOnUse">
    <stop stop-color="#2573BA"/>
    <stop offset="0.907" stop-color="#0364AE"/>
    <stop offset="1" stop-color="#0063AD"/>
    </linearGradient>
    <linearGradient id="paint8_linear" x1="72.873" y1="43.8102" x2="92.762" y2="43.8102" gradientUnits="userSpaceOnUse">
    <stop stop-color="#FFBB96"/>
    <stop offset="0.2273" stop-color="#FFFBC9"/>
    <stop offset="0.5404" stop-color="#F9B673"/>
    <stop offset="0.6391" stop-color="#F9B876"/>
    <stop offset="0.7249" stop-color="#FABE81"/>
    <stop offset="0.8057" stop-color="#FCC993"/>
    <stop offset="0.8586" stop-color="#FED2A3"/>
    <stop offset="0.9697" stop-color="#FFC28C"/>
    </linearGradient>
    <linearGradient id="paint9_linear" x1="72.7767" y1="41.9161" x2="72.7801" y2="41.9161" gradientUnits="userSpaceOnUse">
    <stop stop-color="#FFBB96"/>
    <stop offset="0.2273" stop-color="#FFFBC9"/>
    <stop offset="0.5404" stop-color="#F9B673"/>
    <stop offset="0.6391" stop-color="#F9B876"/>
    <stop offset="0.7249" stop-color="#FABE81"/>
    <stop offset="0.8057" stop-color="#FCC993"/>
    <stop offset="0.8586" stop-color="#FED2A3"/>
    <stop offset="0.9697" stop-color="#FFC28C"/>
    </linearGradient>
    <linearGradient id="paint10_linear" x1="72.873" y1="44.962" x2="92.762" y2="44.962" gradientUnits="userSpaceOnUse">
    <stop stop-color="#FFBB96"/>
    <stop offset="0.2273" stop-color="#FFFBC9"/>
    <stop offset="0.5404" stop-color="#F9B673"/>
    <stop offset="0.6391" stop-color="#F9B876"/>
    <stop offset="0.7249" stop-color="#FABE81"/>
    <stop offset="0.8057" stop-color="#FCC993"/>
    <stop offset="0.8586" stop-color="#FED2A3"/>
    <stop offset="0.9697" stop-color="#FFC28C"/>
    </linearGradient>
    <linearGradient id="paint11_linear" x1="92.9814" y1="41.9161" x2="92.9856" y2="41.9161" gradientUnits="userSpaceOnUse">
    <stop stop-color="#FFBB96"/>
    <stop offset="0.2273" stop-color="#FFFBC9"/>
    <stop offset="0.5404" stop-color="#F9B673"/>
    <stop offset="0.6391" stop-color="#F9B876"/>
    <stop offset="0.7249" stop-color="#FABE81"/>
    <stop offset="0.8057" stop-color="#FCC993"/>
    <stop offset="0.8586" stop-color="#FED2A3"/>
    <stop offset="0.9697" stop-color="#FFC28C"/>
    </linearGradient>
    <linearGradient id="paint12_linear" x1="101.551" y1="20.6535" x2="81.7865" y2="40.5441" gradientUnits="userSpaceOnUse">
    <stop offset="0.0354" stop-color="#FFBA78"/>
    <stop offset="0.395" stop-color="#FFC987"/>
    <stop offset="1" stop-color="#FEECA8"/>
    </linearGradient>
    <radialGradient id="paint13_radial" cx="0" cy="0" r="1" gradientUnits="userSpaceOnUse" gradientTransform="translate(78.5382 43.7703) scale(12.7004)">
    <stop stop-color="white"/>
    <stop offset="1"/>
    </radialGradient>
    <linearGradient id="paint14_linear" x1="91.0014" y1="31.2707" x2="76.2257" y2="46.1405" gradientUnits="userSpaceOnUse">
    <stop offset="0.0354" stop-color="#FFBA78"/>
    <stop offset="0.395" stop-color="#FFC987"/>
    <stop offset="1" stop-color="#FEECA8"/>
    </linearGradient>
    <radialGradient id="paint15_radial" cx="0" cy="0" r="1" gradientUnits="userSpaceOnUse" gradientTransform="translate(86.4378 34.6234) scale(5.58681)">
    <stop stop-color="white"/>
    <stop offset="1"/>
    </radialGradient>
    <linearGradient id="paint16_linear" x1="93.7205" y1="28.0502" x2="79.7771" y2="42.0824" gradientUnits="userSpaceOnUse">
    <stop stop-color="#FFBB96"/>
    <stop offset="0.2273" stop-color="#FFFBC9"/>
    <stop offset="0.5404" stop-color="#F9B673"/>
    <stop offset="0.6391" stop-color="#F9B876"/>
    <stop offset="0.7249" stop-color="#FABE81"/>
    <stop offset="0.8057" stop-color="#FCC993"/>
    <stop offset="0.8586" stop-color="#FED2A3"/>
    <stop offset="0.9697" stop-color="#FFC28C"/>
    </linearGradient>
    <linearGradient id="paint17_linear" x1="79.1082" y1="39.4993" x2="86.6385" y2="39.4993" gradientUnits="userSpaceOnUse">
    <stop stop-color="#FFBB96"/>
    <stop offset="0.2273" stop-color="#FFFBC9"/>
    <stop offset="0.5404" stop-color="#F9B673"/>
    <stop offset="0.6391" stop-color="#F9B876"/>
    <stop offset="0.7249" stop-color="#FABE81"/>
    <stop offset="0.8057" stop-color="#FCC993"/>
    <stop offset="0.8586" stop-color="#FED2A3"/>
    <stop offset="0.9697" stop-color="#FFC28C"/>
    </linearGradient>
    <linearGradient id="paint18_linear" x1="90.2541" y1="35.1744" x2="83.8328" y2="38.6788" gradientUnits="userSpaceOnUse">
    <stop offset="0.0354" stop-color="#FFBA78"/>
    <stop offset="0.395" stop-color="#FFC987"/>
    <stop offset="1" stop-color="#FEECA8"/>
    </linearGradient>
    <radialGradient id="paint19_radial" cx="0" cy="0" r="1" gradientUnits="userSpaceOnUse" gradientTransform="translate(77.72 39.7414) scale(6.73989)">
    <stop stop-color="#F49587"/>
    <stop offset="0.116" stop-color="#BD7368"/>
    <stop offset="0.2362" stop-color="#8B554D"/>
    <stop offset="0.3594" stop-color="#603B35"/>
    <stop offset="0.4835" stop-color="#3E2622"/>
    <stop offset="0.6085" stop-color="#231513"/>
    <stop offset="0.7352" stop-color="#0F0908"/>
    <stop offset="0.8644" stop-color="#040202"/>
    <stop offset="1"/>
    </radialGradient>
    <linearGradient id="paint20_linear" x1="41.9279" y1="36.9618" x2="22.8913" y2="36.9618" gradientUnits="userSpaceOnUse">
    <stop offset="0.0202" stop-color="#F8D992"/>
    <stop offset="0.2121" stop-color="#FBE19A"/>
    <stop offset="0.3788" stop-color="#FEECA6"/>
    <stop offset="0.601" stop-color="#FFF9D1"/>
    <stop offset="0.6964" stop-color="#FEF1C9"/>
    <stop offset="0.8482" stop-color="#FBDBB2"/>
    <stop offset="1" stop-color="#F8BF94"/>
    </linearGradient>
    <linearGradient id="paint21_linear" x1="30.2311" y1="35.5967" x2="51.0096" y2="44.7664" gradientUnits="userSpaceOnUse">
    <stop stop-color="#2573BA"/>
    <stop offset="0.907" stop-color="#0364AE"/>
    <stop offset="1" stop-color="#0063AD"/>
    </linearGradient>
    <linearGradient id="paint22_linear" x1="48.2151" y1="43.8102" x2="28.3268" y2="43.8102" gradientUnits="userSpaceOnUse">
    <stop stop-color="#FFBB96"/>
    <stop offset="0.2273" stop-color="#FFFBC9"/>
    <stop offset="0.5404" stop-color="#F9B673"/>
    <stop offset="0.6391" stop-color="#F9B876"/>
    <stop offset="0.7249" stop-color="#FABE81"/>
    <stop offset="0.8057" stop-color="#FCC993"/>
    <stop offset="0.8586" stop-color="#FED2A3"/>
    <stop offset="0.9697" stop-color="#FFC28C"/>
    </linearGradient>
    <linearGradient id="paint23_linear" x1="48.3114" y1="41.9161" x2="48.3086" y2="41.9161" gradientUnits="userSpaceOnUse">
    <stop stop-color="#FFBB96"/>
    <stop offset="0.2273" stop-color="#FFFBC9"/>
    <stop offset="0.5404" stop-color="#F9B673"/>
    <stop offset="0.6391" stop-color="#F9B876"/>
    <stop offset="0.7249" stop-color="#FABE81"/>
    <stop offset="0.8057" stop-color="#FCC993"/>
    <stop offset="0.8586" stop-color="#FED2A3"/>
    <stop offset="0.9697" stop-color="#FFC28C"/>
    </linearGradient>
    <linearGradient id="paint24_linear" x1="48.2151" y1="44.962" x2="28.3267" y2="44.962" gradientUnits="userSpaceOnUse">
    <stop stop-color="#FFBB96"/>
    <stop offset="0.2273" stop-color="#FFFBC9"/>
    <stop offset="0.5404" stop-color="#F9B673"/>
    <stop offset="0.6391" stop-color="#F9B876"/>
    <stop offset="0.7249" stop-color="#FABE81"/>
    <stop offset="0.8057" stop-color="#FCC993"/>
    <stop offset="0.8586" stop-color="#FED2A3"/>
    <stop offset="0.9697" stop-color="#FFC28C"/>
    </linearGradient>
    <linearGradient id="paint25_linear" x1="28.1073" y1="41.9161" x2="28.1032" y2="41.9161" gradientUnits="userSpaceOnUse">
    <stop stop-color="#FFBB96"/>
    <stop offset="0.2273" stop-color="#FFFBC9"/>
    <stop offset="0.5404" stop-color="#F9B673"/>
    <stop offset="0.6391" stop-color="#F9B876"/>
    <stop offset="0.7249" stop-color="#FABE81"/>
    <stop offset="0.8057" stop-color="#FCC993"/>
    <stop offset="0.8586" stop-color="#FED2A3"/>
    <stop offset="0.9697" stop-color="#FFC28C"/>
    </linearGradient>
    <linearGradient id="paint26_linear" x1="19.5384" y1="20.6541" x2="39.3026" y2="40.5442" gradientUnits="userSpaceOnUse">
    <stop offset="0.0354" stop-color="#FFBA78"/>
    <stop offset="0.395" stop-color="#FFC987"/>
    <stop offset="1" stop-color="#FEECA8"/>
    </linearGradient>
    <radialGradient id="paint27_radial" cx="0" cy="0" r="1" gradientUnits="userSpaceOnUse" gradientTransform="translate(42.5501 43.7703) rotate(180) scale(12.7)">
    <stop stop-color="white"/>
    <stop offset="1"/>
    </radialGradient>
    <linearGradient id="paint28_linear" x1="30.0867" y1="31.2704" x2="44.863" y2="46.1408" gradientUnits="userSpaceOnUse">
    <stop offset="0.0354" stop-color="#FFBA78"/>
    <stop offset="0.395" stop-color="#FFC987"/>
    <stop offset="1" stop-color="#FEECA8"/>
    </linearGradient>
    <radialGradient id="paint29_radial" cx="0" cy="0" r="1" gradientUnits="userSpaceOnUse" gradientTransform="translate(34.651 34.6234) rotate(180) scale(5.58681)">
    <stop stop-color="white"/>
    <stop offset="1"/>
    </radialGradient>
    <linearGradient id="paint30_linear" x1="27.3677" y1="28.0496" x2="41.3117" y2="42.0824" gradientUnits="userSpaceOnUse">
    <stop stop-color="#FFBB96"/>
    <stop offset="0.2273" stop-color="#FFFBC9"/>
    <stop offset="0.5404" stop-color="#F9B673"/>
    <stop offset="0.6391" stop-color="#F9B876"/>
    <stop offset="0.7249" stop-color="#FABE81"/>
    <stop offset="0.8057" stop-color="#FCC993"/>
    <stop offset="0.8586" stop-color="#FED2A3"/>
    <stop offset="0.9697" stop-color="#FFC28C"/>
    </linearGradient>
    <linearGradient id="paint31_linear" x1="41.9804" y1="39.4993" x2="34.4503" y2="39.4993" gradientUnits="userSpaceOnUse">
    <stop stop-color="#FFBB96"/>
    <stop offset="0.2273" stop-color="#FFFBC9"/>
    <stop offset="0.5404" stop-color="#F9B673"/>
    <stop offset="0.6391" stop-color="#F9B876"/>
    <stop offset="0.7249" stop-color="#FABE81"/>
    <stop offset="0.8057" stop-color="#FCC993"/>
    <stop offset="0.8586" stop-color="#FED2A3"/>
    <stop offset="0.9697" stop-color="#FFC28C"/>
    </linearGradient>
    <linearGradient id="paint32_linear" x1="30.8347" y1="35.1746" x2="37.2556" y2="38.6789" gradientUnits="userSpaceOnUse">
    <stop offset="0.0354" stop-color="#FFBA78"/>
    <stop offset="0.395" stop-color="#FFC987"/>
    <stop offset="1" stop-color="#FEECA8"/>
    </linearGradient>
    <radialGradient id="paint33_radial" cx="0" cy="0" r="1" gradientUnits="userSpaceOnUse" gradientTransform="translate(43.3684 39.7414) rotate(180) scale(6.73967)">
    <stop stop-color="#F49587"/>
    <stop offset="0.116" stop-color="#BD7368"/>
    <stop offset="0.2362" stop-color="#8B554D"/>
    <stop offset="0.3594" stop-color="#603B35"/>
    <stop offset="0.4835" stop-color="#3E2622"/>
    <stop offset="0.6085" stop-color="#231513"/>
    <stop offset="0.7352" stop-color="#0F0908"/>
    <stop offset="0.8644" stop-color="#040202"/>
    <stop offset="1"/>
    </radialGradient>
    <linearGradient id="paint34_linear" x1="51.9479" y1="64.5603" x2="71.8362" y2="64.5603" gradientUnits="userSpaceOnUse">
    <stop stop-color="#FFBB96"/>
    <stop offset="0.2273" stop-color="#FFFBC9"/>
    <stop offset="0.5404" stop-color="#F9B673"/>
    <stop offset="0.6391" stop-color="#F9B876"/>
    <stop offset="0.7249" stop-color="#FABE81"/>
    <stop offset="0.8057" stop-color="#FCC993"/>
    <stop offset="0.8586" stop-color="#FED2A3"/>
    <stop offset="0.9697" stop-color="#FFC28C"/>
    </linearGradient>
    <linearGradient id="paint35_linear" x1="51.9486" y1="65.7122" x2="71.8369" y2="65.7122" gradientUnits="userSpaceOnUse">
    <stop stop-color="#FFBB96"/>
    <stop offset="0.2273" stop-color="#FFFBC9"/>
    <stop offset="0.5404" stop-color="#F9B673"/>
    <stop offset="0.6391" stop-color="#F9B876"/>
    <stop offset="0.7249" stop-color="#FABE81"/>
    <stop offset="0.8057" stop-color="#FCC993"/>
    <stop offset="0.8586" stop-color="#FED2A3"/>
    <stop offset="0.9697" stop-color="#FFC28C"/>
    </linearGradient>
    <linearGradient id="paint36_linear" x1="72.0556" y1="62.6662" x2="72.0598" y2="62.6662" gradientUnits="userSpaceOnUse">
    <stop stop-color="#FFBB96"/>
    <stop offset="0.2273" stop-color="#FFFBC9"/>
    <stop offset="0.5404" stop-color="#F9B673"/>
    <stop offset="0.6391" stop-color="#F9B876"/>
    <stop offset="0.7249" stop-color="#FABE81"/>
    <stop offset="0.8057" stop-color="#FCC993"/>
    <stop offset="0.8586" stop-color="#FED2A3"/>
    <stop offset="0.9697" stop-color="#FFC28C"/>
    </linearGradient>
    <linearGradient id="paint37_linear" x1="80.6253" y1="41.4041" x2="60.8611" y2="61.2943" gradientUnits="userSpaceOnUse">
    <stop offset="0.0354" stop-color="#FFBA78"/>
    <stop offset="0.395" stop-color="#FFC987"/>
    <stop offset="1" stop-color="#FEECA8"/>
    </linearGradient>
    <radialGradient id="paint38_radial" cx="0" cy="0" r="1" gradientUnits="userSpaceOnUse" gradientTransform="translate(57.6129 64.5205) scale(12.7)">
    <stop stop-color="white"/>
    <stop offset="1"/>
    </radialGradient>
    <linearGradient id="paint39_linear" x1="70.0762" y1="52.0205" x2="55.2999" y2="66.8909" gradientUnits="userSpaceOnUse">
    <stop offset="0.0354" stop-color="#FFBA78"/>
    <stop offset="0.395" stop-color="#FFC987"/>
    <stop offset="1" stop-color="#FEECA8"/>
    </linearGradient>
    <radialGradient id="paint40_radial" cx="0" cy="0" r="1" gradientUnits="userSpaceOnUse" gradientTransform="translate(65.5119 55.3735) scale(5.58681)">
    <stop stop-color="white"/>
    <stop offset="1"/>
    </radialGradient>
    <linearGradient id="paint41_linear" x1="72.7952" y1="48.7997" x2="58.8512" y2="62.8326" gradientUnits="userSpaceOnUse">
    <stop stop-color="#FFBB96"/>
    <stop offset="0.2273" stop-color="#FFFBC9"/>
    <stop offset="0.5404" stop-color="#F9B673"/>
    <stop offset="0.6391" stop-color="#F9B876"/>
    <stop offset="0.7249" stop-color="#FABE81"/>
    <stop offset="0.8057" stop-color="#FCC993"/>
    <stop offset="0.8586" stop-color="#FED2A3"/>
    <stop offset="0.9697" stop-color="#FFC28C"/>
    </linearGradient>
    <linearGradient id="paint42_linear" x1="58.1826" y1="60.2495" x2="65.7127" y2="60.2495" gradientUnits="userSpaceOnUse">
    <stop stop-color="#FFBB96"/>
    <stop offset="0.2273" stop-color="#FFFBC9"/>
    <stop offset="0.5404" stop-color="#F9B673"/>
    <stop offset="0.6391" stop-color="#F9B876"/>
    <stop offset="0.7249" stop-color="#FABE81"/>
    <stop offset="0.8057" stop-color="#FCC993"/>
    <stop offset="0.8586" stop-color="#FED2A3"/>
    <stop offset="0.9697" stop-color="#FFC28C"/>
    </linearGradient>
    <linearGradient id="paint43_linear" x1="69.3282" y1="55.9248" x2="62.9073" y2="59.429" gradientUnits="userSpaceOnUse">
    <stop offset="0.0354" stop-color="#FFBA78"/>
    <stop offset="0.395" stop-color="#FFC987"/>
    <stop offset="1" stop-color="#FEECA8"/>
    </linearGradient>
    <radialGradient id="paint44_radial" cx="0" cy="0" r="1" gradientUnits="userSpaceOnUse" gradientTransform="translate(56.7944 60.4916) scale(6.73967)">
    <stop stop-color="#F49587"/>
    <stop offset="0.116" stop-color="#BD7368"/>
    <stop offset="0.2362" stop-color="#8B554D"/>
    <stop offset="0.3594" stop-color="#603B35"/>
    <stop offset="0.4835" stop-color="#3E2622"/>
    <stop offset="0.6085" stop-color="#231513"/>
    <stop offset="0.7352" stop-color="#0F0908"/>
    <stop offset="0.8644" stop-color="#040202"/>
    <stop offset="1"/>
    </radialGradient>
    </defs>
    </svg>
    