<svg width="122" height="136" viewBox="0 0 122 136" fill="none" xmlns="http://www.w3.org/2000/svg">
    <g clip-path="url(#clip0)">
    <path opacity="0.5" d="M120.376 114.6L84.6455 135.239C83.0503 136.162 80.6366 136.261 79.2551 135.463L0.933161 90.2446C-0.448317 89.447 -0.276284 88.0551 1.31893 87.1324L37.0497 66.4936C38.6449 65.5709 41.0586 65.4718 42.4401 66.2694L120.762 111.488C122.149 112.286 121.971 113.683 120.376 114.6Z" fill="#13247A"/>
    <path d="M121.7 99.4246L114.339 98.1422L42.4453 56.6405C41.0638 55.8429 38.6501 55.942 37.0549 56.8647L3.75345 76.1011L0 75.4443V79.2551H0.00521312C0 79.766 0.307574 80.2508 0.933149 80.6157L79.2551 125.834C80.6366 126.632 83.0503 126.533 84.6455 125.61L120.376 104.971C121.262 104.461 121.711 103.804 121.695 103.183V99.4246H121.7Z" fill="url(#paint0_linear)"/>
    <path d="M120.376 101.187L84.6455 121.826C83.0503 122.748 80.6366 122.847 79.2551 122.05L0.933161 76.8312C-0.448317 76.0336 -0.276284 74.6417 1.31893 73.7189L37.0497 53.0802C38.6449 52.1575 41.0586 52.0584 42.4401 52.856L120.762 98.0747C122.149 98.8723 121.971 100.264 120.376 101.187Z" fill="url(#paint1_linear)"/>
    <path d="M120.376 100.702L84.6456 121.341C83.0504 122.264 80.6367 122.363 79.2552 121.565L0.933243 76.3466C0.411931 76.0442 0.109569 75.6584 0.0261593 75.2466C-0.0833164 75.8357 0.208619 76.4195 0.933243 76.8366L79.2552 122.055C80.6367 122.853 83.0504 122.754 84.6456 121.831L120.376 101.192C121.367 100.619 121.81 99.863 121.669 99.18C121.57 99.717 121.137 100.259 120.376 100.702Z" fill="white"/>
    <path d="M120.434 97.8813L78.9215 121.856L1.26678 77.0236L42.7789 53.0484L120.434 97.8813Z" fill="#0F65B2"/>
    <path d="M24.5434 62.433L19.0279 65.6183C18.7881 65.759 18.4284 65.7695 18.2199 65.6496L18.1626 65.6183C17.954 65.4984 17.9801 65.2899 18.2199 65.1491L23.7354 61.9638C23.9752 61.823 24.3349 61.8126 24.5434 61.9325L24.6008 61.9638C24.8093 62.0889 24.7832 62.2974 24.5434 62.433Z" fill="#0063AD"/>
    <path opacity="0.4" d="M116.117 41.3923L59.8936 73.8545C58.7623 74.5061 57.0576 74.5791 56.0776 74.0109L21.6553 54.1384C20.6752 53.5754 20.8004 52.5901 21.9316 51.9385L78.1552 19.4763C79.2864 18.8247 80.9911 18.7517 81.9712 19.3199L116.393 39.1924C117.368 39.7554 117.243 40.7407 116.117 41.3923Z" fill="white"/>
    <path opacity="0.2" d="M110.222 42.0543L61.0359 70.4502C60.0506 71.0184 58.5545 71.081 57.6995 70.5909L27.5833 53.2052C26.7283 52.7099 26.8378 51.8498 27.8231 51.2763L77.0089 22.8804C77.9942 22.3122 79.4904 22.2496 80.3453 22.7397L110.462 40.1254C111.317 40.6207 111.212 41.4808 110.222 42.0543Z" fill="#041860"/>
    <path d="M57.7356 74.5894C57.0787 74.5894 56.4479 74.4591 55.9787 74.1828L21.5565 54.3104C21.0664 54.0289 20.7953 53.6275 20.7953 53.1791C20.7953 52.6578 21.1707 52.1417 21.8275 51.7612L78.0511 19.2991C79.2345 18.6162 81.033 18.5432 82.0652 19.1427L116.487 39.0151C116.977 39.2966 117.249 39.698 117.249 40.1463C117.249 40.6677 116.873 41.1838 116.216 41.5643L59.9928 74.0264C59.3516 74.3965 58.5227 74.5894 57.7356 74.5894ZM80.3084 19.1323C79.5942 19.1323 78.8383 19.3043 78.2492 19.6484L22.0309 52.1052C21.4991 52.4128 21.1968 52.8038 21.1968 53.1791C21.1968 53.4763 21.3949 53.7526 21.7598 53.9663L56.182 73.8387C57.1048 74.3705 58.726 74.2975 59.7999 73.6823L116.023 41.2202C116.555 40.9127 116.858 40.5217 116.858 40.1463C116.858 39.8492 116.66 39.5729 116.295 39.3644L81.8723 19.492C81.4501 19.2522 80.8975 19.1323 80.3084 19.1323Z" fill="white"/>
    <path d="M117.05 31.9092L116.425 32.4044C116.414 32.3992 116.404 32.3888 116.388 32.3836L81.9659 12.5112C80.9858 11.9481 79.2812 12.0159 78.1499 12.6676L21.9316 45.1192C21.8012 45.1974 21.6813 45.2756 21.5771 45.359L20.9984 44.9315V46.3391H21.0036C20.9932 46.704 21.2069 47.0585 21.6605 47.3191L56.0827 67.1915C57.0628 67.7546 58.7675 67.6868 59.8988 67.0352L116.122 34.5731C116.743 34.2186 117.055 33.7598 117.055 33.3271V31.9092H117.05Z" fill="white"/>
    <path d="M116.117 33.1503L59.8936 65.6124C58.7623 66.264 57.0576 66.337 56.0776 65.7688L21.6553 45.8963C20.6752 45.3333 20.8004 44.348 21.9316 43.6964L78.1552 11.2343C79.2864 10.5826 80.9911 10.5096 81.9712 11.0779L116.393 30.9503C117.368 31.5133 117.243 32.4986 116.117 33.1503Z" fill="url(#paint2_linear)"/>
    <path d="M71.7319 26.7639L66.8941 23.9697L68.0775 23.2868C68.3017 23.1564 68.5154 23.0574 68.7239 22.9844C68.9325 22.9114 69.1462 22.8645 69.3651 22.8436C69.5841 22.8228 69.8135 22.8384 70.0429 22.8958C70.2722 22.9531 70.5016 23.047 70.731 23.1825C71.3253 23.5266 71.4243 23.855 71.0177 24.173C71.3566 24.0375 71.6954 23.9905 72.0343 24.0218C72.3679 24.0531 72.7172 24.173 73.0717 24.3711C73.5305 24.637 73.7651 24.9028 73.7755 25.1739C73.7807 25.445 73.5617 25.7057 73.1186 25.9663L71.7319 26.7639ZM69.7509 24.6057L70.0272 24.4493C70.2879 24.2981 70.4078 24.1678 70.3973 24.0427C70.3817 23.9228 70.2462 23.7872 69.9855 23.636C69.85 23.5578 69.7249 23.5005 69.605 23.4744C69.4903 23.4432 69.3704 23.4379 69.2505 23.4588C69.1305 23.4796 69.0211 23.5109 68.9116 23.5578C68.8073 23.6048 68.677 23.6725 68.5206 23.7612L68.4007 23.8289L69.7509 24.6057ZM71.9926 25.8986L72.3158 25.7109C72.5765 25.5597 72.6964 25.4189 72.6755 25.2886C72.6547 25.1583 72.5035 25.0123 72.222 24.8507C71.93 24.6839 71.6642 24.5953 71.4191 24.5848C71.1741 24.5744 70.9187 24.6474 70.6476 24.8038L70.3713 24.9654L71.9926 25.8986Z" fill="white"/>
    <path d="M74.7922 25.0023L70.9397 21.6451L71.8572 21.1133L77.675 23.3341L76.8566 23.8085L75.5377 23.2716L74.6984 23.7564L75.6211 24.5175L74.7922 25.0023ZM74.2187 23.3706L74.8652 22.9953L72.5558 22.0361L74.2187 23.3706Z" fill="white"/>
    <path d="M78.149 23.0627L73.3112 20.2685L73.9159 19.9192L77.8414 20.8159L75.1045 19.2363L75.8344 18.814L80.6721 21.6083L80.0935 21.9419L76.0168 20.9723L78.8945 22.6352L78.149 23.0627Z" fill="white"/>
    <path d="M81.3914 21.1911L76.5536 18.3969L77.4347 17.886L79.5356 19.1006L78.3887 17.3386L79.228 16.8538L80.4687 18.6367L84.1596 19.5907L83.2838 20.0964L80.1768 19.2623L80.3175 19.5438L82.2777 20.675L81.3914 21.1911Z" fill="white"/>
    <path d="M66.4987 53.6848L55.7233 59.9093L54.4774 59.1899L65.2528 52.9654L66.4987 53.6848Z" fill="white"/>
    <path d="M79.7456 46.0366L68.9701 52.261L67.7189 51.5416L78.4997 45.3172L79.7456 46.0366Z" fill="white"/>
    <path d="M92.9912 38.389L82.2157 44.6135L80.9645 43.8941L91.7401 37.6696L92.9912 38.389Z" fill="white"/>
    <path d="M106.239 30.7414L95.4585 36.9659L94.2125 36.2465L104.988 30.022L106.239 30.7414Z" fill="white"/>
    <path d="M114.928 73.881L97.6364 63.8092C94.2114 61.8334 90.9792 61.5206 88.5395 62.9281C86.0997 64.3357 84.7548 67.2916 84.7548 71.2483V72.5151C84.8747 72.5985 85.005 72.6767 85.1353 72.7602V71.2483C85.1353 67.4323 86.4125 64.5964 88.7272 63.2566C91.047 61.9168 94.1384 62.2296 97.4435 64.1376L114.736 74.2094C114.824 74.2615 114.944 74.2303 114.996 74.1416C115.054 74.053 115.022 73.9331 114.928 73.881Z" fill="white"/>
    <path d="M60.9984 61.8852V22.9119C60.9984 15.1131 55.5038 5.58867 48.7476 1.68925C45.4372 -0.218749 42.3146 -0.52111 39.9582 0.839516C37.6019 2.20014 36.3038 5.05693 36.3038 8.87294V11.589C36.4289 11.7141 36.5593 11.8444 36.6844 11.9695V8.87294C36.6844 5.19248 37.9147 2.45558 40.1511 1.16794C42.3875 -0.1197 45.3695 0.182662 48.5599 2.01768C55.2118 5.85976 60.6231 15.2277 60.6231 22.9119V61.8852C60.6231 68.3495 64.4286 76.0024 69.5896 80.6108C69.5896 80.4387 69.5896 80.2719 69.5896 80.0999C64.6215 75.5436 60.9984 68.1514 60.9984 61.8852Z" fill="white"/>
    <path d="M69.6172 80.4491C69.6172 80.4491 65.2121 75.9658 63.5022 72.2697C61.787 68.5736 60.9008 65.1486 60.8695 62.0989C60.8383 59.0492 60.8122 32.8168 60.8122 32.8168C60.8122 32.8168 60.9999 21.9422 60.5411 20.2219C60.0824 18.5068 59.0032 9.34209 50.0314 2.76313C41.0597 -3.81584 36.5764 3.27922 36.6285 6.99097C36.6806 10.6975 36.6285 13.0747 36.6285 13.0747C36.6285 13.0747 41.5445 17.0523 43.4004 22.7346C45.2562 28.4169 45.4335 27.4316 45.4647 33.0827C45.496 38.7337 45.5221 67.4111 45.5221 67.4111C45.5221 67.4111 45.105 72.447 46.3614 76.3464C47.6126 80.2458 49.8698 84.5623 52.5442 87.393C55.2185 90.2237 59.1648 93.5653 62.814 93.2369C66.4632 92.9085 68.9186 91.5635 69.6172 85.7874V80.4491Z" fill="white"/>
    <path d="M39.9592 0.839638L24.8359 9.55598L36.628 13.0696L39.9592 0.839638Z" fill="white"/>
    <path d="M84.7554 72.5151V74.2667C83.9161 73.6568 79.9593 70.9564 76.2006 71.0867C71.9676 71.2379 70.5496 75.1112 70.5496 75.1112C70.5496 75.1112 69.5487 78.0045 69.6217 79.3599C69.6321 79.5945 69.6477 79.8708 69.6581 80.1628C69.6321 80.1419 69.6112 80.1211 69.5852 80.1002C69.5852 80.2722 69.5852 80.4391 69.5852 80.6111C69.6112 80.6372 69.6425 80.658 69.6738 80.6841C69.7103 81.9874 69.7207 83.4262 69.7207 83.4262C69.7207 83.4262 69.7572 86.0067 69.3923 87.7062C68.7354 90.7559 66.1497 92.4919 65.9516 92.7577L81.4711 83.8224C81.4868 83.8172 81.4972 83.812 81.5128 83.8015C81.5337 83.7911 81.5545 83.7755 81.5754 83.7598L81.6536 83.7129L81.664 83.7025C83.9109 82.3158 85.1464 79.5268 85.1464 75.8202V72.7601C85.0057 72.6819 84.8753 72.5985 84.7554 72.5151Z" fill="url(#paint3_linear)"/>
    <path d="M72.6611 72.1192L88.5403 62.9285C88.5403 62.9285 91.2459 61.5053 94.5198 62.7043C97.7936 63.9033 114.95 74.194 114.95 74.194L99.6234 83.025C99.6234 83.025 81.8154 71.9888 79.7249 71.4363C75.4345 70.305 72.6611 72.1192 72.6611 72.1192Z" fill="white"/>
    <path d="M36.2992 12.7827C35.6737 12.1884 32.7543 9.61314 28.49 8.9615C23.6627 8.22124 21.6712 13.867 21.6712 13.867C21.6712 13.867 21.1134 16.7968 21.1343 18.5328C21.1552 20.2688 21.2803 26.5662 21.2803 26.5662L36.5755 17.756C36.6381 17.7248 36.6798 17.6622 36.6798 17.5892V13.1164C36.5547 12.986 36.4296 12.913 36.2992 12.7827Z" fill="url(#paint4_linear)"/>
    <path d="M62.9641 93.4507C61.275 93.4507 59.4087 92.8877 57.4799 91.7721C50.7706 87.8988 45.3176 78.4474 45.3176 70.7059V31.7273C45.3176 24.0484 39.9064 14.6752 33.2545 10.8331C30.0693 8.9929 27.0821 8.69054 24.8509 9.98339C22.6145 11.2762 21.3842 14.0079 21.3842 17.6884V26.3995C21.3842 26.5038 21.3008 26.5924 21.1913 26.5924C21.087 26.5924 20.9984 26.509 20.9984 26.3995V17.6884C20.9984 13.8672 22.2965 11.0156 24.6528 9.65497C27.0091 8.29434 30.1318 8.5967 33.4421 10.5047C40.1984 14.4041 45.693 23.9285 45.693 31.7273V70.7007C45.693 78.3222 51.0625 87.6277 57.6675 91.4385C60.8319 93.2631 63.793 93.5654 66.0085 92.283C68.2241 91.0006 69.4492 88.2845 69.4492 84.6353V80.0634C69.4492 76.1067 70.7942 73.1508 73.2339 71.7433C75.6737 70.3357 78.9058 70.6485 82.3308 72.6243L99.6228 82.6961C99.7114 82.7482 99.7427 82.8629 99.6905 82.9567C99.6384 83.0506 99.5185 83.0766 99.4299 83.0245L82.1379 72.9527C78.8328 71.0447 75.7414 70.7319 73.4216 72.0717C71.1018 73.4115 69.8298 76.2474 69.8298 80.0634V84.6353C69.8298 88.4305 68.5421 91.2612 66.2014 92.6114C65.237 93.1744 64.1422 93.4507 62.9641 93.4507Z" fill="url(#paint5_linear)"/>
    <path d="M49.4254 40.2872V38.9109L51.0311 37.9882V39.3592L49.4254 40.2872Z" fill="#DDE1ED"/>
    <path d="M53.9564 35.1002V33.7239L57.0113 31.9618V33.3381L53.9564 35.1002Z" fill="#DDE1ED"/>
    <path d="M49.5812 34.8138V33.4376L57.0099 29.1472V30.5234L49.5812 34.8138Z" fill="#DDE1ED"/>
    <path d="M52.1621 38.708V37.3317L58.3657 33.7503V35.1266L52.1621 38.708Z" fill="#DDE1ED"/>
    <path d="M49.5812 37.6288V36.2525L52.6361 34.4853V35.8615L49.5812 37.6288Z" fill="#DDE1ED"/>
    <path d="M51.3802 53.6748V55.051L49.4982 56.1354V54.7591L51.3802 53.6748Z" fill="#DDE1ED"/>
    <path d="M54.8053 51.6998V53.076L52.9233 54.1604V52.7841L54.8053 51.6998Z" fill="#DDE1ED"/>
    <path d="M56.8587 47.9408V49.317L49.5864 53.5136V52.1373L56.8587 47.9408Z" fill="#DDE1ED"/>
    <path d="M53.231 43.5877V42.2114L56.8593 40.1157V41.492L53.231 43.5877Z" fill="#DDE1ED"/>
    <path d="M49.4982 45.7408V44.3646L51.3802 43.2802V44.6565L49.4982 45.7408Z" fill="#DDE1ED"/>
    <path d="M49.4982 48.316V46.9398L53.0796 44.8702V46.2464L49.4982 48.316Z" fill="#DDE1ED"/>
    <path d="M54.5285 45.4121V44.0359L56.8588 42.6909V44.0619L54.5285 45.4121Z" fill="#DDE1ED"/>
    <path d="M53.231 59.6076V58.2313L56.8593 56.1356V57.5119L53.231 59.6076Z" fill="#DDE1ED"/>
    <path d="M49.4982 61.7601V60.3838L51.3802 59.2995V60.6757L49.4982 61.7601Z" fill="#DDE1ED"/>
    <path d="M49.4982 64.3359V62.9597L53.0796 60.8901V62.2663L49.4982 64.3359Z" fill="#DDE1ED"/>
    <path d="M54.5285 61.432V60.0557L56.8588 58.7107V60.087L54.5285 61.432Z" fill="#DDE1ED"/>
    <path d="M92.6325 74.2868L91.4439 73.5987L93.0496 72.6708L94.2382 73.3589L92.6325 74.2868Z" fill="#DDE1ED"/>
    <path d="M94.9364 70.3831L93.7426 69.7002L96.8027 67.9329L97.9913 68.6211L94.9364 70.3831Z" fill="#DDE1ED"/>
    <path d="M88.1285 71.5035L86.9347 70.8154L94.3686 66.525L95.5572 67.2131L88.1285 71.5035Z" fill="#DDE1ED"/>
    <path d="M95.3745 72.7075L94.1807 72.0194L100.384 68.438L101.573 69.1261L95.3745 72.7075Z" fill="#DDE1ED"/>
    <path d="M90.5625 72.9105L89.3687 72.2224L92.4288 70.4551L93.6174 71.1432L90.5625 72.9105Z" fill="#DDE1ED"/>
    <path d="M11.3809 77.4144L10.6824 77.8158L9.03503 76.8618L9.72838 76.4604L11.3809 77.4144Z" fill="white"/>
    <path d="M12.6643 76.6744L11.9658 77.0758L10.3184 76.1218L11.0118 75.7204L12.6643 76.6744Z" fill="white"/>
    <path d="M13.9453 75.9337L13.2467 76.3351L11.5994 75.3811L12.2927 74.9797L13.9453 75.9337Z" fill="white"/>
    <path d="M15.2286 75.1937L14.53 75.5951L12.8827 74.6411L13.576 74.2397L15.2286 75.1937Z" fill="white"/>
    <path d="M105.743 98.9759L93.4708 91.9017C93.1737 91.7297 92.7983 91.6358 92.423 91.615V91.6098C92.4125 91.6098 92.4021 91.6098 92.3865 91.6098C92.3135 91.6045 92.2353 91.6098 92.1623 91.6098C92.131 91.6098 92.0945 91.6098 92.0633 91.615C91.9903 91.6202 91.9173 91.6306 91.8443 91.641C91.813 91.6462 91.7817 91.6515 91.7505 91.6567C91.6775 91.6723 91.6097 91.6932 91.5419 91.714C91.5159 91.7244 91.4846 91.7297 91.4585 91.7349C91.3699 91.7662 91.2813 91.8079 91.2031 91.8496L82.0488 97.1513L73.322 102.208L72.4723 102.291L72.4775 103.058L72.4879 103.157C72.5244 103.376 72.686 103.59 72.9884 103.762L85.2653 110.841C85.5625 111.013 85.9378 111.107 86.3132 111.128V111.133C86.3236 111.133 86.334 111.133 86.3497 111.133C86.4226 111.138 86.4956 111.133 86.5738 111.133C86.6051 111.133 86.6416 111.133 86.6729 111.128C86.7458 111.123 86.8188 111.112 86.8866 111.102C86.9179 111.096 86.9492 111.091 86.9804 111.086C87.0534 111.07 87.1212 111.05 87.189 111.029C87.215 111.018 87.2463 111.013 87.2724 111.003C87.361 110.971 87.4496 110.93 87.5278 110.888L105.836 100.284C106.123 100.118 106.264 99.8934 106.259 99.6693V99.6484V99.6432V98.9238L105.743 98.9759Z" fill="white"/>
    <path d="M72.9054 101.698L82.0597 96.3964L96.2863 104.602L87.5335 110.133C86.934 110.482 85.9226 110.461 85.2762 110.086L72.9992 103.007C72.3424 102.631 72.3059 102.047 72.9054 101.698Z" fill="url(#paint6_linear)"/>
    <path d="M91.2094 91.0946L82.0552 96.3964L96.1932 104.55L105.832 99.5294C106.432 99.1802 106.395 98.5963 105.744 98.2209L93.4667 91.1415C92.8255 90.7714 91.809 90.7453 91.2094 91.0946Z" fill="url(#paint7_linear)"/>
    <path d="M106.254 98.831C106.301 99.0864 106.16 99.3419 105.837 99.5295L87.5286 110.133C87.2054 110.321 86.7623 110.399 86.3192 110.373L87.5339 99.5504L106.254 98.831Z" fill="url(#paint8_linear)"/>
    <path d="M72.4887 102.403C72.4418 102.147 72.5826 101.892 72.9058 101.704L91.2142 91.1006C91.5374 90.9129 91.9805 90.8347 92.4236 90.8608L91.2089 101.683L72.4887 102.403Z" fill="url(#paint9_linear)"/>
    <path d="M86.4494 105.754C86.4129 105.754 86.3764 105.754 86.3451 105.754L86.121 105.733C85.7613 105.691 85.438 105.592 85.1722 105.436L72.8952 98.3564C72.6346 98.2052 72.4469 98.0123 72.3531 97.7934L72.327 97.7986L72.2905 97.5848V97.5536C72.2801 97.5171 72.2853 97.4545 72.2905 97.4076C72.2905 97.3763 72.2957 97.3555 72.3009 97.3294C72.3166 97.2668 72.3374 97.2147 72.3635 97.1626C72.3791 97.1313 72.3843 97.1105 72.4 97.0896C72.4365 97.0323 72.4782 96.9801 72.5199 96.9384C72.5407 96.9124 72.5564 96.8967 72.572 96.8811C72.645 96.8133 72.7232 96.756 72.8118 96.709L91.1204 86.1056C91.209 86.0535 91.3028 86.0118 91.4071 85.9753L91.4696 85.9544C91.5687 85.9231 91.6417 85.9023 91.7199 85.8866L91.7929 85.8762C91.9023 85.8606 91.9805 85.8502 92.0587 85.8397H92.1369C92.2464 85.8345 92.3246 85.8345 92.4028 85.8397L92.627 85.8606C92.9867 85.9023 93.3099 86.0013 93.5757 86.1577L105.853 93.2371C106.113 93.3883 106.301 93.5812 106.395 93.8001L106.421 93.7949L106.457 94.0087V94.0399C106.468 94.0764 106.463 94.139 106.457 94.1859C106.457 94.2172 106.452 94.2432 106.447 94.2641C106.431 94.3267 106.405 94.384 106.384 94.4361C106.374 94.4674 106.364 94.4883 106.353 94.5091C106.317 94.5665 106.275 94.6186 106.233 94.6603L106.181 94.7176C106.108 94.7854 106.03 94.8428 105.941 94.8897L87.6328 105.493C87.5442 105.545 87.4451 105.587 87.3461 105.623L87.2835 105.644C87.1844 105.676 87.1115 105.696 87.0333 105.712L86.9603 105.723C86.8508 105.738 86.7726 105.749 86.6944 105.759H86.6162C86.5536 105.754 86.5015 105.754 86.4494 105.754ZM86.856 105.326L86.9863 105.509L86.9446 105.316C87.0124 105.3 87.0698 105.285 87.1323 105.264L87.2731 105.431L87.2053 105.243C87.2835 105.217 87.3565 105.18 87.4295 105.144L105.738 94.5352C105.801 94.4987 105.853 94.457 105.905 94.4153L106.082 94.5143L105.936 94.3788C105.967 94.3475 105.993 94.3162 106.009 94.2902C106.035 94.2224 106.051 94.1963 106.056 94.1703C106.061 94.1077 106.061 94.0816 106.061 94.066L106.056 94.0451C106.025 93.8783 105.884 93.7115 105.655 93.576L93.3776 86.4966C93.1222 86.3506 92.7781 86.2568 92.4184 86.2359L92.3402 86.2307C92.2777 86.2307 92.2308 86.2307 92.1838 86.2307L92.09 86.2359C92.0274 86.2411 91.9597 86.2516 91.8971 86.262L91.7668 86.0795L91.8085 86.2724C91.7407 86.2881 91.6834 86.3037 91.6208 86.3245L91.4801 86.1577L91.5478 86.3454C91.4696 86.3767 91.3914 86.408 91.3237 86.4497L73.0151 97.0531C72.9526 97.0896 72.9004 97.1313 72.8483 97.173C72.791 97.2408 72.7597 97.2721 72.744 97.2981C72.7128 97.3659 72.7023 97.3972 72.6971 97.418C72.6919 97.4806 72.6919 97.5067 72.6919 97.5223L72.6971 97.5431C72.7284 97.71 72.8692 97.8768 73.0985 98.0123L85.3755 105.092C85.6309 105.238 85.975 105.332 86.3347 105.352L86.4129 105.358C86.4755 105.358 86.5224 105.358 86.5745 105.358L86.6683 105.352C86.7257 105.347 86.7935 105.337 86.856 105.326Z" fill="white"/>
    <path opacity="0.4" d="M106.077 94.5148C106.114 94.4731 106.15 94.4366 106.176 94.3949C106.187 94.3792 106.192 94.3584 106.202 94.3375C106.223 94.2958 106.239 94.2541 106.249 94.2124C106.254 94.1916 106.254 94.1759 106.254 94.1551C106.26 94.1134 106.26 94.0717 106.254 94.0247C106.254 94.0195 106.254 94.0091 106.254 94.0039H106.249C106.213 93.7849 106.051 93.5712 105.749 93.3992L93.4718 86.3197C93.1747 86.1477 92.7993 86.0538 92.424 86.033V86.0278C92.4135 86.0278 92.4031 86.0278 92.3875 86.0278C92.3145 86.0226 92.2415 86.0278 92.1633 86.0278C92.132 86.0278 92.0956 86.0278 92.0643 86.033C91.9913 86.0382 91.9183 86.0486 91.8505 86.059C91.8193 86.0643 91.788 86.0695 91.7567 86.0747C91.6837 86.0903 91.6159 86.1112 91.5482 86.132C91.5221 86.1425 91.4908 86.1477 91.4648 86.1581C91.3761 86.1894 91.2875 86.2311 91.2093 86.2728L85.1047 89.8073L82.0551 91.5746L72.9008 96.8763C72.8226 96.9232 72.7549 96.9702 72.6975 97.0223C72.6819 97.0379 72.6714 97.0536 72.6558 97.0692C72.6193 97.1109 72.5828 97.1474 72.562 97.1891C72.5515 97.2048 72.5463 97.2256 72.5359 97.2465C72.5151 97.2882 72.4994 97.3299 72.489 97.3716C72.4838 97.3924 72.4838 97.4081 72.4838 97.4289C72.4786 97.4706 72.4786 97.5123 72.4838 97.5592C72.4838 97.5645 72.4838 97.5749 72.4838 97.5801H72.489C72.5255 97.7991 72.6871 98.0128 72.9894 98.1848L85.2664 105.264C85.5635 105.436 85.9389 105.53 86.3142 105.551V105.556C86.3246 105.556 86.335 105.556 86.3507 105.556C86.4237 105.561 86.4967 105.556 86.5749 105.556C86.6061 105.556 86.6426 105.556 86.6739 105.551C86.7469 105.546 86.8199 105.535 86.8876 105.525C86.9189 105.52 86.9502 105.515 86.9815 105.509C87.0545 105.494 87.1222 105.473 87.19 105.452C87.2161 105.442 87.2473 105.436 87.2734 105.426C87.362 105.395 87.4506 105.353 87.5288 105.311L105.837 94.7077C105.916 94.6607 105.983 94.6138 106.041 94.5617C106.056 94.546 106.062 94.5304 106.077 94.5148Z" fill="white"/>
    </g>
    <defs>
    <linearGradient id="paint0_linear" x1="8.26254" y1="63.5275" x2="111.503" y2="117.925" gradientUnits="userSpaceOnUse">
    <stop stop-color="#3A9BD5"/>
    <stop offset="0.3053" stop-color="#3A9BD5"/>
    <stop offset="0.3555" stop-color="#3A9BD5"/>
    <stop offset="0.5988" stop-color="#3999D4"/>
    <stop offset="0.6883" stop-color="#3592CF"/>
    <stop offset="0.7522" stop-color="#2F86C7"/>
    <stop offset="0.8039" stop-color="#2676BC"/>
    <stop offset="0.8102" stop-color="#2573BA"/>
    </linearGradient>
    <linearGradient id="paint1_linear" x1="11.0895" y1="98.1796" x2="102.826" y2="59.4999" gradientUnits="userSpaceOnUse">
    <stop stop-color="#59BDEF"/>
    <stop offset="1" stop-color="#7BDAFF"/>
    </linearGradient>
    <linearGradient id="paint2_linear" x1="126.572" y1="11.7957" x2="60.2958" y2="97.1507" gradientUnits="userSpaceOnUse">
    <stop stop-color="#59BDEF"/>
    <stop offset="1" stop-color="#7BDAFF"/>
    </linearGradient>
    <linearGradient id="paint3_linear" x1="82.6223" y1="75.3326" x2="65.2773" y2="84.6664" gradientUnits="userSpaceOnUse">
    <stop stop-color="#59BDEF"/>
    <stop offset="1" stop-color="#7BDAFF"/>
    </linearGradient>
    <linearGradient id="paint4_linear" x1="29.2241" y1="15.9912" x2="9.29599" y2="22.6881" gradientUnits="userSpaceOnUse">
    <stop stop-color="#59BDEF"/>
    <stop offset="1" stop-color="#7BDAFF"/>
    </linearGradient>
    <linearGradient id="paint5_linear" x1="20.9967" y1="51.1324" x2="99.7208" y2="51.1324" gradientUnits="userSpaceOnUse">
    <stop stop-color="#59BDEF"/>
    <stop offset="1" stop-color="#7BDAFF"/>
    </linearGradient>
    <linearGradient id="paint6_linear" x1="86.2574" y1="117.171" x2="86.2231" y2="101.969" gradientUnits="userSpaceOnUse">
    <stop offset="0.7677" stop-color="#59BDEF"/>
    <stop offset="0.8452" stop-color="#55B8EB"/>
    <stop offset="0.9318" stop-color="#49ABE1"/>
    <stop offset="1" stop-color="#3A9BD5"/>
    </linearGradient>
    <linearGradient id="paint7_linear" x1="118.006" y1="98.7557" x2="91.7062" y2="98.6755" gradientUnits="userSpaceOnUse">
    <stop offset="0.7677" stop-color="#59BDEF"/>
    <stop offset="0.8452" stop-color="#55B8EB"/>
    <stop offset="0.9318" stop-color="#49ABE1"/>
    <stop offset="1" stop-color="#3A9BD5"/>
    </linearGradient>
    <linearGradient id="paint8_linear" x1="111.208" y1="113.208" x2="100.408" y2="94.559" gradientUnits="userSpaceOnUse">
    <stop offset="0.7677" stop-color="#3A9BD5"/>
    <stop offset="0.8386" stop-color="#3896D2"/>
    <stop offset="0.9179" stop-color="#3189C9"/>
    <stop offset="1" stop-color="#2573BA"/>
    </linearGradient>
    <linearGradient id="paint9_linear" x1="86.952" y1="91.0599" x2="83.6444" y2="107.909" gradientUnits="userSpaceOnUse">
    <stop stop-color="#7BDAFF"/>
    <stop offset="1" stop-color="#59BDEF"/>
    </linearGradient>
    <clipPath id="clip0">
    <rect width="121.7" height="136" fill="white"/>
    </clipPath>
    </defs>
    </svg>
    