<svg width="136" height="122" viewBox="0 0 136 122" fill="none" xmlns="http://www.w3.org/2000/svg">
    <g clip-path="url(#clip0)">
    <path opacity="0.8" d="M109.884 46.8547L21.2542 102.215L47.3704 118.49L136 63.1584L109.884 46.8547Z" fill="#BECDDB"/>
    <path d="M9.85876 64.7005L5.26641 61.8393C4.66428 61.4611 4.16101 60.4427 4.16101 59.5698V57.116C4.16101 56.2431 4.65529 55.8358 5.26641 56.2141L9.85876 59.0752C10.4609 59.4534 10.9642 60.4718 10.9642 61.3447V63.7985C10.9642 64.6714 10.4699 65.0787 9.85876 64.7005Z" fill="#969696"/>
    <path d="M3.78357 56.602C3.78357 56.602 4.41266 56.0395 4.71822 56.0783C5.02377 56.1074 4.34076 57.1354 4.34076 57.1354L3.78357 56.602Z" fill="#969696"/>
    <path d="M9.661 65.2145C9.661 65.2145 10.4788 65.0787 10.6945 64.6617C10.9102 64.2446 10.7574 63.7791 10.7574 63.7791C10.7574 63.7791 9.63404 64.3416 9.661 65.2145Z" fill="#969696"/>
    <path d="M9.16674 65.0793L4.57439 62.2182C3.97227 61.8399 3.46899 60.8216 3.46899 59.9487V57.4949C3.46899 56.622 3.96328 56.2146 4.57439 56.5929L9.16674 59.454C9.76887 59.8323 10.2721 60.8507 10.2721 61.7235V64.1773C10.2721 65.0599 9.77786 65.4576 9.16674 65.0793Z" fill="#C4C4C4"/>
    <path d="M15.2599 73.8076C15.215 73.8076 15.161 73.7979 15.1161 73.7688C14.9274 73.6621 10.4519 71.2374 8.5646 69.7341C7.09972 68.5606 7.14466 66.6305 7.19858 64.5938C7.20757 64.2058 7.21655 63.8082 7.21655 63.4105C7.21655 63.2263 7.36035 63.0711 7.5311 63.0711C7.70185 63.0711 7.84564 63.2263 7.84564 63.4105C7.84564 63.8179 7.83666 64.2252 7.82767 64.6132C7.78273 66.6402 7.74679 68.2405 8.94205 69.2007C10.7844 70.6749 15.3498 73.1481 15.4037 73.1772C15.5565 73.2645 15.6194 73.4682 15.5385 73.633C15.4846 73.7397 15.3677 73.8076 15.2599 73.8076Z" fill="#C4C4C4"/>
    <path d="M114.899 20.2607C114.899 20.2607 91.119 5.17913 83.0307 0.24246C81.9343 -0.426755 80.5054 0.484929 80.5054 0.484929L112.643 20.4838L114.899 20.2607Z" fill="#EAEAEA"/>
    <path d="M47.5411 60.9956L17.7942 39.5128L80.5054 0.484955L112.643 20.4838L47.5411 60.9956Z" fill="#D1D1D1"/>
    <path d="M14.8195 43.4408L46.9929 63.4009L50.0575 59.4341L18.0369 39.3576L17.4437 39.7262C16.1406 40.5409 15.197 41.8793 14.8195 43.4408Z" fill="#EAEAEA"/>
    <path d="M46.8132 64.0216L40.6571 89.4809L34.0966 102.535V116.841L116.723 65.2921V23.0346C116.723 20.7748 114.458 19.3587 112.643 20.4935L50.0485 59.4341C48.4488 60.433 47.2805 62.0818 46.8132 64.0216Z" fill="#A8A8A8"/>
    <path d="M42.077 32.2969L61.5428 44.2652L90.3281 26.7104L70.8623 14.7421L42.077 32.2969Z" fill="#F2C381"/>
    <path d="M14.8195 43.4408L8.52863 69.482L40.6571 89.4808L46.9929 63.4009L14.8195 43.4408Z" fill="#A8A8A8"/>
    <path d="M1.96814 82.4977V98.3164L34.0966 118.364V102.535L1.96814 82.4977Z" fill="#389EC6"/>
    <path d="M48.7813 63.9731C48.3949 64.1671 47.8287 64.4095 47.4243 65.9225C46.5166 69.288 45.6269 72.6147 44.7192 76.4263C43.1914 82.8178 42.1489 87.8708 42.1489 87.8708L48.7813 83.7392V63.9731Z" fill="#2A78B7"/>
    <path d="M50.9651 68.5897V106.318L67.0249 96.2991V57.0966C67.0249 55.1278 65.0478 53.9057 63.475 54.895L55.6384 59.822C52.7446 61.6357 50.9651 64.972 50.9651 68.5897Z" fill="#969696"/>
    <path d="M116.723 65.3018L34.1415 116.783V114.203L116.723 62.7122V65.3018Z" fill="#2A78B7"/>
    <path d="M8.52864 69.482L1.96814 82.4977L34.0966 102.535L40.6571 89.4808L8.52864 69.482Z" fill="#D1D1D1"/>
    <path d="M45.546 65.1272L45.7797 64.1671C45.8785 63.75 45.7078 63.3233 45.3663 63.1099L16.3922 45.0314C15.889 44.721 15.2509 45.0023 15.0981 45.6133L10.6046 64.2543C22.09 62.3534 34.0696 62.9062 45.546 65.1272Z" fill="#389EC6"/>
    <path d="M10.2002 69.6663L38.5991 87.3956C39.2821 87.8224 40.1538 87.4247 40.3515 86.6003L45.537 65.1272C34.0606 62.9062 22.081 62.3437 10.5956 64.2543L9.63401 68.2308C9.50819 68.7934 9.73287 69.3753 10.2002 69.6663Z" fill="#2A78B7"/>
    <path d="M107.367 78.0848C107.979 76.5718 108.356 74.9133 108.401 73.2936C108.509 68.9 106.1 66.4269 103.027 67.7556C99.9622 69.0843 97.4009 73.7009 97.2751 78.0848H107.367Z" fill="#33211F"/>
    <path d="M105.345 71.6157C105.417 68.5994 103.395 73.7688 99.405 76.0383C97.6795 77.0179 95.936 78.2884 94.5341 79.1419C94.9205 80.6743 95.6754 81.586 96.7269 82.0612C96.8886 82.1291 100.232 83.7197 100.232 83.7197L102.128 82.3425L100.052 81.7509C102.919 80.1894 105.247 75.7958 105.345 71.6157Z" fill="#33211F"/>
    <path d="M108.913 73.2936C108.805 77.6871 106.235 82.3231 103.162 83.6616C100.088 84.9903 97.6885 82.5171 97.7873 78.1236C97.8952 73.73 100.465 69.094 103.539 67.7556C106.613 66.4269 109.012 68.9 108.913 73.2936Z" fill="#46373B"/>
    <path d="M106.909 74.1568C106.846 76.9694 105.193 79.9372 103.224 80.7907C101.256 81.6442 99.7195 80.0536 99.7824 77.241C99.8454 74.4283 101.499 71.4605 103.467 70.607C105.435 69.7632 106.981 71.3538 106.909 74.1568Z" fill="#969696"/>
    <path d="M105.992 74.5544C105.939 76.6397 104.716 78.851 103.251 79.4911C101.787 80.1215 100.645 78.948 100.699 76.853C100.753 74.7678 101.975 72.5565 103.44 71.9164C104.905 71.2859 106.046 72.4692 105.992 74.5544Z" fill="white"/>
    <path d="M51.4505 112.894C52.0616 111.381 52.439 109.722 52.484 108.102C52.5918 103.709 50.1833 101.236 47.1098 102.564C44.0452 103.893 41.4839 108.51 41.3581 112.894H51.4505Z" fill="#33211F"/>
    <path d="M49.4284 106.425C49.5003 103.408 47.4782 108.578 43.488 110.847C41.7625 111.827 40.019 113.097 38.6171 113.951C39.0035 115.483 39.7584 116.395 40.8099 116.87C40.9717 116.938 44.3148 118.529 44.3148 118.529L46.2111 117.151L44.1351 116.56C46.9929 114.989 49.3295 110.595 49.4284 106.425Z" fill="#33211F"/>
    <path d="M52.9872 108.102C52.8794 112.496 50.3091 117.132 47.2356 118.47C44.162 119.799 41.7625 117.326 41.8613 112.932C41.9692 108.539 44.5395 103.903 47.613 102.564C50.6955 101.226 53.0951 103.709 52.9872 108.102Z" fill="#46373B"/>
    <path d="M50.9921 108.966C50.9292 111.778 49.2756 114.746 47.3075 115.6C45.3393 116.453 43.8025 114.863 43.8655 112.05C43.9284 109.237 45.582 106.269 47.5501 105.416C49.5183 104.572 51.055 106.153 50.9921 108.966Z" fill="#969696"/>
    <path d="M50.0755 109.363C50.0216 111.449 48.7993 113.66 47.3345 114.3C45.8696 114.93 44.7282 113.757 44.7822 111.662C44.8361 109.577 46.0583 107.365 47.5232 106.725C48.9791 106.095 50.1294 107.278 50.0755 109.363Z" fill="white"/>
    <path d="M0 96.7258L34.2224 118.005L34.1505 121.429L0 100.101V96.7258Z" fill="#969696"/>
    <path d="M34.1505 118.053V121.419L38.0598 118.984C38.5272 118.694 39.1113 117.966 39.1113 117.384V114.96L34.1505 118.053Z" fill="#8D8D8D"/>
    <path d="M39.9831 112.894L34.1505 116.531L1.96815 96.4349V95.5135L0 96.7258L34.1505 118.053L38.1767 115.541C38.7788 115.163 39.4618 114.688 39.7494 113.999L39.9831 112.894Z" fill="#E2E2E2"/>
    <path d="M39.9831 112.894C39.9831 112.894 40.1718 115.842 39.3719 117.685C39.0754 118.383 37.8531 119.12 37.8531 119.12L37.7094 115.842C37.7094 115.842 38.7608 115.134 39.2551 114.475C39.7494 113.805 39.9831 112.894 39.9831 112.894Z" fill="#8D8D8D"/>
    <path d="M9.14874 89.5099V99.1699L25.6668 109.674V99.9846L9.14874 89.5099Z" fill="white"/>
    <path d="M80.7929 76.7076L69.1818 83.9622V90.4022L80.7929 83.1378V76.7076Z" fill="#33211F"/>
    <path d="M80.3885 77.3477V82.8566L69.5143 89.7718V84.2435L80.3885 77.3477Z" fill="white"/>
    <path d="M79.9572 81.974L69.9457 88.3267V88.7728L79.9572 82.4104V81.974Z" fill="#33211F"/>
    <path d="M79.9572 80.8004L69.9457 87.1434V87.5896L79.9572 81.2369V80.8004Z" fill="#33211F"/>
    <path d="M79.9572 79.6172L69.9457 85.9699V86.416L79.9572 80.0536V79.6172Z" fill="#33211F"/>
    <path d="M79.9572 78.4436L69.9457 84.7866V85.2328L79.9572 78.8801V78.4436Z" fill="#33211F"/>
    <path d="M9.69696 97.0168V98.5977L25.2085 108.296V106.696L9.69696 97.0168Z" fill="#33211F"/>
    <path d="M9.69696 94.0587V95.6396L25.2085 105.338V103.738L9.69696 94.0587Z" fill="#33211F"/>
    <path d="M9.69696 91.0908V92.6717L25.2085 102.37V100.77L9.69696 91.0908Z" fill="#33211F"/>
    <path d="M7.57602 90.7611L1.96814 87.2598V92.6135L7.57602 96.1148V90.7611Z" fill="white"/>
    <path d="M26.8711 102.855V108.238L34.0966 112.738V107.394L26.8711 102.855Z" fill="white"/>
    <path d="M53.0682 91.1199L48.4758 88.2588C47.8737 87.8805 47.3704 86.8622 47.3704 85.9893V83.5355C47.3704 82.6626 47.8647 82.2552 48.4758 82.6335L53.0682 85.4946C53.6703 85.8729 54.1736 86.8912 54.1736 87.7641V90.2179C54.1736 91.1005 53.6703 91.4982 53.0682 91.1199Z" fill="#969696"/>
    <path d="M46.993 83.0214C46.993 83.0214 47.6221 82.4589 47.9276 82.4977C48.2332 82.5268 47.5502 83.5549 47.5502 83.5549L46.993 83.0214Z" fill="#969696"/>
    <path d="M52.8705 91.6436C52.8705 91.6436 53.6883 91.5078 53.904 91.0908C54.1197 90.6738 53.9669 90.2082 53.9669 90.2082C53.9669 90.2082 52.8435 90.7707 52.8705 91.6436Z" fill="#969696"/>
    <path d="M52.3762 91.5078L47.7838 88.6467C47.1817 88.2685 46.6784 87.2501 46.6784 86.3772V83.9234C46.6784 83.0505 47.1727 82.6432 47.7838 83.0214L52.3762 85.8826C52.9783 86.2608 53.4815 87.2792 53.4815 88.1521V90.6059C53.4815 91.4788 52.9783 91.8861 52.3762 91.5078Z" fill="white"/>
    <path d="M47.2086 92.9142C46.7773 92.9142 46.301 92.662 45.8336 92.371L42.6882 90.4022C42.5354 90.3052 42.4905 90.1015 42.5714 89.9464C42.6612 89.7815 42.85 89.733 42.9937 89.8203L46.1392 91.7891C46.7863 92.1965 47.1907 92.3226 47.4064 92.1771C48.0175 91.7794 47.9366 89.1414 47.9186 88.2685C47.9096 88.0842 48.0444 87.929 48.2242 87.9193C48.4039 87.929 48.5387 88.0648 48.5477 88.2491C48.6286 91.0617 48.4039 92.3323 47.7389 92.759C47.5681 92.8657 47.3974 92.9142 47.2086 92.9142Z" fill="white"/>
    <path d="M116.741 39.9783L67.0249 70.995V57.9986L116.741 26.9723V39.9783Z" fill="#3FB759"/>
    <path d="M116.741 46.5541L67.0249 77.5805V74.1374L116.741 43.1207V46.5541Z" fill="#3FB759"/>
    <path d="M61.5428 44.2652L63.1246 39.1345L86.5896 24.4118L90.3281 26.7104L61.5428 44.2652Z" fill="#A8A8A8"/>
    <path d="M42.077 32.2969L43.6677 27.1662L67.1237 12.4435L70.8623 14.7421L42.077 32.2969Z" fill="#DB8937"/>
    <path d="M61.5428 44.2652L63.1245 39.1345L43.6677 27.1663L42.077 32.2969L61.5428 44.2652Z" fill="#B7B7B7"/>
    <path d="M67.1237 12.4435L43.6677 27.1662L63.1245 39.1345L86.5895 24.4118L67.1237 12.4435Z" fill="#C4C4C4"/>
    <path d="M63.5919 73.3906L54.3982 79.1225C53.3467 79.7724 52.502 79.0837 52.502 77.5804V67.0088C52.502 65.5055 53.3467 63.75 54.3982 63.1002L63.5919 57.3682C64.6434 56.7184 65.4881 57.407 65.4881 58.9103V69.4723C65.4881 70.9853 64.6434 72.7311 63.5919 73.3906Z" fill="#2A78B7"/>
    <path d="M65.0747 76.8433L62.3247 78.56C61.9563 78.7928 61.6507 78.5406 61.6507 78.0072C61.6507 77.4738 61.9563 76.853 62.3247 76.6203L65.0747 74.9036C65.4432 74.6708 65.7488 74.923 65.7488 75.4564C65.7488 75.9899 65.4432 76.6106 65.0747 76.8433Z" fill="white"/>
    <path d="M21.5598 77.7259L14.9993 90.7417L17.4707 92.3517L24.0312 79.2971L21.5598 77.7259Z" fill="#3FB759"/>
    <path d="M72.3992 57.3682L73.3069 56.8251L74.6639 62.2952L73.7562 62.8383L72.7946 58.9394L71.4646 64.2155L70.5569 64.7587L69.1998 59.2886L70.1075 58.7454L71.0781 62.6443L72.3992 57.3682Z" fill="white"/>
    <path d="M79.8943 59.1528L78.9866 59.6959L78.3845 57.2712L76.0479 58.6775L76.659 61.1022L75.7513 61.6454L74.3943 56.1753L75.302 55.6321L75.8682 57.9113L78.2048 56.505L77.6386 54.2258L78.5463 53.6827L79.8943 59.1528Z" fill="white"/>
    <path d="M81.9254 55.2345L81.3053 55.603L81.8895 57.9501L80.9818 58.4933L79.6248 53.0232L80.5324 52.48L81.0986 54.7786L81.5929 54.478L82.5545 51.258L83.6689 50.5888L82.5276 54.284L85.1877 55.9619L84.1003 56.6214L81.9254 55.2345Z" fill="white"/>
    <path d="M88.3061 52.6352L86.2841 53.8476L86.1762 55.38L85.2326 55.9425L85.8527 49.2794L86.6705 48.7945L90.0047 53.0814L89.0611 53.6536L88.3061 52.6352ZM86.347 52.9262L87.8568 52.0145L86.5357 50.2008L86.347 52.9262Z" fill="white"/>
    <path d="M94.0488 48.6005C94.1387 49.2115 94.0488 49.7935 93.7702 50.3366C93.4916 50.8797 93.0603 51.3259 92.4581 51.6847C92.0447 51.9369 91.6493 52.0533 91.2808 52.0339C90.9124 52.0145 90.5978 51.869 90.3282 51.5877C90.0586 51.3065 89.8699 50.9282 89.7441 50.4336L89.6182 49.9196C89.4924 49.4055 89.4655 48.8915 89.5463 48.3968C89.6272 47.9022 89.798 47.4464 90.0676 47.039C90.3462 46.6317 90.6877 46.2922 91.1191 46.04C91.6942 45.6909 92.1975 45.5745 92.6289 45.6909C93.0603 45.8073 93.3838 46.1467 93.5905 46.7093L92.6828 47.2524C92.539 46.8838 92.3593 46.6705 92.1436 46.6026C91.9279 46.5347 91.6493 46.6026 91.3078 46.8063C90.9124 47.039 90.6517 47.3785 90.508 47.8052C90.3732 48.232 90.3732 48.746 90.5169 49.3279L90.6338 49.8129C90.7776 50.4045 90.9933 50.7924 91.2718 50.9864C91.5504 51.1804 91.883 51.1513 92.2784 50.9185C92.6379 50.7052 92.8805 50.4627 93.0153 50.1814C93.1501 49.9099 93.1951 49.5607 93.1501 49.134L94.0488 48.6005Z" fill="white"/>
    <path d="M97.9133 46.8644L95.8912 48.0768L95.7834 49.6092L94.8397 50.1717L95.4598 43.5087L96.2776 43.0237L99.6118 47.3106L98.6682 47.8828L97.9133 46.8644ZM95.9541 47.1554L97.4639 46.2437L96.1428 44.43L95.9541 47.1554Z" fill="white"/>
    <path d="M98.8299 41.4816L99.7376 40.9385L100.906 45.6521L103.207 44.2749L102.038 39.5613L102.946 39.0181L104.114 43.722L104.743 43.3438L105.193 45.4775L104.357 45.9818L104.033 44.6628L100.196 46.9711L98.8299 41.4816Z" fill="white"/>
    <path d="M107.52 36.2637L108.428 35.7206L109.785 41.1907L108.877 41.7338L107.916 37.8349L106.586 43.111L105.678 43.6541L104.321 38.184L105.229 37.6409L106.199 41.5398L107.52 36.2637Z" fill="white"/>
    <path d="M113.443 38.9987L112.93 36.9523L111.915 37.5633L111.412 40.2111L110.441 40.793L111.034 37.767C110.36 37.8252 109.929 37.5148 109.767 36.8359C109.641 36.3122 109.704 35.8078 109.956 35.3132C110.216 34.8283 110.639 34.4015 111.223 34.0427L112.993 32.9758L114.35 38.4459L113.443 38.9987ZM110.675 36.3316C110.747 36.6419 110.89 36.8262 111.097 36.9038C111.304 36.9814 111.573 36.9135 111.906 36.7195L112.751 36.2152L112.274 34.2851L111.43 34.7895C111.097 34.9931 110.863 35.2259 110.747 35.4878C110.63 35.7496 110.603 36.0406 110.675 36.3316Z" fill="white"/>
    <path d="M26.4037 80.752L19.8522 93.7386L22.3326 95.3583L28.8931 82.2941L26.4037 80.752Z" fill="#3FB759"/>
    </g>
    <defs>
    <clipPath id="clip0">
    <rect width="136" height="121.429" fill="white"/>
    </clipPath>
    </defs>
    </svg>
    