<svg width="124" height="131" viewBox="0 0 124 131" fill="none" xmlns="http://www.w3.org/2000/svg">
    <g filter="url(#filter0_d)">
    <path d="M56.1331 122.327C42.7965 122.327 29.4656 119.395 19.3107 113.537C9.44033 107.835 4 100.246 4 92.1642C4 84.0821 9.43452 76.4935 19.3107 70.7919C39.6089 59.0694 72.6457 59.0694 92.9497 70.7919C102.82 76.4935 108.26 84.0821 108.26 92.1642C108.26 100.246 102.826 107.835 92.9497 113.537C82.8006 119.395 69.4639 122.321 56.1331 122.327ZM56.1331 62.3847C42.8661 62.3847 29.605 65.2993 19.5081 71.1287C9.75966 76.7548 4.39482 84.2273 4.39482 92.1642C4.39482 100.101 9.75966 107.574 19.5081 113.2C39.7018 124.858 72.5644 124.858 92.7581 113.2C102.507 107.574 107.871 100.101 107.871 92.1642C107.871 84.2273 102.501 76.7548 92.7581 71.1287C82.6612 65.2993 69.3943 62.3847 56.1331 62.3847Z" fill="white"/>
    </g>
    <path opacity="0.5" d="M56.1332 113.658C76.6973 113.658 93.3678 104.035 93.3678 92.1642C93.3678 80.2932 76.6973 70.67 56.1332 70.67C35.569 70.67 18.8985 80.2932 18.8985 92.1642C18.8985 104.035 35.569 113.658 56.1332 113.658Z" fill="#13247A"/>
    <path d="M123.38 77.09V79.32C123.38 82.34 118.88 84.79 113.33 84.79C107.78 84.79 103.28 82.34 103.28 79.32V77.09H123.38Z" fill="#EF9D26"/>
    <path d="M117.45 84.3C118.33 84.09 119.15 83.8 119.87 83.47V78.68H117.45V84.3Z" fill="#F9C32A"/>
    <path d="M121.07 82.81C121.83 82.31 122.42 81.74 122.82 81.11V77.35H121.07V82.81Z" fill="#F9C32A"/>
    <path d="M103.28 77.09C103.28 80.11 107.78 82.55 113.33 82.55C118.88 82.55 123.38 80.1 123.38 77.09C123.38 74.07 118.88 71.63 113.33 71.63C107.78 71.62 103.28 74.07 103.28 77.09Z" fill="#F9DC32"/>
    <path d="M105.6 77.02C105.6 79.29 109.06 81.13 113.34 81.13C117.61 81.13 121.08 79.29 121.08 77.02C121.08 74.75 117.62 72.91 113.34 72.91C109.06 72.91 105.6 74.75 105.6 77.02Z" fill="#F9C32A"/>
    <path d="M116.76 75.35L117.47 74.94L116.91 74.62L116.2 75.03C114.92 74.38 113.35 74.23 112.26 74.86C110.89 75.66 111.8 76.49 112.5 77.18L111.12 77.98C110.92 77.75 110.96 77.52 111.29 77.29L109.69 76.36C108.6 77.04 108.85 77.9 109.95 78.66L109.23 79.08L109.79 79.4L110.5 78.99C111.95 79.76 113.54 79.71 114.49 79.16C115.84 78.37 114.89 77.53 114.21 76.83L115.56 76.04C115.72 76.23 115.69 76.45 115.4 76.66L117 77.6C118.03 76.91 117.87 76.11 116.76 75.35ZM112.84 78.29C112.52 78.48 112.06 78.49 111.65 78.32L112.89 77.6C113.1 77.88 113.16 78.11 112.84 78.29ZM113.82 76.41C113.64 76.14 113.61 75.92 113.92 75.74C114.26 75.54 114.66 75.55 115.04 75.7L113.82 76.41Z" fill="#EF9D26"/>
    <path d="M123.38 74.21V76.44C123.38 79.46 118.88 81.91 113.33 81.91C107.78 81.91 103.28 79.46 103.28 76.44V74.21H123.38Z" fill="#EF9D26"/>
    <path d="M117.45 81.43C118.33 81.21 119.15 80.93 119.87 80.59V75.8H117.45V81.43Z" fill="#F9C32A"/>
    <path d="M121.07 79.93C121.83 79.43 122.42 78.86 122.82 78.23V74.47H121.07V79.93Z" fill="#F9C32A"/>
    <path d="M103.28 74.21C103.28 77.23 107.78 79.68 113.33 79.68C118.88 79.68 123.38 77.23 123.38 74.21C123.38 71.19 118.88 68.75 113.33 68.75C107.78 68.75 103.28 71.19 103.28 74.21Z" fill="#F9DC32"/>
    <path d="M105.6 74.14C105.6 76.41 109.06 78.25 113.34 78.25C117.61 78.25 121.08 76.41 121.08 74.14C121.08 71.87 117.62 70.03 113.34 70.03C109.06 70.04 105.6 71.88 105.6 74.14Z" fill="#F9C32A"/>
    <path d="M116.76 72.48L117.47 72.07L116.91 71.75L116.2 72.16C114.92 71.51 113.35 71.36 112.26 71.99C110.89 72.79 111.8 73.62 112.5 74.31L111.12 75.11C110.92 74.88 110.96 74.65 111.29 74.42L109.69 73.49C108.6 74.17 108.85 75.03 109.95 75.79L109.23 76.21L109.79 76.53L110.5 76.12C111.95 76.89 113.54 76.84 114.49 76.29C115.84 75.5 114.89 74.66 114.21 73.96L115.56 73.17C115.72 73.36 115.69 73.58 115.4 73.79L117.01 74.72C118.03 74.04 117.87 73.23 116.76 72.48ZM112.84 75.42C112.52 75.61 112.06 75.62 111.65 75.45L112.89 74.73C113.1 75 113.16 75.24 112.84 75.42ZM113.82 73.54C113.64 73.27 113.61 73.05 113.92 72.87C114.26 72.67 114.66 72.68 115.04 72.83L113.82 73.54Z" fill="#EF9D26"/>
    <path d="M123.38 71.34V73.57C123.38 76.59 118.88 79.04 113.33 79.04C107.78 79.04 103.28 76.59 103.28 73.57V71.34H123.38Z" fill="#EF9D26"/>
    <path d="M117.45 78.56C118.33 78.34 119.15 78.06 119.87 77.72V72.93H117.45V78.56Z" fill="#F9C32A"/>
    <path d="M121.07 77.06C121.83 76.56 122.42 75.99 122.82 75.36V71.6H121.07V77.06Z" fill="#F9C32A"/>
    <path d="M103.28 71.34C103.28 74.36 107.78 76.81 113.33 76.81C118.88 76.81 123.38 74.36 123.38 71.34C123.38 68.32 118.88 65.88 113.33 65.88C107.78 65.87 103.28 68.32 103.28 71.34Z" fill="#F9DC32"/>
    <path d="M105.6 71.27C105.6 73.54 109.06 75.38 113.34 75.38C117.61 75.38 121.08 73.54 121.08 71.27C121.08 69 117.62 67.16 113.34 67.16C109.06 67.16 105.6 69 105.6 71.27Z" fill="#F9C32A"/>
    <path d="M116.76 69.61L117.47 69.2L116.91 68.88L116.2 69.29C114.92 68.64 113.35 68.49 112.26 69.12C110.89 69.92 111.8 70.75 112.5 71.44L111.12 72.24C110.92 72.01 110.96 71.78 111.29 71.55L109.69 70.62C108.6 71.3 108.85 72.16 109.95 72.92L109.23 73.34L109.79 73.66L110.5 73.25C111.95 74.02 113.54 73.97 114.49 73.42C115.84 72.63 114.89 71.79 114.21 71.09L115.56 70.3C115.72 70.49 115.69 70.71 115.4 70.92L117 71.85C118.03 71.16 117.87 70.36 116.76 69.61ZM112.84 72.54C112.52 72.73 112.06 72.74 111.65 72.57L112.89 71.85C113.1 72.13 113.16 72.36 112.84 72.54ZM113.82 70.66C113.64 70.39 113.61 70.17 113.92 69.99C114.26 69.79 114.66 69.8 115.04 69.95L113.82 70.66Z" fill="#EF9D26"/>
    <path d="M123.38 68.46V70.7C123.38 73.72 118.88 76.17 113.33 76.17C107.78 76.17 103.28 73.72 103.28 70.7V68.46H123.38Z" fill="#EF9D26"/>
    <path d="M117.45 75.68C118.33 75.46 119.15 75.18 119.87 74.84V70.06H117.45V75.68Z" fill="#F9C32A"/>
    <path d="M121.07 74.19C121.83 73.69 122.42 73.12 122.82 72.49V68.72H121.07V74.19Z" fill="#F9C32A"/>
    <path d="M103.28 68.46C103.28 71.48 107.78 73.93 113.33 73.93C118.88 73.93 123.38 71.48 123.38 68.46C123.38 65.44 118.88 63 113.33 63C107.78 63 103.28 65.45 103.28 68.46Z" fill="#F9DC32"/>
    <path d="M105.6 68.4C105.6 70.67 109.06 72.51 113.34 72.51C117.61 72.51 121.08 70.67 121.08 68.4C121.08 66.13 117.62 64.29 113.34 64.29C109.06 64.29 105.6 66.13 105.6 68.4Z" fill="#F9C32A"/>
    <path d="M116.76 66.73L117.47 66.32L116.91 66L116.2 66.41C114.92 65.76 113.35 65.61 112.26 66.24C110.89 67.04 111.8 67.87 112.5 68.56L111.12 69.36C110.92 69.13 110.96 68.9 111.29 68.67L109.69 67.74C108.6 68.42 108.85 69.28 109.95 70.04L109.23 70.46L109.79 70.78L110.5 70.37C111.95 71.14 113.54 71.09 114.49 70.54C115.84 69.75 114.89 68.91 114.21 68.21L115.56 67.42C115.72 67.61 115.69 67.83 115.4 68.04L117 68.98C118.03 68.29 117.87 67.49 116.76 66.73ZM112.84 69.67C112.52 69.86 112.06 69.87 111.65 69.7L112.89 68.98C113.1 69.25 113.16 69.49 112.84 69.67ZM113.82 67.79C113.64 67.52 113.61 67.3 113.92 67.12C114.26 66.92 114.66 66.93 115.04 67.08L113.82 67.79Z" fill="#EF9D26"/>
    <path d="M108.75 85.54V87.77C108.75 90.79 104.25 93.23 98.7 93.23C93.15 93.23 88.65 90.78 88.65 87.77V85.54H108.75Z" fill="#EF9D26"/>
    <path d="M102.81 92.76C103.69 92.54 104.51 92.26 105.23 91.92V87.13H102.81V92.76Z" fill="#F9C32A"/>
    <path d="M106.44 91.26C107.2 90.76 107.79 90.18 108.19 89.56V85.8H106.44V91.26Z" fill="#F9C32A"/>
    <path d="M88.65 85.54C88.65 88.56 93.15 91.01 98.7 91.01C104.25 91.01 108.75 88.56 108.75 85.54C108.75 82.52 104.25 80.08 98.7 80.08C93.15 80.08 88.65 82.52 88.65 85.54Z" fill="#F9DC32"/>
    <path d="M90.96 85.47C90.96 87.74 94.42 89.58 98.7 89.58C102.97 89.58 106.44 87.74 106.44 85.47C106.44 83.2 102.98 81.36 98.7 81.36C94.43 81.37 90.96 83.2 90.96 85.47Z" fill="#F9C32A"/>
    <path d="M102.12 83.81L102.83 83.4L102.27 83.08L101.56 83.49C100.28 82.84 98.71 82.69 97.62 83.32C96.25 84.12 97.16 84.95 97.86 85.64L96.48 86.44C96.28 86.21 96.32 85.98 96.65 85.75L95.05 84.82C93.96 85.5 94.21 86.36 95.31 87.12L94.59 87.54L95.15 87.86L95.86 87.45C97.31 88.22 98.9 88.17 99.85 87.62C101.2 86.83 100.25 85.99 99.57 85.29L100.92 84.5C101.08 84.69 101.05 84.91 100.76 85.12L102.37 86.05C103.4 85.37 103.24 84.56 102.12 83.81ZM98.21 86.75C97.89 86.94 97.43 86.95 97.02 86.78L98.26 86.06C98.47 86.33 98.53 86.56 98.21 86.75ZM99.19 84.87C99.01 84.6 98.98 84.38 99.29 84.2C99.63 84 100.03 84.01 100.41 84.16L99.19 84.87Z" fill="#EF9D26"/>
    <path d="M108.75 82.67V84.9C108.75 87.92 104.25 90.36 98.7 90.36C93.15 90.36 88.65 87.91 88.65 84.9V82.67H108.75Z" fill="#EF9D26"/>
    <path d="M102.81 89.88C103.69 89.66 104.51 89.38 105.23 89.04V84.25H102.81V89.88Z" fill="#F9C32A"/>
    <path d="M106.44 88.39C107.2 87.89 107.79 87.31 108.19 86.69V82.93H106.44V88.39Z" fill="#F9C32A"/>
    <path d="M88.65 82.67C88.65 85.69 93.15 88.14 98.7 88.14C104.25 88.14 108.75 85.69 108.75 82.67C108.75 79.65 104.25 77.21 98.7 77.21C93.15 77.2 88.65 79.65 88.65 82.67Z" fill="#F9DC32"/>
    <path d="M90.96 82.6C90.96 84.87 94.42 86.71 98.7 86.71C102.97 86.71 106.44 84.87 106.44 82.6C106.44 80.33 102.98 78.49 98.7 78.49C94.43 78.49 90.96 80.33 90.96 82.6Z" fill="#F9C32A"/>
    <path d="M102.12 80.94L102.83 80.53L102.27 80.21L101.56 80.62C100.28 79.97 98.71 79.82 97.62 80.45C96.25 81.25 97.16 82.08 97.86 82.77L96.48 83.57C96.28 83.34 96.32 83.11 96.65 82.88L95.05 81.95C93.96 82.63 94.21 83.49 95.31 84.25L94.59 84.67L95.15 84.99L95.86 84.58C97.31 85.35 98.9 85.3 99.85 84.75C101.2 83.96 100.25 83.12 99.57 82.42L100.92 81.63C101.08 81.82 101.05 82.04 100.76 82.25L102.37 83.18C103.4 82.49 103.24 81.69 102.12 80.94ZM98.21 83.87C97.89 84.06 97.43 84.07 97.02 83.9L98.26 83.18C98.47 83.46 98.53 83.69 98.21 83.87ZM99.19 81.99C99.01 81.72 98.98 81.5 99.29 81.32C99.63 81.12 100.03 81.13 100.41 81.28L99.19 81.99Z" fill="#EF9D26"/>
    <path d="M108.75 79.79V82.02C108.75 85.04 104.25 87.48 98.7 87.48C93.15 87.48 88.65 85.03 88.65 82.02V79.79H108.75Z" fill="#EF9D26"/>
    <path d="M102.81 87.01C103.69 86.79 104.51 86.51 105.23 86.18V81.39H102.81V87.01Z" fill="#F9C32A"/>
    <path d="M106.44 85.51C107.2 85.01 107.79 84.43 108.19 83.81V80.05H106.44V85.51Z" fill="#F9C32A"/>
    <path d="M88.65 79.79C88.65 82.81 93.15 85.26 98.7 85.26C104.25 85.26 108.75 82.81 108.75 79.79C108.75 76.77 104.25 74.33 98.7 74.33C93.15 74.33 88.65 76.78 88.65 79.79Z" fill="#F9DC32"/>
    <path d="M90.96 79.73C90.96 82 94.42 83.84 98.7 83.84C102.97 83.84 106.44 82 106.44 79.73C106.44 77.46 102.98 75.62 98.7 75.62C94.43 75.62 90.96 77.46 90.96 79.73Z" fill="#F9C32A"/>
    <path d="M102.12 78.06L102.83 77.65L102.27 77.33L101.56 77.74C100.28 77.09 98.71 76.94 97.62 77.57C96.25 78.37 97.16 79.2 97.86 79.89L96.48 80.69C96.28 80.46 96.32 80.23 96.65 80L95.05 79.07C93.96 79.75 94.21 80.61 95.31 81.37L94.59 81.79L95.15 82.11L95.86 81.7C97.31 82.47 98.9 82.42 99.85 81.87C101.2 81.08 100.25 80.24 99.57 79.54L100.92 78.75C101.08 78.94 101.05 79.16 100.76 79.37L102.37 80.3C103.4 79.62 103.24 78.81 102.12 78.06ZM98.21 81C97.89 81.19 97.43 81.2 97.02 81.03L98.26 80.31C98.47 80.58 98.53 80.82 98.21 81ZM99.19 79.12C99.01 78.85 98.98 78.63 99.29 78.45C99.63 78.25 100.03 78.26 100.41 78.41L99.19 79.12Z" fill="#EF9D26"/>
    <path d="M108.75 76.92V79.15C108.75 82.17 104.25 84.61 98.7 84.61C93.15 84.61 88.65 82.16 88.65 79.15V76.92H108.75V76.92Z" fill="#EF9D26"/>
    <path d="M102.81 84.14C103.69 83.92 104.51 83.64 105.23 83.31V78.52H102.81V84.14Z" fill="#F9C32A"/>
    <path d="M106.44 82.64C107.2 82.14 107.79 81.57 108.19 80.94V77.18H106.44V82.64Z" fill="#F9C32A"/>
    <path d="M88.65 76.92C88.65 79.94 93.15 82.39 98.7 82.39C104.25 82.39 108.75 79.94 108.75 76.92C108.75 73.9 104.25 71.46 98.7 71.46C93.15 71.45 88.65 73.9 88.65 76.92Z" fill="#F9DC32"/>
    <path d="M90.96 76.85C90.96 79.12 94.42 80.96 98.7 80.96C102.97 80.96 106.44 79.12 106.44 76.85C106.44 74.58 102.98 72.74 98.7 72.74C94.43 72.74 90.96 74.58 90.96 76.85Z" fill="#F9C32A"/>
    <path d="M102.12 75.19L102.83 74.78L102.27 74.46L101.56 74.87C100.28 74.22 98.71 74.07 97.62 74.7C96.25 75.5 97.16 76.33 97.86 77.02L96.48 77.82C96.28 77.59 96.32 77.36 96.65 77.13L95.05 76.2C93.96 76.88 94.21 77.74 95.31 78.5L94.59 78.92L95.15 79.24L95.86 78.83C97.31 79.6 98.9 79.55 99.85 79C101.2 78.21 100.25 77.37 99.57 76.67L100.92 75.88C101.08 76.07 101.05 76.29 100.76 76.5L102.37 77.43C103.4 76.74 103.24 75.94 102.12 75.19ZM98.21 78.13C97.89 78.32 97.43 78.33 97.02 78.16L98.26 77.44C98.47 77.71 98.53 77.94 98.21 78.13ZM99.19 76.25C99.01 75.98 98.98 75.76 99.29 75.58C99.63 75.38 100.03 75.39 100.41 75.54L99.19 76.25Z" fill="#EF9D26"/>
    <path d="M55.99 31.8L44.14 39.05L46.95 43.45L60.56 35.95L64.1 30.8L64.49 16.4L55.99 31.8Z" fill="#0F4463"/>
    <path d="M70.27 93.76L64.97 93.45C64.97 93.45 64.45 94.42 62.61 94.91C60.77 95.4 57.13 97.54 57.9 99.35C58.66 101.15 61.72 101.12 63.4 100.36C65.08 99.6 67.27 99.19 67.27 99.19L67.69 99.92L71.1 99.04L71.22 94.17L70.27 93.76Z" fill="#9D4D36"/>
    <path d="M73.89 96.04C73.89 96.04 73.08 97.91 72.23 98.54C71.38 99.18 68.98 102.94 69.7 104.19C70.42 105.44 72.03 105.88 73 105.66C73.96 105.44 76.34 104.21 77.13 102.61L77.83 101.26C77.83 101.26 78.14 101.85 78.23 101.83C78.32 101.81 80.49 100.6 80.85 100.29C80.85 100.29 80.65 96.53 80.49 94.86L73.89 96.04Z" fill="#9D4D36"/>
    <path d="M70.67 46.67H63.6C63.45 46.89 63.31 64.12 63.39 66.92C63.46 69.72 64.36 93.55 64.36 93.55C64.36 93.55 67.25 95.77 71.52 94.52L72.29 64.58L70.67 46.67Z" fill="#072944"/>
    <path d="M79.96 44.72C79.96 44.72 80.11 53.62 80.01 56.57C79.91 59.52 80.89 72.09 80.99 72.39C81.09 72.68 81.37 95.46 81.37 95.46C81.37 95.46 78.42 98.01 72.92 96.84C72.92 96.84 71.26 65.91 70.67 61.1C70.08 56.29 69.39 46.37 69.39 46.37L79.96 44.72Z" fill="#07304B"/>
    <path d="M76.77 14.67L67.9 14.95L64.48 16.4C64.48 16.4 63.13 19.2 62.39 24.58C61.65 29.96 63.1 46.34 63.1 46.34C66.44 48.01 81.01 46.67 81.01 46.67C81.85 39.86 81.72 18.09 81.72 18.09L76.77 14.67Z" fill="#0B3B56"/>
    <path d="M70.17 14.88L67.08 17.53C65.74 25.35 65.87 40.63 65.99 47.13C67.13 47.31 68.41 47.43 69.71 47.51C70.02 31.27 75.4 15.82 75.79 14.71L70.17 14.88Z" fill="#D4D6D8"/>
    <path d="M67.41 18.72L67.98 21.15C67.98 21.15 66.8 36.17 66.4 42.56L67.68 45.19L69.3 42.93L69.6 22.07L71.19 19.09C71.19 19.09 69.56 17.86 67.41 18.72Z" fill="#0B3B56"/>
    <path d="M69.23 18.5L66.4 19.66L67.51 14.95L68.98 13.94L69.23 18.5Z" fill="#E6E7E8"/>
    <path d="M75.37 12.64L68.55 13.71L69.23 18.5L75.81 14.63L75.37 12.64Z" fill="#F4C5A2"/>
    <path d="M77.01 8.22C77.01 11.94 74.3 14.95 70.96 14.95C67.62 14.95 65.61 11.94 65.61 8.22C65.61 4.5 67.62 1.49 70.96 1.49C74.31 1.49 77.01 4.5 77.01 8.22Z" fill="#FED4BD"/>
    <path d="M69.75 45.99L69.59 50.94L80.1 52.3C80.67 52.38 81.18 51.93 81.18 51.35V45L69.75 45.99Z" fill="#0B3B56"/>
    <path d="M62.84 42.93L62.78 48.82C62.78 49.27 63.08 49.66 63.51 49.77L65.91 50.37L65.97 46.51L62.84 42.93Z" fill="#0B3B56"/>
    <path d="M75.96 13.64L69.23 18.5L72.18 21.39L76.77 14.67L75.96 13.64Z" fill="#E6E7E8"/>
    <path d="M77.47 5.12C77.47 5.12 76.18 0.679999 71 0.689999C71 0.689999 65.05 0.22 64.53 8.23C64.51 8.58 64.89 8.82 65.2 8.65C65.92 8.23 67.1 7.63 68.29 7.31L67.99 7.86C67.99 7.86 67.88 8.18 68.55 8.13L71.79 7.36C71.79 7.36 72.05 9.02 74.19 10.09C74.19 10.09 74.44 12.89 75.45 13.34C75.46 13.33 78.81 10.65 77.47 5.12Z" fill="#07304B"/>
    <path d="M24.49 61.08L14 54.99V83.42L24.49 89.49V61.08Z" fill="url(#paint0_linear)"/>
    <path d="M24.84 48.76L14 54.99L24.49 61.08L35.35 54.84L24.84 48.76Z" fill="white"/>
    <path d="M35.35 54.84L24.49 61.08V89.49L35.35 83.21V54.84Z" fill="url(#paint1_linear)"/>
    <path d="M38.12 69L27.63 62.91V91.34L38.13 97.41L38.12 69Z" fill="url(#paint2_linear)"/>
    <path d="M38.48 56.68L27.63 62.91L38.12 69L48.98 62.76L38.48 56.68Z" fill="white"/>
    <path d="M48.98 62.76L38.12 69L38.13 97.41L48.98 91.13V62.76Z" fill="url(#paint3_linear)"/>
    <path d="M51.76 76.92L41.27 70.83V99.26L51.76 105.34V76.92Z" fill="url(#paint4_linear)"/>
    <path d="M52.11 64.6L41.27 70.83L51.76 76.92L62.61 70.68L52.11 64.6Z" fill="white"/>
    <path d="M62.61 70.68L51.76 76.92V105.34L62.61 99.05V70.68Z" fill="url(#paint5_linear)"/>
    <path d="M65.39 84.84L54.9 78.75V107.19L65.39 113.26V84.84Z" fill="url(#paint6_linear)"/>
    <path d="M65.74 72.52L54.9 78.75L65.39 84.84L76.25 78.6L65.74 72.52Z" fill="white"/>
    <path d="M76.25 78.6L65.39 84.84V113.26L76.25 106.98V78.6Z" fill="url(#paint7_linear)"/>
    <path d="M24.49 53.2L14 47.11V55L24.49 61.08V53.2Z" fill="#F9C32A"/>
    <path d="M24.84 40.88L14 47.11L24.49 53.2L35.35 46.96L24.84 40.88Z" fill="#F9DC32"/>
    <path d="M35.35 46.96L24.49 53.2V61.08L35.35 54.79V46.96Z" fill="#EF9D26"/>
    <path d="M38.12 54.05L27.63 47.96V62.93L38.13 69L38.12 54.05Z" fill="#DE495A"/>
    <path d="M38.48 41.73L27.63 47.96L38.12 54.05L48.98 47.81L38.48 41.73Z" fill="#ED5561"/>
    <path d="M48.98 47.81L38.12 54.05L38.13 69L48.98 62.72V47.81Z" fill="#C64453"/>
    <path d="M51.76 54.9L41.27 48.81V70.85L51.76 76.92V54.9Z" fill="#F9C32A"/>
    <path d="M52.11 42.57L41.27 48.81L51.76 54.9L62.61 48.66L52.11 42.57Z" fill="#F9DC32"/>
    <path d="M62.61 48.65L51.76 54.9V76.92L62.61 70.64V48.65Z" fill="#EF9D26"/>
    <path d="M65.39 55.74L54.9 49.65V78.77L65.39 84.84V55.74Z" fill="#DE495A"/>
    <path d="M65.74 43.42L54.9 49.65L65.39 55.74L76.25 49.5L65.74 43.42Z" fill="#ED5561"/>
    <path d="M76.25 49.5L65.39 55.74V84.84L76.25 78.56V49.5Z" fill="#C64453"/>
    <path d="M71.67 43.22C71.67 43.22 70.07 43.39 69.55 43.53C69.02 43.67 66.95 43.96 66.27 44.51C65.59 45.06 67.27 45.06 67.74 45.21C68.21 45.36 67.14 45.85 66.45 46.4C65.76 46.95 65.33 47.42 65 48.73C64.75 49.72 67.95 52.12 68.78 50.67C69.58 49.27 69.6 49.27 71.03 48.48C72.73 47.55 73.66 46.46 74.18 46L71.67 43.22Z" fill="#F4C5A2"/>
    <path d="M81.72 18.09C81.72 18.09 84.57 20.22 85.34 26.32L86.3 36.22L74.22 46.72L70.7 42.92L80.02 33.86L77.57 24.33C77.57 24.34 77.13 19.47 81.72 18.09Z" fill="#0F4463"/>
    <path d="M45.61 39.27C45.61 39.27 44.01 39.44 43.49 39.58C42.97 39.71 40.89 40.01 40.21 40.56C39.53 41.11 41.21 41.11 41.68 41.26C42.15 41.41 41.08 41.9 40.39 42.45C39.7 43 39.27 43.47 38.94 44.78C38.69 45.77 41.89 48.17 42.72 46.72C43.52 45.32 43.54 45.32 44.97 44.53C46.67 43.6 47.6 42.51 48.12 42.05L45.61 39.27Z" fill="#F4C5A2"/>
    <path d="M48.85 38.89L44.14 39.05L46.95 43.45L49.4 41.25L48.85 38.89Z" fill="#0F4463"/>
    <defs>
    <filter id="filter0_d" x="0" y="62" width="112.26" height="68.327" filterUnits="userSpaceOnUse" color-interpolation-filters="sRGB">
    <feFlood flood-opacity="0" result="BackgroundImageFix"/>
    <feColorMatrix in="SourceAlpha" type="matrix" values="0 0 0 0 0 0 0 0 0 0 0 0 0 0 0 0 0 0 127 0"/>
    <feOffset dy="4"/>
    <feGaussianBlur stdDeviation="2"/>
    <feColorMatrix type="matrix" values="0 0 0 0 0.811765 0 0 0 0 0.898039 0 0 0 0 1 0 0 0 1 0"/>
    <feBlend mode="normal" in2="BackgroundImageFix" result="effect1_dropShadow"/>
    <feBlend mode="normal" in="SourceGraphic" in2="effect1_dropShadow" result="shape"/>
    </filter>
    <linearGradient id="paint0_linear" x1="13.999" y1="72.2406" x2="24.4904" y2="72.2406" gradientUnits="userSpaceOnUse">
    <stop stop-color="#9AE3FF"/>
    <stop offset="1" stop-color="#82CCF1"/>
    </linearGradient>
    <linearGradient id="paint1_linear" x1="24.4889" y1="72.1656" x2="35.3504" y2="72.1656" gradientUnits="userSpaceOnUse">
    <stop stop-color="#7BDAFF"/>
    <stop offset="1" stop-color="#59BDEF"/>
    </linearGradient>
    <linearGradient id="paint2_linear" x1="27.629" y1="80.1606" x2="38.1304" y2="80.1606" gradientUnits="userSpaceOnUse">
    <stop stop-color="#9AE3FF"/>
    <stop offset="1" stop-color="#82CCF1"/>
    </linearGradient>
    <linearGradient id="paint3_linear" x1="38.1189" y1="80.0856" x2="48.9804" y2="80.0856" gradientUnits="userSpaceOnUse">
    <stop stop-color="#7BDAFF"/>
    <stop offset="1" stop-color="#59BDEF"/>
    </linearGradient>
    <linearGradient id="paint4_linear" x1="41.269" y1="88.0856" x2="51.7604" y2="88.0856" gradientUnits="userSpaceOnUse">
    <stop stop-color="#9AE3FF"/>
    <stop offset="1" stop-color="#82CCF1"/>
    </linearGradient>
    <linearGradient id="paint5_linear" x1="51.7589" y1="88.0106" x2="62.6105" y2="88.0106" gradientUnits="userSpaceOnUse">
    <stop stop-color="#7BDAFF"/>
    <stop offset="1" stop-color="#59BDEF"/>
    </linearGradient>
    <linearGradient id="paint6_linear" x1="54.899" y1="96.0056" x2="65.3904" y2="96.0056" gradientUnits="userSpaceOnUse">
    <stop stop-color="#9AE3FF"/>
    <stop offset="1" stop-color="#82CCF1"/>
    </linearGradient>
    <linearGradient id="paint7_linear" x1="65.3889" y1="95.9306" x2="76.2504" y2="95.9306" gradientUnits="userSpaceOnUse">
    <stop stop-color="#7BDAFF"/>
    <stop offset="1" stop-color="#59BDEF"/>
    </linearGradient>
    </defs>
    </svg>
    