<svg width="143" height="136" viewBox="0 0 143 136" fill="none" xmlns="http://www.w3.org/2000/svg">
    <path d="M0.502823 69.1363L1.44563 68.6011C1.7599 68.4122 2.2313 68.4436 2.7027 68.727L1.7599 69.2622C1.28849 68.9789 0.848518 68.9474 0.502823 69.1363Z" fill="#C2C2C2"/>
    <path d="M0.502823 69.1363L1.44563 68.6011C1.7599 68.4122 2.2313 68.4436 2.7027 68.727L1.7599 69.2622C1.28849 68.9789 0.848518 68.9474 0.502823 69.1363Z" fill="#DDE9F9"/>
    <path d="M7.19676 74.8036L6.28539 75.3388C6.41109 75.2759 6.5368 75.1499 6.59965 75.024L7.54246 74.4887C7.44818 74.6147 7.3539 74.7091 7.19676 74.8036Z" fill="#C2C2C2"/>
    <path d="M6.59965 75.024L7.54246 74.4887C7.44818 74.6147 7.3539 74.7406 7.22819 74.8036L6.28539 75.3388C6.41109 75.2759 6.50537 75.1499 6.59965 75.024Z" fill="#C2C2C2"/>
    <path d="M6.78821 74.2054L7.73101 73.6701V73.7646L6.78821 74.3313V74.2054Z" fill="#C2C2C2"/>
    <path d="M1.79134 69.2623L2.70272 68.727L5.97111 70.5846L5.0283 71.1513L1.79134 69.2623Z" fill="#DDE9F9"/>
    <path d="M9.2395 77.8891L10.1823 77.3538L9.77375 77.7316L8.83095 78.2669L9.2395 77.8891Z" fill="#C2C2C2"/>
    <path d="M6.78821 74.3313L7.73101 73.7646L10.1823 77.3538L9.2395 77.8891L6.78821 74.3313Z" fill="#C2C2C2"/>
    <path d="M5.02831 71.1513L5.97111 70.6161C6.94534 71.1828 7.73102 72.5681 7.73102 73.6701L6.78821 74.2053C6.81964 73.0719 6.00254 71.7181 5.02831 71.1513Z" fill="#C2C2C2"/>
    <path d="M5.02831 71.1513L5.97111 70.6161C6.06539 70.6791 6.15967 70.7105 6.22253 70.7735L5.27972 71.3087C5.21687 71.2458 5.12259 71.1828 5.02831 71.1513Z" fill="#DDE9F9"/>
    <path d="M5.28157 71.3095L6.22438 70.7742C6.97862 71.341 7.54431 72.317 7.70144 73.23L6.75863 73.7653C6.63293 72.8522 6.03582 71.8762 5.28157 71.3095Z" fill="#DDE9F9"/>
    <path d="M6.75679 73.7646L7.6996 73.2293C7.73102 73.3868 7.73102 73.5127 7.73102 73.6701L6.78822 74.2054C6.78822 74.0479 6.78822 73.922 6.75679 73.7646Z" fill="#C2C2C2"/>
    <path d="M5.0283 71.1537C6.00253 71.7204 6.78821 73.1057 6.78821 74.2077V74.3337L9.2395 77.8914L8.83095 78.2692L6.59964 75.0263C6.3168 75.4986 5.71969 75.6245 5.0283 75.2152L1.75991 73.3261C0.785672 72.7594 0 71.4056 0 70.2721C0 69.1387 0.785672 68.6979 1.79133 69.2646L5.0283 71.1537Z" fill="#D2D5DA"/>
    <path d="M126.65 68.4164C125.173 67.5663 123.162 67.5663 120.931 68.6683C120.679 68.7942 120.459 68.9201 120.208 69.0461C116.971 70.9037 114.142 74.5244 112.54 78.3656C111.66 80.4751 111.157 82.679 111.157 84.7255C111.157 87.5906 112.163 89.6056 113.797 90.5502L119.925 94.1394C118.291 93.1949 117.285 91.1799 117.285 88.3148C117.285 86.2682 117.788 84.0958 118.668 81.9548C120.271 78.0822 123.099 74.4929 126.336 72.6353C126.587 72.4779 126.839 72.352 127.059 72.2575C129.29 71.1871 131.301 71.1556 132.779 72.0057L126.65 68.4164Z" fill="#628191"/>
    <path d="M126.336 72.6353C131.333 69.7387 135.418 72.0686 135.418 77.8303C135.45 83.592 131.396 90.6131 126.399 93.5097C121.402 96.4063 117.317 94.0764 117.317 88.3147C117.285 82.553 121.339 75.5319 126.336 72.6353Z" fill="#92B6C7"/>
    <path d="M126.367 78.5545C128.693 77.2006 130.579 78.3026 130.579 80.9788C130.579 83.655 128.693 86.9294 126.367 88.2518C124.042 89.6056 122.156 88.5037 122.156 85.8275C122.156 83.1513 124.042 79.9083 126.367 78.5545Z" fill="#628190"/>
    <path d="M75.9902 115.612L29.2899 92.7541L32.9982 86.4886L75.9902 111.519V115.612Z" fill="#C2C2C2"/>
    <path d="M75.9902 111.519L32.9982 86.4886L103.992 45.3695L142.458 72.8872L75.9902 111.519Z" fill="#C2C2C2"/>
    <path d="M142.458 72.8872V76.9802L75.9902 115.612V111.519L142.458 72.8872Z" fill="#92B6C7"/>
    <path d="M75.9902 111.551L33.0297 86.5201L32.9982 38.6318L75.9902 63.6622V111.551Z" fill="#B7CDD8"/>
    <path d="M75.9902 63.6622L32.9982 38.6318L99.4975 0L142.458 25.0304L75.9902 63.6622Z" fill="#DDE9F9"/>
    <path d="M142.458 25.0304V72.8872L75.9902 111.551V63.6622L142.458 25.0304Z" fill="#92B6C7"/>
    <path d="M55.5313 109.661C54.0543 108.78 52.0429 108.811 49.8116 109.913C49.5602 110.039 49.3402 110.165 49.0888 110.291C45.8518 112.149 43.0234 115.769 41.4207 119.611C40.5407 121.72 40.0379 123.924 40.0379 125.97C40.0379 128.836 41.0435 130.851 42.6777 131.795L48.8374 135.384C47.2032 134.44 46.1975 132.425 46.1975 129.56C46.1975 127.513 46.7004 125.341 47.5803 123.2C49.1831 119.327 52.0115 115.738 55.2485 113.88C55.4999 113.723 55.7513 113.597 55.9713 113.503C58.2026 112.432 60.2139 112.401 61.691 113.251L55.5313 109.661Z" fill="#628190"/>
    <path d="M55.217 113.88C60.2139 110.984 64.2994 113.314 64.2994 119.075C64.3308 124.837 60.2768 131.858 55.2799 134.755C50.283 137.651 46.1975 135.321 46.1975 129.56C46.1661 123.798 50.2202 116.777 55.217 113.88Z" fill="#92B6C7"/>
    <path d="M55.2171 119.453C57.5427 118.099 59.4283 119.201 59.4283 121.877C59.4283 124.554 57.5427 127.828 55.2171 129.15C52.8915 130.504 51.0059 129.402 51.0059 126.726C51.0373 124.081 52.8915 120.807 55.2171 119.453Z" fill="#628190"/>
    <path d="M33.0611 135.668L0.722833 116.84L0.691406 97.9806L33.0297 116.808L33.0611 135.668Z" fill="#B7CDD8"/>
    <path d="M33.0297 116.808L0.691406 97.9805L3.89695 89.7945L36.2352 108.622L33.0297 116.808Z" fill="#DDE9F9"/>
    <path d="M36.2352 108.622L3.89694 89.7945L37.0837 70.5888L69.422 89.4167L36.2352 108.622Z" fill="#C1C4CB"/>
    <path d="M67.9449 88.4722L35.6067 69.6443L35.5438 53.9019L67.8821 72.7298L67.9449 88.4722Z" fill="#C1C4CB"/>
    <path d="M37.7123 105.946L11.4394 83.6235L35.6067 69.6443L67.9449 88.4722L37.7123 105.946Z" fill="#C1C4CB"/>
    <path d="M67.882 72.7298L67.9449 88.4722L39.4093 104.97L46.5746 85.0403L67.882 72.7298Z" fill="#ACC8D7"/>
    <path d="M37.7123 105.946L11.4394 83.6235L14.2364 66.2124L46.5746 85.0403L37.7123 105.946Z" fill="#C1C4CB"/>
    <path d="M46.5746 85.0403L14.2364 66.2125L35.5438 53.9019L67.8821 72.7298L46.5746 85.0403Z" fill="#C1C4CB"/>
    <path d="M36.2352 108.622L3.89694 89.7945L12.7593 65.2679L45.0976 84.0958L36.2352 108.622Z" fill="#B7CDD8"/>
    <path d="M5.09117 89.2278L13.6079 67.0311L43.9034 84.6626L35.3867 106.859L5.09117 89.2278Z" fill="#C2D6E0"/>
    <path d="M45.0976 84.0958L12.7593 65.2679L37.0209 51.2257L69.3591 70.0536L45.0976 84.0958Z" fill="#DDE9F9"/>
    <path d="M45.0976 84.0958L69.3591 70.0536L69.422 89.4167L36.2666 108.622L45.0976 84.0958ZM67.9449 88.4722L67.9135 72.7298L46.606 85.0718L39.4721 105.002L67.9449 88.4722Z" fill="#92B6C7"/>
    <path d="M54.6199 112.873C56.2227 111.928 57.794 111.488 59.2711 111.488C62.3824 111.488 64.6137 113.566 65.2422 116.934L69.4534 114.51L69.422 98.8621L69.3906 89.4482L36.2352 108.654L33.0297 116.84L33.0611 135.699L45.0347 128.678C45.4119 122.633 49.4973 115.832 54.6199 112.873Z" fill="#92B6C7"/>
    <path d="M33.0611 135.668L45.0347 128.647C45.1919 126.034 46.0718 123.263 47.4232 120.713L33.0611 129.088V135.668Z" fill="#92B6C7"/>
    <path d="M62.1624 112.18C63.7337 113.062 64.8337 114.699 65.2736 116.903L69.4848 114.479V107.961L62.1624 112.18Z" fill="#92B6C7"/>
    <path d="M0.722824 110.323V116.84L33.0611 135.668V129.025L0.722824 110.323Z" fill="#C2D6E0"/>
    <path d="M24.3873 124.617L7.00821 114.542V120.083L24.3873 130.189V124.617Z" fill="#B7CDD8"/>
    <path d="M39.7864 97.8819L40.8864 97.2522L43.7148 96.4022L42.6463 97.0319L39.7864 97.8819Z" fill="#C2C2C2"/>
    <path d="M43.212 95.5836L44.2805 94.9539C44.6576 94.7335 45.1604 94.765 45.7261 95.0798L44.6576 95.7095C44.1233 95.3946 43.5891 95.3632 43.212 95.5836Z" fill="#C2C2C2"/>
    <path d="M44.689 95.7095L45.7575 95.0798L49.5288 97.2837L48.4288 97.9134L44.689 95.7095Z" fill="#C2C2C2"/>
    <path d="M48.4288 97.9134L49.4973 97.2838C49.5916 97.3467 49.6859 97.4097 49.7802 97.4727L48.7116 98.1024C48.6488 98.0079 48.5545 97.9449 48.4288 97.9134Z" fill="#C2C2C2"/>
    <path d="M48.7454 98.1032L49.8139 97.4735C50.6624 98.1032 51.3538 99.2681 51.5109 100.307L50.4424 100.937C50.2853 99.8664 49.5939 98.7329 48.7454 98.1032Z" fill="#C2C2C2"/>
    <path d="M50.4401 100.936L51.5087 100.306C51.5401 100.464 51.5401 100.653 51.5401 100.81C51.5401 101.471 51.3201 101.912 50.943 102.132L49.8745 102.762C50.2516 102.542 50.4716 102.101 50.4716 101.44C50.4716 101.282 50.4716 101.093 50.4401 100.936Z" fill="#C2C2C2"/>
    <path d="M48.4288 97.9162C49.5602 98.5774 50.4716 100.152 50.4716 101.443C50.4716 102.733 49.5602 103.269 48.4288 102.607L44.6576 100.435C43.8719 99.9628 43.1805 99.0497 42.8348 98.1051L40.2264 98.8608L39.755 97.8848L42.5834 97.0661V96.9087C42.5834 95.6179 43.4948 95.0826 44.6262 95.7438L48.4288 97.9162Z" fill="#D2D5DA"/>
    </svg>
    