<svg width="1080" height="599" viewBox="0 0 1080 599" fill="none" xmlns="http://www.w3.org/2000/svg">
    <rect width="1080" height="600" fill="#BFC5D0"/>
    <g opacity="0.65">
    <path d="M1078.19 12.95V588.45C1078.19 594.83 1073.02 600 1066.64 600H11.55C5.17 600 0 594.83 0 588.45V12.95C0 6.57 5.17 1.4 11.55 1.4H1066.64C1073.02 1.4 1078.19 6.57 1078.19 12.95Z" fill="#CFE5FF"/>
    <path d="M1080 0V600H0V0H1080ZM1076.37 597.2V2.8H3.63V597.2H1076.37Z" fill="#CFE5FF"/>
    <path d="M954.77 594.26L955.62 598.6H979.98L979.62 596.49L954.77 594.26Z" fill="#A3C7D3"/>
    <path d="M809.97 575.61C814 583.39 817.35 591.08 820.19 598.6H853.9V563.56H908.31V598.6H933.58L913.72 497.78C885.6 528.69 850.18 555.28 809.97 575.61Z" fill="#A3C7D3"/>
    <path d="M234.5 70.75L280.56 265.35L358.64 253.85L387.12 78.22L234.5 70.75ZM353.01 197.99V235.64H285.25V197.99H353.01ZM356.47 181.17H298.54V89.59L368.98 92.23L356.47 181.17Z" fill="#1FB24C"/>
    <path d="M978.21 588.3L956.59 462.08L932.62 481.82L953.15 586.06L978.21 588.3Z" fill="#A3C7D3"/>
    <path d="M13.51 59.93L140.43 285.99L270.83 266.78L224.31 70.25L13.51 59.93ZM226.99 204.59L238.39 238.45L136.67 246.14L113.42 204.59H226.99ZM238.55 179.38H119.35L65.2 82.63L208.31 89.59L238.55 179.38Z" fill="#1FB24C"/>
    <path d="M321.66 420.31C311.44 429.34 299.65 436.68 287.46 443.35L311.94 464.3C317.17 461.25 322.02 458.24 325.98 455.25C357.46 431.42 383.76 397.15 393.66 362.14C397.69 347.89 416.11 339.65 433.14 344.5L468.84 354.67C470.99 335.74 476.05 318 481.3 303.07L377.48 273.09L372.65 302.86C365.15 349.09 356.14 389.85 321.66 420.31Z" fill="#1FB24C"/>
    <g opacity="0.2">
    <path opacity="0.2" d="M321.66 420.31C311.44 429.34 299.65 436.68 287.46 443.35L311.94 464.3C317.17 461.25 322.02 458.24 325.98 455.25C357.46 431.42 383.76 397.15 393.66 362.14C397.69 347.89 416.11 339.65 433.14 344.5L468.84 354.67C470.99 335.74 476.05 318 481.3 303.07L377.48 273.09L372.65 302.86C365.15 349.09 356.14 389.85 321.66 420.31Z" fill="black"/>
    </g>
    <path d="M408.57 81.29L380.37 255.22L484.83 285.39L489.22 100.03L408.57 81.29ZM395.88 247.39V224.42H408.74V247.39H395.88ZM469.35 231.64H424.83V112.81H469.35V231.64Z" fill="#A3C7D3"/>
    <path d="M930.69 471.98L954.88 452.06L937.35 349.75C935.61 339.59 942.43 329.74 954.03 325.63L1050.22 291.61C1059.76 288.24 1070.34 289.48 1078.19 294.12V253.16L900.02 316.28L930.69 471.98Z" fill="#A3C7D3"/>
    <path d="M691.6 147.03L606.86 127.35V234.03L691.6 147.03Z" fill="#A3C7D3"/>
    <path d="M184.95 515.49C164.57 540.61 152.3 567.57 145.04 589.45C144.03 592.49 143.08 595.54 142.18 598.61H156.82V594.55H186.83V598.61H237.05C240.75 596.7 244.56 594.94 248.46 593.34L184.95 515.49ZM169.34 577.18V552.88H199.35V577.18H169.34Z" fill="#CFE5FF"/>
    <path d="M296.26 355.89C303.16 366.27 316.78 373.35 331.27 374.23C341.77 352.74 346.66 327.7 351.06 300.57L355.66 272.21L282.61 282.97C282.89 300.8 285.01 318.65 288.93 336.17C290.35 342.5 292.2 349.76 296.26 355.89ZM294.94 312.35C294.03 308.37 293.14 304.17 294.79 300.34C297.48 294.11 306.04 290.88 314.08 289.74C322.11 288.61 330.54 288.86 338.14 286.46C338.96 288.4 339.79 290.35 340.61 292.29L340.09 295.72C338.33 308.08 336.57 320.44 334.81 332.8C334.26 336.66 333.69 340.58 331.74 344.13C329.79 347.68 326.22 350.85 321.57 351.79C315.32 353.04 308.73 349.89 305.15 345.55C301.56 341.22 300.31 335.92 299.14 330.79C297.74 324.65 296.34 318.5 294.94 312.35Z" fill="#A3C7D3"/>
    <path d="M562.68 307.86L622.57 325.15C638.57 329.77 652.23 337.51 662.82 347.21L893.8 218.64L901.84 174.57L714.81 151.66L562.68 307.86ZM673.3 327.17L593.14 297.33L622.39 267.72L708.43 298.06L673.3 327.17ZM720.25 288.25L632.62 257.35L679.59 209.8L774.53 243.28L720.25 288.25ZM786.36 233.47L689.83 199.43L719.34 169.55L842.7 186.77L786.36 233.47Z" fill="#A3C7D3"/>
    <path d="M138.39 550.08C129.72 530.57 120.47 513.77 102.77 503.58C92.87 497.88 80.11 494.32 64.87 492.99C50.99 491.79 36.61 492.53 22.7 493.24L22.07 485.24C36.39 484.5 51.19 483.74 65.92 485.02C82.87 486.49 97.2 490.53 108.5 497.04C125.88 507.04 135.69 521.97 144.03 539.39C151.8 525.5 161.52 511.33 173.6 497.78L125.49 306.09L1.81 324.32V598.6H119.85C121.14 594.01 122.5 589.43 124.01 584.87C127.56 574.19 132.28 562.35 138.39 550.08ZM14.03 467.83V338.19H103.72V467.83H14.03ZM26.06 549.68V515.48H85.42V549.68H26.06ZM26.06 598.55V564.35H85.42V598.55H26.06Z" fill="#A3C7D3"/>
    <path d="M110.42 1.4H84.37C80.53 8.3 77.83 15.51 76.67 22.93C75.95 27.49 70.88 30.77 65.22 30.4L33.6 28.37C29.09 28.08 25.28 25.53 24.1 21.99L17.2 1.4H1.81V41.7L96.3 46.33C96.33 30.66 101.28 15.14 110.42 1.4Z" fill="#A3C7D3"/>
    <path d="M1.81 81.68V306.41L118.34 289.24L1.81 81.68ZM32.06 282.52L38.2 207.7C38.65 202.18 47.9 200.79 50.77 205.82L89.75 274.21C91.56 277.39 89.17 281.1 84.9 281.71L39.79 288.14C35.57 288.74 31.78 285.98 32.06 282.52Z" fill="#A3C7D3"/>
    <path d="M923.85 53.94L933.44 1.4H893.28L889.19 32.91L836.49 10.44V1.4H822.18V4.34L815.3 1.4H779.44C785.36 4.83 791.24 8.16 797.27 11.32C836.17 31.74 879.17 45.06 923.85 53.94Z" fill="#A3C7D3"/>
    <path d="M741.27 18.54C734.44 14.48 727.75 10.5 721.06 6.71V134.61L905.02 157.14L918.08 85.58C868.23 75.94 819.59 61.23 775.74 38.21C763.8 31.94 752.35 25.13 741.27 18.54ZM758.85 48.86C797.13 71.17 841.04 87.57 886.65 97.21C891.48 98.23 894.58 102.04 893.87 106.04L889.37 131.53C888.59 135.92 883.54 138.96 878.13 138.29L751.55 122.63C746.74 122.03 743.18 118.68 743.19 114.74L743.21 55.29C743.2 48.78 752.31 45.05 758.85 48.86Z" fill="#A3C7D3"/>
    <path d="M118.07 47.39L389.96 60.7L399.58 1.4H376.74L370.97 43.38L311.7 40.87V1.4H295.4V40.26L235.76 37.73L237.03 1.39H136C124.18 14.7 117.8 30.98 118.07 47.39Z" fill="#A3C7D3"/>
    <path d="M699.3 130.49V1.4H562.07V21.22H513.6V1.4H491.97V60.47L436.77 48L442.57 1.4H421.53L411.44 63.62L699.3 130.49ZM528.44 47.33H583.84V5.46H680.13V98.92L528.44 66.88V47.33Z" fill="#A3C7D3"/>
    <path d="M541.04 301.61L596.97 244.19V125.05L499.06 102.3L494.66 288.21L541.04 301.61ZM513.6 192.78V182.77V122.69L581.53 139.25V192.78H513.6ZM506.67 260.75V226.84H520.52V260.75H506.67ZM529.06 260.75V226.84H542.91V260.75H529.06ZM551.45 226.83H565.3V260.74H551.45V226.83Z" fill="#A3C7D3"/>
    <path d="M901.59 296.5L1078.19 233.94V102.98C1033.23 100.76 986.01 97.07 939.39 89.39L901.59 296.5ZM1001.96 181.76V237.65L941.69 251.67V181.76H1001.96ZM1018.78 158.2H947.63V130.7H1018.78V158.2Z" fill="#A3C7D3"/>
    <path d="M686.86 397.98C686.86 401.85 686.49 405.76 685.73 409.68C685.52 410.75 685.29 411.82 685.03 412.89C680.65 431.15 669.14 448.28 652.94 461.55C689.91 468.79 725.33 484.55 753.98 507.51C777.38 526.26 794.03 547.32 805.91 568.21C847.37 547.07 883.53 519.08 911.5 486.52L879.41 323.59L686.54 391.92C686.75 393.93 686.86 395.95 686.86 397.98ZM860.69 465.66L824.15 526.79L724.31 471.84L745.74 428.44L860.69 465.66ZM787.57 378.23L857.26 346.75C861.15 344.99 866.02 346.93 866.66 350.51L875.87 401.56C876.55 405.31 872.17 408.34 867.7 407.24L788.81 387.67C783.44 386.33 782.67 380.44 787.57 378.23Z" fill="#A3C7D3"/>
    <path d="M342.71 551.08C317 561.52 285.24 556.04 268.46 537.11C255.43 522.41 256.13 505.75 268.59 492.53C276.5 484.13 290.53 476.4 303.76 468.96L279.06 447.82C274.98 449.94 270.88 452.03 266.81 454.09C256.05 459.54 244.92 465.17 234.93 471.35C220.97 479.98 208.98 489.83 198.61 500.28L269.04 586.6C269.66 586.45 270.27 586.28 270.89 586.13C287.08 582.32 302.19 581.41 315.52 580.61C322.32 580.2 328.69 579.82 334.01 579.1C356.45 576.07 377.74 564.88 399.21 550.67L377.1 531.75C366.58 539.2 355.4 545.93 342.71 551.08ZM209.59 501.11L224.08 491.29L245 511.52L230.51 521.34L209.59 501.11Z" fill="#1FB24C"/>
    <g opacity="0.2">
    <path opacity="0.2" d="M342.71 551.08C317 561.52 285.24 556.04 268.46 537.11C255.43 522.41 256.13 505.75 268.59 492.53C276.5 484.13 290.53 476.4 303.76 468.96L279.06 447.82C274.98 449.94 270.88 452.03 266.81 454.09C256.05 459.54 244.92 465.17 234.93 471.35C220.97 479.98 208.98 489.83 198.61 500.28L269.04 586.6C269.66 586.45 270.27 586.28 270.89 586.13C287.08 582.32 302.19 581.41 315.52 580.61C322.32 580.2 328.69 579.82 334.01 579.1C356.45 576.07 377.74 564.88 399.21 550.67L377.1 531.75C366.58 539.2 355.4 545.93 342.71 551.08ZM209.59 501.11L224.08 491.29L245 511.52L230.51 521.34L209.59 501.11Z" fill="black"/>
    </g>
    <path d="M663.67 409.54C663.88 408.68 664.06 407.82 664.23 406.95C669.67 378.95 649.07 351.52 615.26 341.75L490.65 305.77C484.1 324.62 480.06 341.64 478.44 357.4L617.99 397.16C629.55 400.3 628.51 413.81 616.56 415.75C577.44 422.1 539.59 433.17 504.44 448.52C511.76 457.15 520.39 464.65 530.1 470.71C542.69 466.14 556.03 462.45 570.29 460.04C588.2 457.02 606.66 456.3 625.06 457.73C644.78 446.43 659.06 428.75 663.67 409.54Z" fill="#1FB24C"/>
    <g opacity="0.2">
    <path opacity="0.2" d="M663.67 409.54C663.88 408.68 664.06 407.82 664.23 406.95C669.67 378.95 649.07 351.52 615.26 341.75L490.65 305.77C484.1 324.62 480.06 341.64 478.44 357.4L617.99 397.16C629.55 400.3 628.51 413.81 616.56 415.75C577.44 422.1 539.59 433.17 504.44 448.52C511.76 457.15 520.39 464.65 530.1 470.71C542.69 466.14 556.03 462.45 570.29 460.04C588.2 457.02 606.66 456.3 625.06 457.73C644.78 446.43 659.06 428.75 663.67 409.54Z" fill="#1FB24C"/>
    </g>
    <g opacity="0.2">
    <g opacity="0.2">
    <path opacity="0.2" d="M663.67 409.54C663.88 408.68 664.06 407.82 664.23 406.95C669.67 378.95 649.07 351.52 615.26 341.75L490.65 305.77C484.1 324.62 480.06 341.64 478.44 357.4L617.99 397.16C629.55 400.3 628.51 413.81 616.56 415.75C577.44 422.1 539.59 433.17 504.44 448.52C511.76 457.15 520.39 464.65 530.1 470.71C542.69 466.14 556.03 462.45 570.29 460.04C588.2 457.02 606.66 456.3 625.06 457.73C644.78 446.43 659.06 428.75 663.67 409.54Z" fill="#1FB24C"/>
    </g>
    </g>
    <g opacity="0.2">
    <g opacity="0.2">
    <path opacity="0.2" d="M663.67 409.54C663.88 408.68 664.06 407.82 664.23 406.95C669.67 378.95 649.07 351.52 615.26 341.75L490.65 305.77C484.1 324.62 480.06 341.64 478.44 357.4L617.99 397.16C629.55 400.3 628.51 413.81 616.56 415.75C577.44 422.1 539.59 433.17 504.44 448.52C511.76 457.15 520.39 464.65 530.1 470.71C542.69 466.14 556.03 462.45 570.29 460.04C588.2 457.02 606.66 456.3 625.06 457.73C644.78 446.43 659.06 428.75 663.67 409.54Z" fill="black"/>
    </g>
    </g>
    <path d="M495.74 452.41C468.02 465.25 442.1 480.8 418.77 498.95C407.12 508.01 396.08 517.54 384.43 526.36L406.81 545.52C414.43 540.27 422.09 534.72 429.85 529.1C456.35 509.9 485.31 488.93 520.15 474.56C510.98 468.31 502.78 460.83 495.74 452.41Z" fill="#1FB24C"/>
    <g opacity="0.2">
    <path opacity="0.2" d="M495.74 452.41C468.02 465.25 442.1 480.8 418.77 498.95C407.12 508.01 396.08 517.54 384.43 526.36L406.81 545.52C414.43 540.27 422.09 534.72 429.85 529.1C456.35 509.9 485.31 488.93 520.15 474.56C510.98 468.31 502.78 460.83 495.74 452.41Z" fill="black"/>
    </g>
    <path d="M682.11 374.25L878.07 304.83L891.83 229.46L669.04 353.47C674.67 359.83 679.08 366.84 682.11 374.25ZM836.43 273.03L846.98 302.01L824.31 311.15L812.59 285.37L836.43 273.03ZM804.06 289.79L815.41 314.75L784.59 327.18L774.54 305.08L804.06 289.79Z" fill="#A3C7D3"/>
    <path d="M221.73 457.33C232.53 450.65 244.1 444.8 255.29 439.13C274.01 429.66 291.69 420.71 305.63 408.39C314.56 400.5 321.53 391.61 327.15 381.9C310.65 379.99 295.49 371.61 287.56 359.68C282.81 352.52 280.75 344.52 279.2 337.58C275.29 320.06 273.14 302.22 272.77 284.4L146.92 302.94L191.37 480C200.41 471.94 210.47 464.29 221.73 457.33ZM186.16 381.45L169.34 311.49H201.99V381.45H186.16ZM215.83 405.71V311.48H264.6L277.63 405.71H215.83ZM198.77 443.73L192.12 417.09H235.13V443.73H198.77Z" fill="#A3C7D3"/>
    <path d="M1012.84 42.98H975.78V1.4H955.44L945.14 57.84C988.97 65.17 1034.05 68.71 1078.18 70.9V1.4H1012.84V42.98Z" fill="#A3C7D3"/>
    <path d="M979.98 598.6H1003.24L979.62 596.49L979.98 598.6Z" fill="#A3C7D3"/>
    <path d="M978.21 588.3L1078.19 597.25V361.93L956.59 462.08L978.21 588.3Z" fill="#A3C7D3"/>
    <path d="M1050.22 291.62L954.03 325.64C942.42 329.74 935.61 339.6 937.35 349.76L954.88 452.07L1078.19 350.51V294.14C1070.33 289.49 1059.75 288.25 1050.22 291.62Z" fill="#CFE5FF"/>
    <path d="M741.27 18.54C752.34 25.13 763.8 31.94 775.73 38.2C819.58 61.22 868.22 75.93 918.07 85.57L923.84 53.94C879.15 45.06 836.16 31.74 797.25 11.32C791.22 8.16 785.34 4.84 779.42 1.4H721.05V6.71C727.75 10.5 734.45 14.48 741.27 18.54Z" fill="#CFE5FF"/>
    <path d="M939.38 89.39C986 97.07 1033.22 100.75 1078.18 102.98V70.89C1034.04 68.7 988.97 65.16 945.14 57.83L939.38 89.39Z" fill="#CFE5FF"/>
    <path d="M801.3 579.87L796.29 572.96C799.53 571.42 802.74 569.83 805.92 568.21C794.04 547.32 777.39 526.26 753.99 507.51C725.33 484.55 689.92 468.8 652.95 461.55C646.53 466.81 639.4 471.47 631.65 475.33L620.25 460.32C621.89 459.5 623.49 458.63 625.06 457.73C606.66 456.3 588.2 457.02 570.29 460.04C556.03 462.45 542.69 466.13 530.1 470.71C532.86 472.43 535.68 474.08 538.61 475.56L533.38 482.36C528.78 480.04 524.38 477.42 520.18 474.56C485.33 488.94 456.38 509.9 429.88 529.1C422.12 534.73 414.46 540.27 406.84 545.52L414.14 551.77L406.95 557.27L399.23 550.66C377.76 564.87 356.47 576.06 334.03 579.09C328.71 579.81 322.34 580.19 315.54 580.6C302.21 581.4 287.1 582.32 270.91 586.12C270.29 586.27 269.68 586.44 269.06 586.59L273.7 592.28L261.88 598.6H310.39C312.7 598.45 314.98 598.3 317.2 598.17C324.45 597.73 331.3 597.32 337.6 596.47C376.86 591.17 409.66 567.4 444.39 542.22C480.59 515.99 521.62 486.25 574.73 477.29C631.09 467.78 693.91 484.16 738.69 520.03C768.62 544.01 786.61 572.3 797.39 598.59H820.2C817.35 591.07 814 583.38 809.98 575.6C807.1 577.06 804.22 578.48 801.3 579.87Z" fill="#CFE5FF"/>
    <path d="M237.05 598.6H252.76L248.46 593.33C244.55 594.93 240.75 596.69 237.05 598.6Z" fill="#1FB24C"/>
    <path d="M574.72 477.3C521.61 486.26 480.58 515.99 444.38 542.23C409.65 567.41 376.84 591.18 337.59 596.48C331.29 597.33 324.44 597.74 317.19 598.18C314.97 598.31 312.69 598.46 310.38 598.61H404.02C463.32 567.09 510.33 511.9 580.58 500.05C629.91 491.73 682.69 507.87 718.51 536.57C740.21 553.95 756.09 575.42 766.86 598.62H797.39C786.61 572.33 768.62 544.04 738.69 520.06C693.91 484.17 631.08 467.79 574.72 477.3Z" fill="#CFE5FF"/>
    <path d="M580.57 500.04C510.32 511.89 463.31 567.08 404.01 598.6H766.85C756.07 575.41 740.19 553.94 718.5 536.55C682.68 507.86 629.9 491.72 580.57 500.04Z" fill="#A3C7D3"/>
    <path d="M401.28 61.26L402.43 61.52L411.44 63.62L421.52 1.4H399.57L389.96 60.7L401.28 61.26Z" fill="#CFE5FF"/>
    <path d="M397.58 78.73L387.12 78.22L358.64 253.85L369.89 252.19L380.37 255.21L408.57 81.29L397.58 78.73Z" fill="#CFE5FF"/>
    <path d="M184.95 515.49L174.99 503.28L173.61 497.8C161.53 511.34 151.81 525.51 144.04 539.41C145.99 543.49 147.87 547.7 149.74 552.02L140.41 554.67C139.74 553.13 139.07 551.6 138.4 550.09C132.29 562.36 127.57 574.2 124.02 584.88C122.51 589.44 121.15 594.02 119.86 598.61H142.18C143.08 595.55 144.03 592.49 145.04 589.45C152.3 567.57 164.57 540.61 184.95 515.49Z" fill="#1FB24C"/>
    <path d="M234.93 471.34C244.92 465.16 256.05 459.53 266.81 454.08C270.88 452.02 274.97 449.94 279.06 447.81L270.87 440.8L278.06 435.3L287.46 443.34C299.65 436.67 311.45 429.33 321.66 420.3C356.13 389.84 365.14 349.09 372.64 302.85L377.47 273.08L368.06 270.36L355.66 272.19L351.06 300.55C346.66 327.68 341.76 352.72 331.27 374.21C331.77 374.24 332.27 374.28 332.77 374.3L332.4 382.31C330.64 382.26 328.88 382.1 327.14 381.9C321.51 391.61 314.54 400.5 305.62 408.39C291.68 420.71 274 429.65 255.28 439.13C244.09 444.79 232.53 450.65 221.72 457.33C210.47 464.29 200.41 471.94 191.35 480.01L195.47 496.41L198.61 500.26C208.99 489.82 220.97 479.97 234.93 471.34Z" fill="#CFE5FF"/>
    <path d="M268.59 492.53C256.13 505.75 255.43 522.41 268.46 537.11C285.23 556.03 317 561.52 342.71 551.08C355.4 545.93 366.58 539.2 377.11 531.74L303.77 468.96C290.53 476.4 276.51 484.14 268.59 492.53Z" fill="#1FB24C"/>
    <g opacity="0.1">
    <path opacity="0.1" d="M268.59 492.53C256.13 505.75 255.43 522.41 268.46 537.11C285.23 556.03 317 561.52 342.71 551.08C355.4 545.93 366.58 539.2 377.11 531.74L303.77 468.96C290.53 476.4 276.51 484.14 268.59 492.53Z" fill="#1FB24C"/>
    </g>
    <g opacity="0.2">
    <g opacity="0.2">
    <path opacity="0.2" d="M268.59 492.53C256.13 505.75 255.43 522.41 268.46 537.11C285.23 556.03 317 561.52 342.71 551.08C355.4 545.93 366.58 539.2 377.11 531.74L303.77 468.96C290.53 476.4 276.51 484.14 268.59 492.53Z" fill="#1FB24C"/>
    </g>
    </g>
    <path d="M478.98 392.26C482.1 413.38 491.09 432.79 504.43 448.52C539.58 433.17 577.43 422.09 616.55 415.75C628.5 413.81 629.54 400.3 617.98 397.16L478.43 357.4C477.17 369.69 477.35 381.23 478.98 392.26Z" fill="#1FB24C"/>
    <path d="M393.65 362.14C383.75 397.15 357.45 431.42 325.97 455.25C322.01 458.25 317.16 461.26 311.93 464.3L346.78 494.13L471.38 404.24C470.49 400.62 469.71 396.95 469.16 393.22C467.23 380.18 467.41 367.18 468.83 354.67L433.13 344.5C416.11 339.65 397.68 347.89 393.65 362.14Z" fill="#1FB24C"/>
    <path d="M384.44 526.36C396.08 517.54 407.13 508.01 418.78 498.95C442.1 480.8 468.02 465.25 495.75 452.41C486.12 440.88 478.67 427.57 473.92 413.14L353.6 499.95L384.44 526.36Z" fill="#1FB24C"/>
    <path d="M140.43 285.99L13.51 59.93L1.81 59.36V81.68L118.35 289.24L140.43 285.99Z" fill="#CFE5FF"/>
    <path d="M269.04 586.59L198.61 500.27L195.47 496.41L191.35 480.01L146.91 302.95L125.49 306.11L173.61 497.8L174.98 503.28L184.95 515.49L248.45 593.33L252.76 598.6H261.87L273.68 592.28L269.04 586.59Z" fill="#CFE5FF"/>
    <path d="M685.73 409.69C686.49 405.77 686.86 401.86 686.86 397.99C686.86 395.96 686.75 393.93 686.55 391.92L680.34 394.12L671.62 377.97L682.11 374.25C679.08 366.83 674.67 359.83 669.05 353.47L659.85 358.59L654.25 351.99L662.83 347.21C652.23 337.51 638.58 329.77 622.58 325.15L562.69 307.86L549.53 321.38L532.44 310.46L541.06 301.61L494.67 288.21L494.57 292.23L495.56 292.48C493.79 297.01 492.16 301.43 490.66 305.76L615.27 341.74C649.08 351.5 669.68 378.94 664.24 406.94C664.07 407.81 663.88 408.68 663.68 409.53C659.07 428.73 644.8 446.42 625.07 457.72C623.5 458.62 621.9 459.49 620.26 460.31L631.66 475.32C639.41 471.46 646.55 466.79 652.96 461.54C669.16 448.28 680.67 431.15 685.05 412.88C685.29 411.83 685.52 410.76 685.73 409.69Z" fill="#CFE5FF"/>
    <path d="M146.91 302.95L272.76 284.41C272.7 281.4 272.67 278.4 272.71 275.4L282.6 275.48C282.57 277.97 282.57 280.46 282.61 282.96L355.66 272.2L368.06 270.37L377.47 273.09L481.29 303.07C482.5 299.64 483.7 296.36 484.89 293.25H484.64L484.83 285.38L380.37 255.21L369.89 252.18L358.64 253.84L280.56 265.34L282.14 272.01L272.43 273.52L270.83 266.77L140.43 285.98L118.35 289.23L1.81 306.41V324.32L125.49 306.1L146.91 302.95Z" fill="#CFE5FF"/>
    <path d="M898.96 310.9L900.02 316.29L1078.19 253.17V233.93L901.59 296.5L898.96 310.9Z" fill="#CFE5FF"/>
    <path d="M671.61 377.97L680.34 394.12L686.55 391.92L879.42 323.59L876.94 311L878.07 304.83L682.11 374.25L671.61 377.97Z" fill="#CFE5FF"/>
    <path d="M948.66 593.72L949.75 585.76L953.16 586.06L932.63 481.82L930.97 483.19L923.92 477.57L930.7 471.99L900.04 316.3L898.98 310.91L901.61 296.51L939.41 89.4L945.17 57.85L955.47 1.41H933.47L923.88 53.95L918.11 85.58L905.05 157.14L915.84 158.46L912.59 175.89L901.87 174.58L893.83 218.65L898 216.33L903.6 222.93L891.86 229.47L878.1 304.84L876.97 311.01L879.45 323.6L911.54 486.53C913.9 483.79 916.21 481.02 918.45 478.21L926.76 482.56C922.62 487.75 918.28 492.82 913.76 497.8L933.62 598.62H955.66L954.81 594.28L948.66 593.72Z" fill="#CFE5FF"/>
    <path d="M721.06 145.24L714.81 151.66L901.84 174.57L912.56 175.88L915.82 158.46L905.02 157.13L721.06 134.6V145.24Z" fill="#CFE5FF"/>
    <path d="M224.31 70.25L222.43 62.32L232.14 60.81L234.49 70.75L387.11 78.22L397.57 78.73L408.57 81.28L489.21 100.01L489.4 92.14L499.29 92.29L499.05 102.29L596.96 125.04V118.76H606.85V127.33L691.58 147.01L699.28 139.1V130.46L411.44 63.62L402.43 61.53L401.28 61.26L389.96 60.71L118.07 47.39C118.09 48.49 118.12 49.58 118.2 50.68L96.47 51.69C96.34 49.9 96.3 48.12 96.31 46.33L1.81 41.7V59.36L13.51 59.93L224.31 70.25Z" fill="#CFE5FF"/>
    <path d="M353.58 499.95L352.34 500.84L345.76 494.86L346.78 494.13L311.94 464.3L287.46 443.35L278.06 435.31L270.88 440.81L279.06 447.82L303.76 468.96L377.11 531.74L399.21 550.66L406.94 557.27L414.12 551.77L406.82 545.52L384.44 526.36L353.58 499.95Z" fill="#CFE5FF"/>
    <path d="M504.43 448.52C491.1 432.79 482.1 413.38 478.98 392.26C477.35 381.23 477.16 369.69 478.43 357.4C480.05 341.64 484.09 324.62 490.64 305.77C492.15 301.44 493.77 297.02 495.54 292.49L494.55 292.24L494.52 293.41L484.88 293.26C483.69 296.37 482.48 299.65 481.28 303.08C476.03 318.01 470.97 335.75 468.82 354.68C467.4 367.18 467.22 380.18 469.15 393.23C469.7 396.96 470.48 400.63 471.37 404.25L473.46 402.74L480.04 408.72L473.89 413.15C478.65 427.58 486.09 440.89 495.72 452.42C502.76 460.84 510.96 468.32 520.15 474.56C524.36 477.42 528.76 480.04 533.35 482.36L538.58 475.56C535.65 474.08 532.83 472.44 530.07 470.71C520.38 464.65 511.75 457.15 504.43 448.52Z" fill="#CFE5FF"/>
    <path d="M345.76 494.86L352.34 500.84L353.58 499.95L473.91 413.14L480.05 408.7L473.47 402.72L471.38 404.23L346.78 494.13L345.76 494.86Z" fill="#CFE5FF"/>
    <path d="M215.83 311.48V405.71H277.64L264.6 311.48H215.83Z" fill="#CFE5FF"/>
    <path d="M169.34 311.48L186.16 381.45H201.98V311.48H169.34Z" fill="#CFE5FF"/>
    <path d="M192.12 417.1L198.77 443.73H235.12V417.1H192.12Z" fill="#CFE5FF"/>
    <path d="M321.57 351.8C326.22 350.87 329.79 347.69 331.74 344.14C333.69 340.59 334.26 336.67 334.81 332.81C336.57 320.45 338.33 308.09 340.09 295.73L340.61 292.3C339.79 290.36 338.96 288.41 338.14 286.47C330.54 288.87 322.12 288.62 314.08 289.75C306.05 290.88 297.48 294.11 294.79 300.35C293.14 304.17 294.03 308.37 294.94 312.36C296.34 318.51 297.75 324.66 299.15 330.81C300.32 335.94 301.57 341.23 305.16 345.57C308.74 349.89 315.32 353.05 321.57 351.8Z" fill="#CFE5FF"/>
    <path d="M287.55 359.69C295.48 371.62 310.64 380 327.14 381.91C328.88 382.11 330.63 382.26 332.4 382.32L332.77 374.31C332.27 374.29 331.77 374.25 331.27 374.22C316.78 373.35 303.16 366.26 296.26 355.88C292.19 349.75 290.34 342.49 288.93 336.15C285.02 318.63 282.89 300.78 282.61 282.95C282.57 280.46 282.57 277.96 282.6 275.47L272.71 275.39C272.67 278.39 272.7 281.4 272.76 284.4C273.13 302.22 275.28 320.06 279.19 337.58C280.75 344.53 282.8 352.53 287.55 359.69Z" fill="#CFE5FF"/>
    <path d="M103.72 338.19H14.03V467.83H103.72V338.19Z" fill="#CFE5FF"/>
    <path d="M85.42 515.48H26.06V549.68H85.42V515.48Z" fill="#CFE5FF"/>
    <path d="M85.42 564.35H26.06V598.55H85.42V564.35Z" fill="#CFE5FF"/>
    <path d="M108.5 497.06C97.2 490.56 82.87 486.51 65.92 485.04C51.2 483.76 36.39 484.52 22.07 485.26L22.7 493.26C36.6 492.54 50.98 491.8 64.87 493.01C80.12 494.33 92.87 497.89 102.77 503.6C120.48 513.79 129.72 530.59 138.39 550.1C139.06 551.61 139.73 553.14 140.4 554.68L149.73 552.03C147.86 547.71 145.98 543.5 144.03 539.42C135.69 521.99 125.88 507.06 108.5 497.06Z" fill="#CFE5FF"/>
    <path d="M224.08 491.28L209.59 501.11L230.5 521.34L245 511.52L224.08 491.28Z" fill="#CFE5FF"/>
    <path d="M232.15 60.81L222.44 62.32L224.31 70.25L270.83 266.78L272.43 273.53L282.14 272.02L280.56 265.35L234.5 70.75L232.15 60.81Z" fill="#CFE5FF"/>
    <path d="M96.47 51.69L118.2 50.68C118.12 49.58 118.09 48.49 118.07 47.39C117.8 30.98 124.18 14.7 136 1.4H110.42C101.27 15.14 96.33 30.66 96.3 46.33C96.3 48.11 96.34 49.9 96.47 51.69Z" fill="#CFE5FF"/>
    <path d="M699.3 139.12L691.6 147.03L606.86 234.03V253.34H596.97V244.19L541.04 301.61L532.42 310.46L549.51 321.38L562.68 307.86L714.81 151.66L721.06 145.24V134.6V6.71V1.4H699.3V130.49V139.12Z" fill="#CFE5FF"/>
    <path d="M743.2 55.3L743.18 114.75C743.18 118.69 746.73 122.04 751.54 122.64L878.12 138.3C883.54 138.97 888.59 135.93 889.36 131.54L893.86 106.05C894.57 102.05 891.47 98.24 886.64 97.22C841.03 87.58 797.12 71.18 758.84 48.87C752.31 45.05 743.2 48.78 743.2 55.3Z" fill="#CFE5FF"/>
    <path d="M33.59 28.37L65.21 30.4C70.87 30.76 75.95 27.49 76.66 22.93C77.83 15.51 80.53 8.3 84.36 1.4H17.2L24.09 21.99C25.27 25.53 29.07 28.08 33.59 28.37Z" fill="#CFE5FF"/>
    <path d="M805.92 568.21C802.74 569.83 799.53 571.42 796.29 572.96L801.3 579.87C804.21 578.48 807.1 577.06 809.97 575.61C850.18 555.28 885.6 528.69 913.73 497.78C918.25 492.81 922.6 487.73 926.73 482.54L918.42 478.19C916.18 481 913.86 483.77 911.51 486.51C883.54 519.09 847.38 547.07 805.92 568.21Z" fill="#CFE5FF"/>
    <path d="M494.56 292.23L494.65 288.22L499.06 102.31L499.29 92.31L489.4 92.15L489.22 100.02L484.83 285.38L484.64 293.25H484.9L494.53 293.4L494.56 292.23Z" fill="#CFE5FF"/>
    <path d="M298.54 181.17H356.47L368.98 92.23L298.54 89.59V181.17Z" fill="#1FB24C"/>
    <path d="M298.54 181.17H356.47L368.98 92.23L298.54 89.59V181.17Z" fill="#1FB24C"/>
    <g opacity="0.1">
    <path opacity="0.1" d="M298.54 181.17H356.47L368.98 92.23L298.54 89.59V181.17Z" fill="black"/>
    </g>
    <path d="M353.01 197.99H285.25V235.64H353.01V197.99Z" fill="#1FB24C"/>
    <g opacity="0.1">
    <path opacity="0.1" d="M353.01 197.99H285.25V235.64H353.01V197.99Z" fill="black"/>
    </g>
    <path d="M238.39 238.45L226.99 204.59H113.41L136.67 246.14L238.39 238.45Z" fill="#1FB24C"/>
    <g opacity="0.1">
    <path opacity="0.1" d="M238.39 238.45L226.99 204.59H113.41L136.67 246.14L238.39 238.45Z" fill="black"/>
    </g>
    <path d="M119.35 179.38H238.55L208.32 89.59L65.2 82.63L119.35 179.38Z" fill="#1FB24C"/>
    <path d="M119.35 179.38H238.55L208.32 89.59L65.2 82.63L119.35 179.38Z" fill="#1FB24C"/>
    <g opacity="0.1">
    <path opacity="0.1" d="M119.35 179.38H238.55L208.32 89.59L65.2 82.63L119.35 179.38Z" fill="black"/>
    </g>
    <path d="M199.35 552.88H169.34V577.18H199.35V552.88Z" fill="#CFE5FF"/>
    <path d="M186.83 594.54H156.82V598.6H186.83V594.54Z" fill="#CFE5FF"/>
    <path d="M680.12 98.92V5.46H583.84V47.33H528.44V66.88L680.12 98.92Z" fill="#CFE5FF"/>
    <path d="M491.97 60.47V1.4H442.56L436.77 48L491.97 60.47Z" fill="#CFE5FF"/>
    <path d="M562.07 1.4H513.6V21.22H562.07V1.4Z" fill="#CFE5FF"/>
    <path d="M39.78 288.14L84.89 281.71C89.15 281.1 91.55 277.39 89.74 274.21L50.76 205.82C47.9 200.79 38.64 202.18 38.19 207.7L32.05 282.52C31.78 285.98 35.57 288.74 39.78 288.14Z" fill="#CFE5FF"/>
    <path d="M593.14 297.33L673.3 327.17L708.42 298.06L622.38 267.72L593.14 297.33Z" fill="#CFE5FF"/>
    <path d="M632.62 257.35L720.25 288.25L774.52 243.27L679.59 209.8L632.62 257.35Z" fill="#CFE5FF"/>
    <path d="M689.83 199.43L786.36 233.47L842.69 186.78L719.34 169.55L689.83 199.43Z" fill="#CFE5FF"/>
    <path d="M1001.96 237.65V181.76H941.69V251.67L1001.96 237.65Z" fill="#CFE5FF"/>
    <path d="M1018.78 130.7H947.63V158.2H1018.78V130.7Z" fill="#CFE5FF"/>
    <path d="M469.35 112.81H424.83V231.64H469.35V112.81Z" fill="#CFE5FF"/>
    <path d="M408.74 224.43H395.88V247.4H408.74V224.43Z" fill="#CFE5FF"/>
    <path d="M513.6 122.69V182.77V192.78H581.53V139.24L513.6 122.69Z" fill="#CFE5FF"/>
    <path d="M520.52 226.83H506.67V260.74H520.52V226.83Z" fill="#CFE5FF"/>
    <path d="M542.91 226.83H529.06V260.74H542.91V226.83Z" fill="#CFE5FF"/>
    <path d="M565.3 226.83H551.45V260.74H565.3V226.83Z" fill="#CFE5FF"/>
    <path d="M596.97 253.34H606.86V234.03V127.35V118.77H596.97V125.05V244.19V253.34Z" fill="#CFE5FF"/>
    <path d="M867.69 407.23C872.16 408.34 876.53 405.3 875.86 401.55L866.65 350.5C866.01 346.93 861.14 344.98 857.25 346.74L787.56 378.22C782.66 380.43 783.43 386.32 788.8 387.65L867.69 407.23Z" fill="#CFE5FF"/>
    <path d="M295.4 40.26V1.4H237.03L235.76 37.74L295.4 40.26Z" fill="#CFE5FF"/>
    <path d="M370.96 43.38L376.73 1.4H311.69V40.87L370.96 43.38Z" fill="#CFE5FF"/>
    <path d="M822.18 1.4H815.3L822.18 4.34V1.4Z" fill="#CFE5FF"/>
    <path d="M889.19 32.91L893.28 1.4H836.49V10.44L889.19 32.91Z" fill="#CFE5FF"/>
    <path d="M930.69 471.98L923.91 477.56L930.96 483.18L932.62 481.82L956.59 462.08L1078.19 361.93V350.5L954.87 452.06L930.69 471.98Z" fill="#CFE5FF"/>
    <path d="M953.15 586.06L949.74 585.75L948.66 593.72L954.77 594.26L979.62 596.49L1003.24 598.6H1078.19V597.25L978.21 588.3L953.15 586.06Z" fill="#CFE5FF"/>
    <path d="M654.24 351.99L659.84 358.59L669.04 353.47L891.82 229.46L903.57 222.92L897.96 216.32L893.8 218.64L662.82 347.21L654.24 351.99Z" fill="#CFE5FF"/>
    <path d="M1012.84 1.4H975.78V42.98H1012.84V1.4Z" fill="#CFE5FF"/>
    <path d="M908.31 563.57H853.9V598.61H908.31V563.57Z" fill="#CFE5FF"/>
    <path d="M824.15 526.79L860.69 465.66L745.74 428.44L724.31 471.85L824.15 526.79Z" fill="#CFE5FF"/>
    <path d="M846.98 302.01L836.43 273.03L812.59 285.37L824.31 311.15L846.98 302.01Z" fill="#CFE5FF"/>
    <path d="M815.4 314.74L804.06 289.79L774.52 305.07L784.58 327.17L815.4 314.74Z" fill="#CFE5FF"/>
    </g>
    </svg>
    