<svg width="94" height="23" viewBox="0 0 94 23" fill="none" xmlns="http://www.w3.org/2000/svg">
<rect y="1.74573" width="6.84615" height="7.22649" fill="#A6FE38"/>
<rect x="6.84607" y="1.74573" width="6.46581" height="7.22649" fill="#2ED47A"/>
<rect x="13.312" y="1.74573" width="6.84615" height="7.22649" fill="#8EFF00"/>
<rect y="15.438" width="6.84615" height="7.22649" fill="#A6FE38"/>
<rect x="6.84607" y="15.438" width="6.46581" height="7.22649" fill="#2ED47A"/>
<rect x="13.312" y="15.438" width="6.84615" height="7.22649" fill="#8EFF00"/>
<rect y="8.97223" width="6.84615" height="6.46581" fill="#13247A"/>
<rect x="6.84607" y="8.97223" width="6.46581" height="6.46581" fill="#7BDAFF"/>
<rect x="13.312" y="8.97223" width="6.84615" height="6.46581" fill="#1FB24C"/>
<path d="M41.8439 3.55999V11.1542C41.8423 11.3735 41.7968 11.5903 41.7102 11.7918C41.6235 11.9933 41.4975 12.1755 41.3395 12.3276C41.1935 12.4904 41.0151 12.6209 40.8157 12.7107C40.6163 12.8005 40.4003 12.8476 40.1817 12.849H35.9119C34.8038 12.849 34.2497 13.2184 34.2497 13.9572V20.2485C34.2446 20.6959 34.0634 21.1234 33.7453 21.4381C33.6015 21.6048 33.4239 21.7389 33.2243 21.8315C33.0246 21.9241 32.8075 21.9731 32.5874 21.9751H30.0778V1.83255H40.1855C40.405 1.83492 40.6215 1.88412 40.8205 1.97686C41.0194 2.0696 41.1963 2.20375 41.3393 2.37033C41.6573 2.68519 41.8385 3.11254 41.8439 3.55999V3.55999ZM37.8342 9.36158V5.58154C37.8526 5.35478 37.7901 5.12882 37.6577 4.94382C37.5253 4.75882 37.3315 4.62677 37.1109 4.57115C36.6704 4.46163 36.2162 4.4177 35.7629 4.44078C34.6449 4.44078 34.0859 4.82103 34.0859 5.58154V9.36235C34.0859 10.1446 34.7544 10.5357 36.0914 10.5357C37.2532 10.5352 37.8342 10.1438 37.8342 9.36158ZM47.2536 3.4948C47.2536 4.64591 46.4452 5.22146 44.8285 5.22146C43.7723 5.22146 43.2442 4.33058 43.2442 2.54882C43.2442 1.39771 44.0526 0.822156 45.6693 0.822156C46.726 0.822156 47.2544 1.71304 47.2544 3.4948H47.2536ZM47.2544 21.9751H43.2454V9.03487C43.2365 8.78644 43.2854 8.53934 43.3884 8.31309C43.4914 8.08683 43.6455 7.8876 43.8387 7.73114C44.2303 7.40655 44.7254 7.23309 45.234 7.24224C45.7482 7.22767 46.25 7.40154 46.645 7.73114C46.8341 7.89014 46.9845 8.09025 47.0845 8.3162C47.1845 8.54214 47.2316 8.78795 47.2222 9.03487L47.2544 21.9751ZM56.849 14.3916L60.1939 19.106C60.4041 19.3888 60.5183 19.7314 60.5198 20.0838C60.5162 20.3705 60.448 20.6526 60.3204 20.9094C60.1928 21.1661 60.0089 21.3908 59.7826 21.5668C59.3493 21.9675 58.7832 22.1938 58.1931 22.2023C57.9226 22.2126 57.6539 22.1534 57.4128 22.0304C57.1716 21.9073 56.966 21.7245 56.8156 21.4994L54.1676 17.7217L50.7418 21.9751C50.6454 22.109 50.5179 22.2175 50.3703 22.2913C50.2227 22.3651 50.0594 22.402 49.8944 22.3989C49.5214 22.3885 49.1661 22.2371 48.9003 21.9751C48.7546 21.8569 48.6367 21.7081 48.5549 21.5392C48.4731 21.3703 48.4294 21.1856 48.427 20.9979C48.4317 20.7464 48.5243 20.5045 48.6887 20.3141L52.5882 15.4709L49.175 10.6013C49.0055 10.3509 48.9154 10.0551 48.9166 9.75269C48.9166 9.20947 49.1719 8.71495 49.6826 8.26912C50.1188 7.85388 50.6939 7.61572 51.2959 7.60096C51.5618 7.59463 51.8247 7.65746 52.0589 7.78329C52.2932 7.90913 52.4908 8.09365 52.6323 8.31879L55.3121 12.1425L58.5326 8.0918C58.6391 7.96312 58.7738 7.86077 58.9264 7.79276C59.0789 7.72475 59.2451 7.6929 59.412 7.69971C59.596 7.70482 59.7772 7.74641 59.945 7.82208C60.1128 7.89774 60.264 8.00598 60.3896 8.14049C60.5257 8.25571 60.6365 8.39784 60.715 8.55793C60.7935 8.71802 60.838 8.89263 60.8457 9.07076C60.8411 9.3226 60.7489 9.56496 60.585 9.75619L56.849 14.3916ZM73.9156 14.4731C73.9156 15.4764 73.5337 15.978 72.7698 15.978H69.5945C68.3071 15.9997 67.2486 15.9997 66.4192 15.978V18.0966C66.4258 18.2583 66.4725 18.416 66.5549 18.5553C66.6374 18.6947 66.7531 18.8114 66.8918 18.8951C67.157 19.1054 67.4825 19.2253 67.8207 19.2373H72.7749C73.5354 19.2373 73.9156 19.7153 73.9156 20.6714C73.9156 21.5406 73.547 21.9751 72.8098 21.9751H64.1978C63.7456 21.9585 63.3162 21.7723 62.995 21.4537C62.8174 21.3129 62.673 21.1348 62.572 20.932C62.4709 20.7293 62.4156 20.5068 62.41 20.2803V9.10083C62.4151 8.65336 62.5963 8.22593 62.9144 7.91118C63.058 7.74447 63.2355 7.61028 63.435 7.51754C63.6345 7.42481 63.8515 7.37567 64.0715 7.37339H72.7087C72.8685 7.37278 73.0266 7.406 73.1727 7.47087C73.3188 7.53573 73.4494 7.63078 73.5561 7.74976C73.6679 7.85837 73.7571 7.98797 73.8186 8.13113C73.8801 8.27429 73.9127 8.42819 73.9146 8.58399L73.9156 14.4731ZM71.08 11.089C71.0824 10.9445 71.0561 10.8009 71.0025 10.6666C70.949 10.5323 70.8693 10.41 70.768 10.3068C70.6722 10.2024 70.5554 10.1193 70.4253 10.0632C70.2952 10.007 70.1547 9.97895 70.013 9.98085C69.7176 9.98085 69.3619 9.96998 68.9459 9.94825H68.0923C67.4578 9.94825 67.0201 10.0828 66.7795 10.3518C66.5388 10.6208 66.4184 11.2287 66.4184 12.1755V13.305H71.0482L71.08 11.089ZM79.4239 21.9751H75.5779V2.35404C75.5723 2.11907 75.6243 1.88631 75.7294 1.67609C75.8345 1.46587 75.9895 1.28459 76.1808 1.14809C76.5785 0.845293 77.0663 0.684623 77.5661 0.691783C78.0528 0.672105 78.5293 0.834829 78.9024 1.14809C79.0783 1.30793 79.2163 1.50495 79.3065 1.72483C79.3967 1.9447 79.4368 2.18191 79.4239 2.41922V21.9751ZM92.5263 20.0847C92.5222 20.5299 92.346 20.9562 92.0347 21.2744C91.8888 21.4443 91.7076 21.5804 91.5038 21.6732C91.2999 21.7661 91.0784 21.8135 90.8544 21.8122H82.1683C82.0207 21.8093 81.8752 21.7772 81.7402 21.7177C81.6051 21.6583 81.4831 21.5726 81.3814 21.4657C81.2679 21.3638 81.177 21.2392 81.1148 21.0999C81.0526 20.9606 81.0203 20.8098 81.0202 20.6573C81.0202 19.6456 81.4055 19.1397 82.1762 19.1395H87.3937C88.1423 19.1395 88.5166 18.5698 88.5166 17.4303C88.5196 17.2566 88.4845 17.0844 88.4138 16.9257C88.3432 16.767 88.2386 16.6257 88.1074 16.5117C87.8346 16.2645 87.4771 16.1317 87.1091 16.141H82.1342C81.982 16.1403 81.832 16.1047 81.6957 16.0369C81.5595 15.9691 81.4407 15.8709 81.3484 15.7498C81.1405 15.5162 81.0241 15.2152 81.0209 14.9024V9.1016C81.0265 8.65353 81.209 8.22585 81.5288 7.91195C81.6737 7.745 81.8524 7.61073 82.0531 7.51802C82.2538 7.42531 82.4718 7.37627 82.6929 7.37417H91.379C91.5295 7.37376 91.6784 7.40431 91.8166 7.46392C91.9548 7.52353 92.0792 7.61092 92.1822 7.72066C92.2915 7.82494 92.3784 7.95041 92.4376 8.08941C92.4968 8.2284 92.5271 8.37801 92.5265 8.52909C92.5265 9.54077 92.1412 10.0466 91.3704 10.0466H86.1528C85.4042 10.0466 85.0299 10.6163 85.0299 11.7558C85.0275 11.9311 85.0645 12.1046 85.1381 12.2636C85.2118 12.4227 85.3202 12.5631 85.4554 12.6746C85.725 12.9165 86.0753 13.0487 86.4374 13.0454H91.4131C91.5683 13.0423 91.722 13.0761 91.8615 13.1441C92.001 13.2121 92.1224 13.3124 92.2155 13.4365C92.4143 13.6744 92.524 13.974 92.526 14.2839L92.5263 20.0847Z" fill="#0E3263"/>
<path d="M42.814 3.17198V10.7662C42.8123 10.9855 42.7669 11.2023 42.6803 11.4038C42.5936 11.6053 42.4676 11.7875 42.3096 11.9396C42.1636 12.1024 41.9852 12.2329 41.7858 12.3227C41.5864 12.4125 41.3704 12.4596 41.1517 12.461H36.882C35.7739 12.461 35.2198 12.8304 35.2198 13.5692V19.8605C35.2147 20.3079 35.0335 20.7354 34.7154 21.0501C34.5716 21.2168 34.394 21.3509 34.1944 21.4435C33.9947 21.5361 33.7776 21.5851 33.5575 21.5871H31.0479V1.44455H41.1556C41.3751 1.44692 41.5916 1.49612 41.7906 1.58886C41.9895 1.6816 42.1664 1.81575 42.3094 1.98233C42.6274 2.29719 42.8086 2.72454 42.814 3.17198V3.17198ZM38.8043 8.97357V5.19354C38.8227 4.96678 38.7602 4.74081 38.6278 4.55582C38.4953 4.37082 38.3016 4.23877 38.081 4.18315C37.6405 4.07363 37.1863 4.0297 36.733 4.05278C35.615 4.05278 35.056 4.43303 35.056 5.19354V8.97435C35.056 9.75659 35.7245 10.1477 37.0615 10.1477C38.2233 10.1472 38.8043 9.75581 38.8043 8.97357ZM48.2237 3.1068C48.2237 4.25791 47.4153 4.83346 45.7986 4.83346C44.7424 4.83346 44.2143 3.94258 44.2143 2.16082C44.2143 1.00971 45.0227 0.434156 46.6394 0.434156C47.6961 0.434156 48.2245 1.32504 48.2245 3.1068H48.2237ZM48.2245 21.5871H44.2155V8.64687C44.2066 8.39844 44.2555 8.15134 44.3585 7.92508C44.4615 7.69883 44.6156 7.4996 44.8088 7.34314C45.2004 7.01855 45.6955 6.84509 46.2041 6.85424C46.7183 6.83967 47.2201 7.01354 47.6151 7.34314C47.8042 7.50214 47.9546 7.70225 48.0546 7.9282C48.1546 8.15414 48.2017 8.39995 48.1923 8.64687L48.2245 21.5871ZM57.8191 14.0036L61.164 18.718C61.3742 19.0008 61.4884 19.3434 61.4899 19.6958C61.4863 19.9825 61.4181 20.2646 61.2905 20.5214C61.1628 20.7781 60.979 21.0028 60.7527 21.1788C60.3194 21.5795 59.7533 21.8058 59.1632 21.8143C58.8926 21.8246 58.624 21.7654 58.3829 21.6424C58.1417 21.5193 57.9361 21.3365 57.7857 21.1114L55.1377 17.3337L51.7119 21.5871C51.6155 21.721 51.488 21.8295 51.3404 21.9033C51.1928 21.9771 51.0295 22.014 50.8645 22.0109C50.4915 22.0005 50.1362 21.8491 49.8704 21.5871C49.7247 21.4689 49.6068 21.3201 49.525 21.1512C49.4432 20.9823 49.3995 20.7975 49.397 20.6099C49.4018 20.3584 49.4944 20.1165 49.6588 19.9261L53.5583 15.0829L50.1451 10.2133C49.9755 9.96288 49.8855 9.66712 49.8867 9.36469C49.8867 8.82147 50.142 8.32695 50.6527 7.88112C51.0889 7.46588 51.664 7.22772 52.266 7.21296C52.5319 7.20663 52.7948 7.26946 53.029 7.39529C53.2633 7.52113 53.4608 7.70565 53.6023 7.93079L56.2822 11.7545L59.5027 7.7038C59.6092 7.57511 59.7439 7.47277 59.8965 7.40476C60.049 7.33675 60.2152 7.3049 60.3821 7.31171C60.5661 7.31682 60.7473 7.35841 60.9151 7.43408C61.0829 7.50974 61.2341 7.61797 61.3597 7.75249C61.4958 7.86771 61.6066 8.00984 61.6851 8.16993C61.7636 8.33002 61.8081 8.50463 61.8158 8.68276C61.8112 8.9346 61.719 9.17696 61.5551 9.36819L57.8191 14.0036ZM74.8857 14.0851C74.8857 15.0884 74.5038 15.59 73.7399 15.59H70.5646C69.2772 15.6117 68.2187 15.6117 67.3893 15.59V17.7086C67.3959 17.8703 67.4425 18.028 67.525 18.1673C67.6075 18.3067 67.7232 18.4234 67.8619 18.5071C68.1271 18.7174 68.4526 18.8373 68.7908 18.8493H73.7449C74.5055 18.8493 74.8857 19.3273 74.8857 20.2834C74.8857 21.1526 74.5171 21.5871 73.7799 21.5871H65.1679C64.7157 21.5705 64.2863 21.3843 63.965 21.0657C63.7875 20.9249 63.6431 20.7468 63.5421 20.544C63.441 20.3413 63.3857 20.1188 63.3801 19.8923V8.71283C63.3852 8.26536 63.5664 7.83793 63.8845 7.52318C64.0281 7.35647 64.2056 7.22228 64.4051 7.12954C64.6046 7.03681 64.8216 6.98767 65.0416 6.98539H73.6788C73.8386 6.98478 73.9967 7.018 74.1428 7.08286C74.2888 7.14773 74.4195 7.24278 74.5262 7.36176C74.638 7.47037 74.7271 7.59997 74.7887 7.74313C74.8502 7.88629 74.8828 8.04018 74.8847 8.19599L74.8857 14.0851ZM72.0501 10.701C72.0525 10.5565 72.0262 10.4129 71.9726 10.2786C71.9191 10.1443 71.8394 10.022 71.7381 9.91878C71.6423 9.81435 71.5255 9.73134 71.3954 9.67517C71.2653 9.619 71.1248 9.59095 70.9831 9.59285C70.6877 9.59285 70.332 9.58198 69.916 9.56025H69.0624C68.4279 9.56025 67.9902 9.69476 67.7495 9.96379C67.5088 10.2328 67.3885 10.8407 67.3885 11.7875V12.917H72.0183L72.0501 10.701ZM80.394 21.5871H76.548V1.96604C76.5424 1.73107 76.5944 1.49831 76.6995 1.28809C76.8046 1.07787 76.9596 0.896593 77.1509 0.760088C77.5486 0.457292 78.0364 0.296622 78.5361 0.303782C79.0229 0.284105 79.4994 0.446829 79.8725 0.760088C80.0483 0.919934 80.1864 1.11695 80.2766 1.33683C80.3668 1.5567 80.4069 1.79391 80.394 2.03122V21.5871ZM93.4964 19.6967C93.4923 20.1419 93.3161 20.5682 93.0048 20.8864C92.8588 21.0563 92.6777 21.1924 92.4739 21.2852C92.27 21.3781 92.0485 21.4255 91.8245 21.4242H83.1384C82.9908 21.4213 82.8453 21.3892 82.7102 21.3297C82.5752 21.2703 82.4532 21.1846 82.3515 21.0777C82.238 20.9758 82.1471 20.8512 82.0849 20.7119C82.0227 20.5726 81.9904 20.4218 81.9903 20.2693C81.9903 19.2576 82.3756 18.7517 83.1463 18.7515H88.3638C89.1124 18.7515 89.4867 18.1818 89.4867 17.0423C89.4897 16.8686 89.4546 16.6964 89.3839 16.5377C89.3132 16.379 89.2087 16.2377 89.0775 16.1237C88.8047 15.8765 88.4472 15.7437 88.0792 15.753H83.1042C82.9521 15.7523 82.8021 15.7167 82.6658 15.6489C82.5296 15.5811 82.4108 15.4829 82.3185 15.3618C82.1106 15.1282 81.9942 14.8272 81.991 14.5144V8.7136C81.9965 8.26553 82.1791 7.83785 82.4989 7.52395C82.6438 7.357 82.8225 7.22273 83.0232 7.13002C83.2239 7.03731 83.4419 6.98827 83.663 6.98616H92.3491C92.4996 6.98576 92.6485 7.01631 92.7867 7.07592C92.9249 7.13553 93.0493 7.22292 93.1523 7.33266C93.2616 7.43694 93.3485 7.56241 93.4077 7.70141C93.4669 7.8404 93.4972 7.99001 93.4966 8.14109C93.4966 9.15277 93.1113 9.65861 92.3405 9.65861H87.1229C86.3743 9.65861 86 10.2283 86 11.3678C85.9976 11.5431 86.0346 11.7166 86.1082 11.8756C86.1818 12.0347 86.2903 12.1751 86.4255 12.2866C86.695 12.5285 87.0454 12.6607 87.4075 12.6574H92.3832C92.5384 12.6543 92.6921 12.6881 92.8316 12.7561C92.9711 12.8241 93.0925 12.9244 93.1856 13.0485C93.3844 13.2864 93.4941 13.586 93.496 13.8959L93.4964 19.6967Z" fill="#2ED47A"/>
</svg>
