<svg width="141" height="144" viewBox="0 0 141 144" fill="none" xmlns="http://www.w3.org/2000/svg">
	<path opacity="0.6" d="M25.4888 73.7527L14.1205 67.186L23.1548 61.9721L34.5231 68.533L25.4888 73.7527Z" fill="#041860"/>
	<path d="M25.9359 76.2204L9.84711 66.9306L22.7135 59.5046L38.8022 68.7944L25.9359 76.2204ZM10.6193 66.9306L25.9359 75.7733L38.0242 68.7944L22.7077 59.9517L10.6193 66.9306Z" fill="white"/>
	<path d="M25.4888 58.5698L14.1205 52.0089L23.1548 46.7892L34.5231 53.3559L25.4888 58.5698Z" fill="url(#paint0_linear)"/>
	<path d="M34.5231 60.3987V53.3559L25.4888 58.5698V65.6126L34.5231 60.3987Z" fill="url(#paint1_linear)"/>
	<path d="M14.1205 52.0088V59.0516L25.4888 65.6125V58.5697L14.1205 52.0088Z" fill="url(#paint2_linear)"/>
	<path d="M21.111 50.36L16.1874 53.205V54.7262L17.6506 55.5681V54.0469L22.5742 51.2077L21.111 50.36Z" fill="white"/>
	<path d="M24.2406 52.1656L19.317 55.0048V56.5318L20.7744 57.3737V55.8525L25.698 53.0075L24.2406 52.1656Z" fill="white"/>
	<path d="M27.3701 53.9713L22.4465 56.8163V58.3375L23.9097 59.1794V57.6582L28.8275 54.819L27.3701 53.9713Z" fill="white"/>
	<path d="M21.111 50.36V50.9754L22.0516 51.5038L22.5741 51.2077L21.111 50.36Z" fill="#A9EBFF"/>
	<path d="M16.7217 54.4127L16.1875 54.7263L17.6506 55.5681V54.9353L16.7217 54.4127Z" fill="#A9EBFF"/>
	<path d="M21.111 50.36L16.1874 53.205V54.7262L16.7216 54.4127V53.5127L21.1168 50.9755L21.111 50.36Z" fill="url(#paint3_linear)"/>
	<path d="M24.2406 52.1657V52.7811L25.1754 53.3095L25.698 53.0076L24.2406 52.1657Z" fill="#A9EBFF"/>
	<path d="M19.8454 56.2183L19.3171 56.5318L20.7744 57.3737V56.7408L19.8454 56.2183Z" fill="#A9EBFF"/>
	<path d="M24.2406 52.1656L19.317 55.0048V56.5318L19.8454 56.2183V55.3183L24.2406 52.7811V52.1656Z" fill="url(#paint4_linear)"/>
	<path d="M27.37 53.9713V54.5868L28.3048 55.1151L28.8274 54.819L27.37 53.9713Z" fill="#A9EBFF"/>
	<path d="M22.9748 58.0241L22.4465 58.3376L23.9096 59.1795V58.5466L22.9748 58.0241Z" fill="#A9EBFF"/>
	<path d="M27.3701 53.9713L22.4465 56.8163V58.3375L22.9749 58.024V57.1241L27.3701 54.5868V53.9713Z" fill="url(#paint5_linear)"/>
	<g filter="url(#filter0_d)">
	<path d="M84.5253 136C71.1887 136 57.8578 133.068 47.7029 127.21C37.8325 121.508 32.3922 113.919 32.3922 105.837C32.3922 97.7551 37.8267 90.1665 47.7029 84.4649C68.0011 72.7424 101.038 72.7424 121.342 84.4649C131.212 90.1665 136.653 97.7551 136.653 105.837C136.653 113.919 131.218 121.508 121.342 127.21C111.193 133.068 97.8561 135.994 84.5253 136ZM84.5253 76.0577C71.2583 76.0577 57.9972 78.9724 47.9003 84.8017C38.1519 90.4278 32.787 97.9003 32.787 105.837C32.787 113.774 38.1519 121.247 47.9003 126.873C68.094 138.531 100.957 138.531 121.15 126.873C130.899 121.247 136.264 113.774 136.264 105.837C136.264 97.9003 130.893 90.4278 121.15 84.8017C111.053 78.9724 97.7865 76.0577 84.5253 76.0577Z" fill="white"/>
	</g>
	<path opacity="0.5" d="M84.5254 127.331C105.089 127.331 121.76 117.708 121.76 105.837C121.76 93.9663 105.089 84.343 84.5254 84.343C63.9613 84.343 47.2908 93.9663 47.2908 105.837C47.2908 117.708 63.9613 127.331 84.5254 127.331Z" fill="#13247A"/>
	<path d="M108.238 22.3279L70.1146 0.299487C69.4991 -0.0546865 68.9359 -0.083717 68.5005 0.154334L65.9109 1.66392L67.6005 2.6858V92.0013C67.6005 93.8476 68.7269 95.9959 70.1088 96.7971L107.785 118.57L107.245 120.48L109.852 118.965H109.846C110.386 118.663 110.728 117.949 110.728 116.927V27.1237C110.746 25.2716 109.619 23.1233 108.238 22.3279Z" fill="url(#paint6_linear)"/>
	<path d="M105.59 120.358L67.4729 98.3299C66.0852 97.5287 64.9646 95.3804 64.9646 93.5341V3.73671C64.9646 1.89037 66.091 1.03687 67.4729 1.83812L105.59 23.8665C106.978 24.6678 108.098 26.816 108.098 28.6624V118.466C108.098 120.312 106.978 121.16 105.59 120.358Z" fill="url(#paint7_linear)"/>
	<path d="M108.098 118.524L64.9587 93.598V3.67288L108.098 28.5985V118.524Z" fill="#0F65B2"/>
	<path opacity="0.4" d="M101.206 120.248L62.706 98.0048C61.2603 97.1687 60.372 95.6301 60.372 93.9638V9.3919C60.372 8.20745 61.6493 7.47008 62.677 8.0623L101.177 30.3113C102.623 31.1474 103.511 32.686 103.511 34.3524V118.924C103.511 120.103 102.234 120.84 101.206 120.248Z" fill="white"/>
	<path d="M101.979 120.631C101.688 120.631 101.392 120.556 101.125 120.399L62.6248 98.15C61.1326 97.2907 60.2036 95.6824 60.2036 93.9579V9.39189C60.2036 8.77644 60.523 8.22486 61.0571 7.91713C61.5913 7.60941 62.23 7.60941 62.7641 7.91713L101.264 30.1662C102.757 31.0255 103.68 32.6338 103.68 34.3582V118.93C103.68 119.545 103.36 120.097 102.826 120.405C102.559 120.55 102.269 120.631 101.979 120.631ZM61.9106 8.02164C61.6784 8.02164 61.4403 8.08551 61.2255 8.20744C60.7959 8.4513 60.5404 8.89837 60.5404 9.39189V93.9637C60.5404 95.5662 61.3997 97.0584 62.7874 97.8596L101.288 120.109C101.717 120.358 102.228 120.358 102.652 120.109C103.082 119.865 103.337 119.418 103.337 118.924V34.3524C103.337 32.7499 102.478 31.2577 101.09 30.4565L62.59 8.20744C62.3751 8.08551 62.1429 8.02164 61.9106 8.02164Z" fill="white"/>
	<path d="M89.3793 16.6205L83.6776 13.3284C83.486 13.2181 83.3293 12.9162 83.3293 12.6607C83.3293 12.4053 83.486 12.2833 83.6776 12.3936L89.3793 15.6857C89.5709 15.796 89.7276 16.0979 89.7276 16.3534C89.7276 16.6147 89.5709 16.7308 89.3793 16.6205Z" fill="#0063AD"/>
	<path opacity="0.2" d="M91.7192 67.662C92.4972 68.1149 93.1301 67.633 93.1301 66.5937V35.3626C93.1301 34.3233 92.4972 33.1156 91.7192 32.6628L60.4881 14.6348C60.4126 14.9947 60.3662 15.3721 60.3662 15.7612V49.5585L91.7192 67.662Z" fill="#041860"/>
	<path d="M68.2568 56.0904L68.2626 56.8684C67.5949 56.5607 66.7472 56.4214 65.7428 56.491C62.2068 56.7523 58.0903 59.5451 56.5517 62.7326C56.122 63.6151 55.942 64.4338 55.9711 65.1538L55.2569 64.9157L56.0291 66.0537V66.0479C56.6678 67.0408 57.9684 67.5981 59.7683 67.4646C63.3042 67.2033 67.4207 64.4106 68.9593 61.223C69.7316 59.6263 69.7141 58.2387 69.058 57.2749L68.2568 56.0904Z" fill="#F4A856"/>
	<path d="M68.1522 60.0328C66.6078 63.2203 62.4912 66.0189 58.9611 66.2743C55.4252 66.5356 53.8111 64.1551 55.3555 60.9676C56.8999 57.78 61.0165 54.9814 64.5466 54.726C68.0825 54.4705 69.6966 56.8452 68.1522 60.0328Z" fill="#FCCC6B"/>
	<path d="M68.1522 60.0328C66.6078 63.2203 62.4912 66.0189 58.9611 66.2743C55.4252 66.5356 53.8111 64.1551 55.3555 60.9676C56.8999 57.78 61.0165 54.9814 64.5466 54.726C68.0825 54.4705 69.6966 56.8452 68.1522 60.0328Z" fill="url(#paint8_radial)"/>
	<path d="M63.9717 63.679C62.555 64.6486 60.9177 65.3105 59.4139 65.4208C57.9566 65.5253 56.8302 65.1131 56.2438 64.248C55.6573 63.3829 55.6864 62.1868 56.325 60.8688C57.6256 58.1748 61.1151 55.8059 64.0994 55.5911C65.5568 55.4866 66.6832 55.8988 67.2696 56.7639C67.856 57.629 67.827 58.8251 67.1883 60.1431C66.5438 61.4727 65.3594 62.7268 63.9717 63.679ZM59.6113 57.4374C58.2411 58.378 57.0798 59.6089 56.4412 60.9269C55.8257 62.1984 55.7909 63.3539 56.3483 64.1725C56.9057 64.9912 57.9914 65.3918 59.4023 65.2873C62.346 65.0725 65.7832 62.7384 67.0664 60.085C67.6818 58.8135 67.7166 57.6581 67.1593 56.8394C66.6019 56.0207 65.5161 55.6201 64.1052 55.7246C62.6189 55.8291 61.0048 56.4794 59.6113 57.4374Z" fill="#F4A856"/>
	<path d="M67.1246 60.1083C65.8298 62.785 62.3752 65.1306 59.4083 65.3513C56.4413 65.5661 55.0885 63.5746 56.3833 60.898C57.678 58.2214 61.1327 55.8757 64.0996 55.6551C67.0665 55.4344 68.4193 57.4317 67.1246 60.1083Z" fill="url(#paint9_radial)"/>
	<path d="M56.5574 61.1592C57.8522 58.4826 61.3068 56.1369 64.2738 55.9163C65.6789 55.8118 66.7181 56.2066 67.293 56.9323C66.7762 56.044 65.6614 55.5389 64.0996 55.655C61.1327 55.8698 57.678 58.2213 56.3833 60.8979C55.6981 62.3088 55.7562 63.5281 56.3949 64.3409C55.9304 63.5397 55.9478 62.4249 56.5574 61.1592Z" fill="#F4A856"/>
	<path d="M67.9839 59.789C66.4394 62.9765 62.3229 65.7751 58.7928 66.0305C57.1032 66.1525 55.8491 65.6764 55.1756 64.788C55.7968 65.8273 57.1206 66.4137 58.9612 66.2744C62.4971 66.0131 66.6136 63.2204 68.1522 60.0328C68.9593 58.3723 68.9012 56.9265 68.1639 55.9685C68.7387 56.9207 68.7212 58.262 67.9839 59.789Z" fill="#FCE586"/>
	<path d="M67.078 63.8067C67.8676 63.0113 68.5179 62.1345 68.9592 61.223C69.7314 59.6263 69.714 58.2386 69.0579 57.2748L68.2508 56.0846C68.2392 56.0672 68.2276 56.0555 68.216 56.0381C68.1986 56.0149 68.1812 55.9859 68.1637 55.9626C68.1695 55.9684 68.1695 55.9801 68.1753 55.9859C67.5018 55.0859 66.2535 54.5924 64.5465 54.7201C62.5492 54.8653 60.3603 55.8233 58.5604 57.211L64.9239 63.8009H67.078V63.8067Z" fill="#F4A856"/>
	<path d="M87.6782 35.2406L42.3557 9.07249C42.0015 8.86928 41.6822 8.85767 41.4325 8.99701L40.759 9.39183C40.759 9.39183 40.9158 9.41505 41.0725 9.43828C40.9913 9.62988 40.9448 9.86793 40.9448 10.1466V41.3719C40.9448 42.4112 41.5777 43.6189 42.3557 44.0718L87.6782 70.2399C87.7653 70.2922 87.8466 70.327 87.9279 70.3502V70.7044L88.6072 70.3096H88.6014C88.9033 70.1354 89.0891 69.7348 89.0891 69.1658V37.9405C89.0891 36.9012 88.4562 35.6935 87.6782 35.2406Z" fill="white"/>
	<path d="M87.0221 70.6231L41.6996 44.4549C40.9216 44.0021 40.2887 42.7944 40.2887 41.7551V10.524C40.2887 9.48471 40.9216 9.0028 41.6996 9.45568L87.0221 35.6238C87.8001 36.0767 88.433 37.2844 88.433 38.3237V69.549C88.433 70.5941 87.8001 71.0702 87.0221 70.6231Z" fill="url(#paint10_linear)"/>
	<path d="M73.5112 37.2438V32.7847L74.4576 33.3304C74.6376 33.435 74.7944 33.5395 74.9221 33.6556C75.0557 33.7717 75.1718 33.8994 75.2763 34.0446C75.3808 34.1897 75.4563 34.3523 75.5085 34.5323C75.5608 34.7123 75.584 34.9097 75.584 35.1245C75.584 35.6761 75.3924 35.8735 75.015 35.7168C75.2415 35.8967 75.4156 36.1116 75.526 36.3554C75.6421 36.5993 75.6943 36.8838 75.7001 37.2147C75.7001 37.6386 75.6072 37.9057 75.4273 38.0218C75.2415 38.1321 74.9744 38.0915 74.6202 37.8824L73.5112 37.2438ZM74.2138 35.0142L74.4344 35.1419C74.6434 35.2639 74.7828 35.2929 74.8582 35.2348C74.9337 35.1768 74.9744 35.0258 74.9744 34.7878C74.9744 34.66 74.9628 34.5555 74.9337 34.4626C74.9105 34.3697 74.8641 34.2885 74.806 34.213C74.7479 34.1375 74.6783 34.0736 74.6028 34.0214C74.5273 33.9633 74.4286 33.9052 74.3067 33.8298L74.208 33.7717V35.0142H74.2138ZM74.2138 37.0812L74.4692 37.2321C74.6783 37.3541 74.8234 37.3831 74.9047 37.3134C74.986 37.2496 75.0266 37.0812 75.0266 36.8257C75.0266 36.5586 74.9802 36.338 74.8873 36.1638C74.7944 35.9896 74.6434 35.8445 74.4286 35.7168L74.208 35.589V37.0812H74.2138Z" fill="white"/>
	<path d="M75.9556 38.6545L76.7394 34.6483L77.471 35.0722L78.2548 39.9841L77.5987 39.6067L77.4419 38.4804L76.7742 38.0971L76.6175 39.0435L75.9556 38.6545ZM76.8497 37.6094L77.3664 37.9055L77.111 35.9257L76.8497 37.6094Z" fill="white"/>
	<path d="M78.6322 40.2048V35.7457L79.1141 36.0244L80.0605 39.0958V36.5702L80.6411 36.9069V41.366L80.1824 41.0989L79.2302 37.894V40.5474L78.6322 40.2048Z" fill="white"/>
	<path d="M81.2219 41.697V37.2379L81.9244 37.6444V39.5778L82.685 38.0798L83.3585 38.4688L82.6211 40.0365L83.434 42.9686L82.7314 42.5622L82.0637 40.0829L81.9244 40.292V42.0977L81.2219 41.697Z" fill="white"/>
	<path d="M52.8009 44.3852L44.1963 39.421V38.2656L52.8009 43.2356V44.3852Z" fill="white"/>
	<path d="M63.3737 50.4933L54.769 45.5233V44.3737L63.3737 49.3437V50.4933Z" fill="white"/>
	<path d="M73.9468 56.5955L65.3479 51.6313V50.4817L73.9468 55.4459V56.5955Z" fill="white"/>
	<path d="M84.5254 62.7035L75.9207 57.7335V56.5839L84.5254 61.5539V62.7035Z" fill="white"/>
	<path opacity="0.2" d="M87.0221 35.6238L41.6996 9.45568C40.9216 9.0028 40.2887 9.48471 40.2887 10.524V41.7493C40.2887 41.9409 40.3177 42.1325 40.3526 42.3299C42.7621 40.5881 52.5686 35.1942 71.2992 45.5291C78.1155 49.2914 83.8171 48.7921 88.4388 46.3303V38.3179C88.433 37.2844 87.8001 36.0767 87.0221 35.6238Z" fill="white"/>
	<path opacity="0.2" d="M59.0715 34.0388C65.435 33.2201 70.7534 31.2693 75.1718 28.7842L41.6996 9.45568C40.9216 9.0028 40.2887 9.48471 40.2887 10.524V40.4081C43.6272 37.7779 49.3404 35.2929 59.0715 34.0388Z" fill="white"/>
	<path d="M69.3599 109.605L68.9245 110.25C68.5529 109.617 67.9316 109.025 67.0607 108.514C64.0009 106.726 59.025 106.708 55.9478 108.462C55.0943 108.949 54.4788 109.518 54.0956 110.134L53.637 109.536L53.6311 110.906C53.5963 112.09 54.3569 113.281 55.913 114.192C58.9728 115.98 63.9486 115.998 67.0259 114.244C68.5645 113.368 69.3367 112.207 69.3425 111.045L69.3599 109.605Z" fill="#F4A856"/>
	<path d="M67.0458 112.804C63.9686 114.564 58.9927 114.54 55.9329 112.752C52.8731 110.964 52.8847 108.096 55.9619 106.336C59.0392 104.577 64.015 104.6 67.0748 106.389C70.1346 108.177 70.123 111.045 67.0458 112.804Z" fill="#FCCC6B"/>
	<path d="M67.0458 112.804C63.9686 114.564 58.9927 114.54 55.9329 112.752C52.8731 110.964 52.8847 108.096 55.9619 106.336C59.0392 104.577 64.015 104.6 67.0748 106.389C70.1346 108.177 70.123 111.045 67.0458 112.804Z" fill="url(#paint11_radial)"/>
	<path d="M61.5391 113.443C59.8205 113.443 58.1019 113.06 56.7955 112.299C55.5298 111.562 54.8388 110.581 54.8447 109.541C54.8505 108.502 55.553 107.527 56.8245 106.801C59.4199 105.315 63.6351 105.338 66.2188 106.842C67.4846 107.579 68.1755 108.56 68.1697 109.599C68.1639 110.639 67.4613 111.614 66.1898 112.34C64.9008 113.077 63.2229 113.443 61.5391 113.443ZM61.4694 105.831C59.8089 105.831 58.1541 106.191 56.8826 106.917C55.6575 107.62 54.9782 108.549 54.9724 109.541C54.9666 110.534 55.6401 111.475 56.8594 112.183C59.4083 113.67 63.5596 113.687 66.1201 112.224C67.3452 111.521 68.0245 110.592 68.0303 109.599C68.0361 108.607 67.3626 107.666 66.1434 106.958C64.8602 106.209 63.1648 105.831 61.4694 105.831Z" fill="#F4A856"/>
	<path d="M66.1549 112.288C63.5712 113.762 59.3966 113.745 56.8245 112.247C54.2524 110.749 54.264 108.334 56.8477 106.859C59.4314 105.384 63.606 105.402 66.1781 106.9C68.7503 108.398 68.7386 110.813 66.1549 112.288Z" fill="url(#paint12_radial)"/>
	<path d="M56.8478 107.173C59.4315 105.698 63.6061 105.715 66.1782 107.213C67.3917 107.922 68.0303 108.833 68.0942 109.756C68.1697 108.729 67.5368 107.689 66.184 106.894C63.6119 105.396 59.4373 105.378 56.8536 106.853C55.4949 107.631 54.8446 108.671 54.9143 109.698C54.984 108.781 55.6285 107.869 56.8478 107.173Z" fill="#F4A856"/>
	<path d="M67.0492 112.508C63.9719 114.268 58.9961 114.244 55.9363 112.456C54.4731 111.603 53.7125 110.499 53.6545 109.385C53.579 110.592 54.3396 111.823 55.9363 112.752C58.9961 114.54 63.9719 114.558 67.0492 112.804C68.6517 111.887 69.4239 110.668 69.36 109.454C69.2903 110.569 68.5181 111.666 67.0492 112.508Z" fill="#FCE586"/>
	<path d="M70.7126 107.684L70.2772 108.328C69.9056 107.695 69.2843 107.103 68.4134 106.592C65.3536 104.804 60.3778 104.786 57.3005 106.54C56.447 107.027 55.8316 107.596 55.4484 108.212L54.9897 107.614L54.9839 108.984C54.949 110.169 55.7096 111.359 57.2657 112.27C60.3255 114.059 65.3013 114.076 68.3786 112.323C69.9172 111.446 70.6894 110.285 70.6952 109.123L70.7126 107.684Z" fill="#F4A856"/>
	<path d="M68.3991 110.877C65.3218 112.636 60.346 112.613 57.2862 110.825C54.2263 109.036 54.2379 106.168 57.3152 104.409C60.3924 102.65 65.3683 102.673 68.4281 104.461C71.4879 106.249 71.4763 109.123 68.3991 110.877Z" fill="#FCCC6B"/>
	<path d="M68.3991 110.877C65.3218 112.636 60.346 112.613 57.2862 110.825C54.2263 109.036 54.2379 106.168 57.3152 104.409C60.3924 102.65 65.3683 102.673 68.4281 104.461C71.4879 106.249 71.4763 109.123 68.3991 110.877Z" fill="url(#paint13_radial)"/>
	<path d="M62.886 111.521C61.1674 111.521 59.4488 111.138 58.1424 110.378C56.8767 109.64 56.1858 108.659 56.1916 107.62C56.1974 106.58 56.8999 105.605 58.1715 104.879C60.7668 103.393 64.982 103.416 67.5657 104.92C68.8315 105.657 69.5224 106.639 69.5166 107.678C69.5108 108.717 68.8083 109.693 67.5367 110.418C66.2536 111.156 64.5698 111.521 62.886 111.521ZM62.8163 103.904C61.1558 103.904 59.5011 104.264 58.2295 104.99C57.0044 105.692 56.3251 106.621 56.3193 107.614C56.3135 108.607 56.987 109.547 58.2063 110.256C60.7552 111.742 64.9065 111.759 67.467 110.296C68.6921 109.594 69.3714 108.665 69.3773 107.672C69.3831 106.679 68.7095 105.739 67.4903 105.03C66.2071 104.281 64.5117 103.904 62.8163 103.904Z" fill="#F4A856"/>
	<path d="M67.502 110.36C64.9182 111.835 60.7436 111.818 58.1715 110.32C55.5994 108.822 55.611 106.406 58.1948 104.932C60.7785 103.457 64.9531 103.474 67.5252 104.972C70.0973 106.476 70.0857 108.885 67.502 110.36Z" fill="url(#paint14_radial)"/>
	<path d="M58.1947 105.251C60.7784 103.776 64.953 103.794 67.5251 105.292C68.7386 106 69.3772 106.911 69.4411 107.835C69.5166 106.807 68.8837 105.768 67.5309 104.972C64.9588 103.474 60.7842 103.457 58.2005 104.932C56.8418 105.71 56.1915 106.749 56.2612 107.777C56.3309 106.853 56.9754 105.948 58.1947 105.251Z" fill="#F4A856"/>
	<path d="M68.3961 110.581C65.3189 112.34 60.343 112.317 57.2832 110.529C55.82 109.675 55.0594 108.572 55.0014 107.457C54.9259 108.665 55.6865 109.896 57.2832 110.825C60.343 112.613 65.3189 112.63 68.3961 110.877C69.9986 109.96 70.7708 108.74 70.7069 107.527C70.6373 108.642 69.865 109.739 68.3961 110.581Z" fill="#FCE586"/>
	<path d="M81.0649 117.252L80.6295 117.897C80.2579 117.264 79.6366 116.672 78.7657 116.161C75.7059 114.372 70.7301 114.355 67.6528 116.108C66.7993 116.596 66.1839 117.165 65.8007 117.781L65.342 117.183L65.3362 118.553C65.3013 119.737 66.0619 120.927 67.618 121.839C70.6778 123.627 75.6537 123.645 78.7309 121.891C80.2695 121.015 81.0417 119.853 81.0475 118.692L81.0649 117.252Z" fill="#F4A856"/>
	<path d="M81.0655 117.248C81.0767 114.744 77.5687 112.698 73.2301 112.678C68.8916 112.659 65.3654 114.673 65.3541 117.178C65.3429 119.682 68.8509 121.728 73.1894 121.748C77.528 121.767 81.0542 119.753 81.0655 117.248Z" fill="#FCCC6B"/>
	<path d="M78.7486 120.452C75.6714 122.211 70.6956 122.188 67.6357 120.4C64.5759 118.612 64.5875 115.743 67.6648 113.984C70.742 112.225 75.7178 112.248 78.7777 114.036C81.8375 115.819 81.8259 118.693 78.7486 120.452Z" fill="url(#paint15_radial)"/>
	<path d="M73.2441 121.09C71.5255 121.09 69.8069 120.707 68.5005 119.946C67.2348 119.209 66.5439 118.228 66.5497 117.188C66.5555 116.149 67.258 115.174 68.5296 114.448C71.1249 112.961 75.3401 112.985 77.9239 114.488C79.1896 115.226 79.8805 116.207 79.8747 117.246C79.8689 118.286 79.1664 119.261 77.8948 119.987C76.6059 120.724 74.9279 121.09 73.2441 121.09ZM73.1744 113.472C71.5139 113.472 69.8592 113.832 68.5876 114.558C67.3625 115.261 66.6832 116.19 66.6774 117.182C66.6716 118.175 67.3451 119.116 68.5644 119.824C71.1133 121.311 75.2646 121.328 77.8251 119.865C79.0502 119.162 79.7296 118.233 79.7354 117.24C79.7412 116.248 79.0677 115.307 77.8484 114.599C76.5652 113.85 74.864 113.472 73.1744 113.472Z" fill="#F4A856"/>
	<path d="M77.8598 119.929C75.2761 121.404 71.1015 121.386 68.5294 119.888C65.9573 118.39 65.9689 115.975 68.5526 114.5C71.1364 113.025 75.3109 113.043 77.8831 114.541C80.4552 116.044 80.4436 118.454 77.8598 119.929Z" fill="url(#paint16_radial)"/>
	<path d="M68.5529 114.819C71.1366 113.345 75.3112 113.362 77.8833 114.86C79.0968 115.568 79.7355 116.48 79.7993 117.403C79.8748 116.375 79.2419 115.33 77.8891 114.541C75.317 113.043 71.1424 113.025 68.5587 114.5C67.2001 115.278 66.5498 116.317 66.6195 117.345C66.6833 116.422 67.3336 115.516 68.5529 114.819Z" fill="#F4A856"/>
	<path d="M78.7484 120.149C75.6712 121.909 70.6953 121.885 67.6355 120.097C66.1724 119.244 65.4118 118.14 65.3537 117.026C65.2782 118.233 66.0388 119.464 67.6355 120.393C70.6953 122.181 75.6712 122.199 78.7484 120.445C80.3509 119.528 81.1231 118.309 81.0592 117.101C80.9896 118.21 80.2232 119.307 78.7484 120.149Z" fill="#FCE586"/>
	<path d="M65.3537 119.975L64.9183 120.62C64.5467 119.987 63.9254 119.395 63.0545 118.884C59.9947 117.095 55.0188 117.078 51.9416 118.831C51.0881 119.319 50.4726 119.888 50.0894 120.504L49.6308 119.906L49.625 121.276C49.5901 122.46 50.3507 123.65 51.9068 124.562C54.9666 126.35 59.9424 126.368 63.0197 124.614C64.5583 123.738 65.3305 122.576 65.3363 121.415L65.3537 119.975Z" fill="#F4A856"/>
	<path d="M65.3487 119.977C65.3599 117.472 61.8519 115.426 57.5133 115.407C53.1748 115.387 49.6486 117.402 49.6373 119.906C49.6261 122.41 53.1341 124.456 57.4726 124.476C61.8112 124.495 65.3374 122.481 65.3487 119.977Z" fill="#FCCC6B"/>
	<path d="M63.0369 123.174C59.9597 124.933 54.9839 124.91 51.924 123.122C48.8642 121.334 48.8758 118.465 51.9531 116.706C55.0303 114.947 60.0062 114.97 63.066 116.758C66.1258 118.541 66.1142 121.415 63.0369 123.174Z" fill="url(#paint17_radial)"/>
	<path d="M57.5271 123.813C55.8085 123.813 54.0899 123.43 52.7835 122.669C51.5178 121.932 50.8268 120.951 50.8326 119.911C50.8385 118.872 51.541 117.897 52.8125 117.171C55.4079 115.684 59.6231 115.708 62.2068 117.211C63.4726 117.949 64.1635 118.93 64.1577 119.969C64.1519 121.009 63.4493 121.984 62.1778 122.71C60.8946 123.447 59.2109 123.813 57.5271 123.813ZM57.4574 116.201C55.7969 116.201 54.1421 116.561 52.8706 117.287C51.6455 117.989 50.9662 118.918 50.9604 119.911C50.9546 120.904 51.6281 121.845 52.8474 122.553C55.3962 124.039 59.5476 124.057 62.1081 122.594C63.3332 121.891 64.0125 120.962 64.0183 119.969C64.0241 118.976 63.3506 118.036 62.1313 117.328C60.8482 116.579 59.1528 116.201 57.4574 116.201Z" fill="#F4A856"/>
	<path d="M62.1429 122.658C59.5592 124.132 55.3846 124.115 52.8125 122.617C50.2404 121.119 50.252 118.704 52.8357 117.229C55.4194 115.754 59.594 115.772 62.1662 117.27C64.7383 118.768 64.7266 121.177 62.1429 122.658Z" fill="url(#paint18_radial)"/>
	<path d="M52.8358 117.542C55.4195 116.068 59.5941 116.085 62.1662 117.583C63.3797 118.291 64.0183 119.203 64.0822 120.126C64.1577 119.098 63.5248 118.059 62.172 117.264C59.5999 115.766 55.4253 115.748 52.8416 117.223C51.4829 118.001 50.8326 119.04 50.9023 120.068C50.972 119.151 51.6165 118.239 52.8358 117.542Z" fill="#F4A856"/>
	<path d="M63.0371 122.872C59.9598 124.632 54.984 124.608 51.9242 122.82C50.461 121.967 49.7004 120.864 49.6423 119.749C49.5669 120.956 50.3275 122.187 51.9242 123.116C54.984 124.905 59.9598 124.922 63.0371 123.169C64.6395 122.251 65.4118 121.032 65.3479 119.818C65.2782 120.939 64.506 122.036 63.0371 122.872Z" fill="#FCE586"/>
	<path d="M72.7856 117.09L72.3501 117.734C71.9785 117.101 71.3573 116.509 70.4864 115.998C67.4265 114.21 62.4507 114.192 59.3735 115.946C58.52 116.434 57.9045 117.003 57.5213 117.618L57.0626 117.02L57.0568 118.39C57.022 119.575 57.7826 120.765 59.3386 121.676C62.3984 123.465 67.3743 123.482 70.4515 121.729C71.9901 120.852 72.7624 119.691 72.7682 118.53L72.7856 117.09Z" fill="#F4A856"/>
	<path d="M72.7814 117.084C72.7927 114.58 69.2847 112.534 64.9461 112.514C60.6075 112.495 57.0813 114.509 57.0701 117.014C57.0589 119.518 60.5668 121.564 64.9054 121.583C69.244 121.603 72.7702 119.588 72.7814 117.084Z" fill="#FCCC6B"/>
	<path d="M70.4688 120.283C67.3916 122.042 62.4157 122.019 59.3559 120.23C56.2961 118.442 56.3077 115.574 59.3849 113.815C62.4622 112.055 67.438 112.079 70.4978 113.867C73.5576 115.655 73.546 118.529 70.4688 120.283Z" fill="url(#paint19_radial)"/>
	<path d="M64.9646 120.927C63.246 120.927 61.5274 120.544 60.221 119.784C58.9553 119.046 58.2644 118.065 58.2702 117.026C58.276 115.986 58.9785 115.011 60.2501 114.285C62.8454 112.799 67.0606 112.822 69.6444 114.326C70.9101 115.063 71.601 116.044 71.5952 117.084C71.5894 118.123 70.8869 119.098 69.6153 119.824C68.3264 120.556 66.6484 120.927 64.9646 120.927ZM64.895 113.31C63.2344 113.31 61.5797 113.67 60.3081 114.395C59.083 115.098 58.4037 116.027 58.3979 117.02C58.3921 118.013 59.0656 118.953 60.2849 119.662C62.8338 121.148 66.9852 121.165 69.5457 119.702C70.7707 119 71.4501 118.071 71.4559 117.078C71.4617 116.085 70.7882 115.144 69.5689 114.436C68.2857 113.687 66.5845 113.31 64.895 113.31Z" fill="#F4A856"/>
	<path d="M69.5806 119.766C66.9968 121.241 62.8222 121.224 60.2501 119.726C57.678 118.228 57.6896 115.812 60.2734 114.338C62.8571 112.863 67.0317 112.88 69.6038 114.378C72.1759 115.876 72.1643 118.292 69.5806 119.766Z" fill="url(#paint20_radial)"/>
	<path d="M60.2734 114.651C62.8571 113.176 67.0317 113.194 69.6038 114.692C70.8173 115.4 71.456 116.312 71.5198 117.235C71.5953 116.207 70.9625 115.168 69.6096 114.372C67.0375 112.874 62.8629 112.857 60.2792 114.332C58.9206 115.11 58.2703 116.149 58.34 117.177C58.4038 116.259 59.0541 115.354 60.2734 114.651Z" fill="#F4A856"/>
	<path d="M70.4689 119.987C67.3917 121.746 62.4158 121.723 59.356 119.935C57.8929 119.081 57.1323 117.978 57.0742 116.863C56.9987 118.071 57.7593 119.302 59.356 120.231C62.4158 122.019 67.3917 122.036 70.4689 120.283C72.0714 119.366 72.8436 118.146 72.7797 116.933C72.7101 118.048 71.9437 119.145 70.4689 119.987Z" fill="#FCE586"/>
	<path d="M74.8175 115.516L74.382 116.161C74.0104 115.528 73.3892 114.935 72.5183 114.425C69.4585 112.636 64.4826 112.619 61.4054 114.372C60.5519 114.86 59.9364 115.429 59.5532 116.044L59.0945 115.446L59.0887 116.817C59.0539 118.001 59.8145 119.191 61.3705 120.103C64.4304 121.891 69.4062 121.909 72.4834 120.155C74.0221 119.278 74.7943 118.117 74.8001 116.956L74.8175 115.516Z" fill="#F4A856"/>
	<path d="M72.5029 118.715C69.4257 120.474 64.4498 120.451 61.39 118.663C58.3302 116.875 58.3418 114.006 61.419 112.247C64.4963 110.488 69.4721 110.511 72.5319 112.299C75.5918 114.082 75.5802 116.956 72.5029 118.715Z" fill="#FCCC6B"/>
	<path d="M72.5029 118.715C69.4257 120.474 64.4498 120.451 61.39 118.663C58.3302 116.875 58.3418 114.006 61.419 112.247C64.4963 110.488 69.4721 110.511 72.5319 112.299C75.5918 114.082 75.5802 116.956 72.5029 118.715Z" fill="url(#paint21_radial)"/>
	<path d="M66.9965 119.354C65.2779 119.354 63.5593 118.971 62.253 118.21C60.9872 117.473 60.2963 116.491 60.3021 115.452C60.3079 114.413 61.0104 113.437 62.282 112.712C64.8773 111.225 69.0926 111.248 71.6763 112.752C72.942 113.49 73.6329 114.471 73.6271 115.51C73.6213 116.549 72.9188 117.525 71.6472 118.251C70.3583 118.988 68.6803 119.354 66.9965 119.354ZM66.9269 111.742C65.2663 111.742 63.6116 112.102 62.34 112.828C61.115 113.53 60.4356 114.459 60.4298 115.452C60.424 116.445 61.0975 117.386 62.3168 118.094C64.8657 119.58 69.0171 119.598 71.5776 118.135C72.8027 117.432 73.482 116.503 73.4878 115.51C73.4936 114.517 72.8201 113.577 71.6008 112.868C70.3176 112.114 68.6165 111.742 66.9269 111.742Z" fill="#F4A856"/>
	<path d="M71.6125 118.193C69.0288 119.667 64.8542 119.65 62.2821 118.152C59.71 116.654 59.7216 114.239 62.3053 112.764C64.889 111.289 69.0636 111.307 71.6357 112.805C74.2078 114.308 74.1962 116.718 71.6125 118.193Z" fill="url(#paint22_radial)"/>
	<path d="M62.3053 113.083C64.889 111.609 69.0636 111.626 71.6357 113.124C72.8492 113.832 73.4879 114.744 73.5518 115.667C73.6272 114.639 72.9944 113.6 71.6415 112.805C69.0694 111.307 64.8948 111.289 62.3111 112.764C60.9525 113.542 60.3022 114.581 60.3719 115.609C60.4357 114.686 61.086 113.78 62.3053 113.083Z" fill="#F4A856"/>
	<path d="M72.5007 118.413C69.4235 120.173 64.4476 120.149 61.3878 118.361C59.9247 117.508 59.1641 116.404 59.106 115.29C59.0305 116.497 59.7911 117.728 61.3878 118.657C64.4476 120.445 69.4235 120.463 72.5007 118.709C74.1032 117.792 74.8754 116.573 74.8116 115.359C74.7419 116.48 73.9755 117.571 72.5007 118.413Z" fill="#FCE586"/>
	<path d="M75.8918 112.497L75.4563 113.141C75.0848 112.509 74.4635 111.916 73.5926 111.405C70.5328 109.617 65.5569 109.6 62.4797 111.353C61.6262 111.841 61.0107 112.41 60.6275 113.025L60.1688 112.427L60.163 113.798C60.1282 114.982 60.8888 116.172 62.4448 117.084C65.5047 118.872 70.4805 118.889 73.5577 117.136C75.0964 116.259 75.8686 115.098 75.8744 113.937L75.8918 112.497Z" fill="#F4A856"/>
	<path d="M75.8949 112.495C75.9061 109.991 72.3981 107.945 68.0596 107.925C63.721 107.906 60.1948 109.92 60.1835 112.425C60.1723 114.929 63.6803 116.975 68.0188 116.995C72.3574 117.014 75.8836 115 75.8949 112.495Z" fill="#FCCC6B"/>
	<path d="M73.5806 115.695C70.5033 117.455 65.5275 117.431 62.4677 115.643C59.4079 113.855 59.4195 110.987 62.4967 109.227C65.574 107.468 70.5498 107.491 73.6096 109.28C76.6694 111.062 76.6578 113.936 73.5806 115.695Z" fill="url(#paint23_radial)"/>
	<path d="M68.0711 116.335C66.3525 116.335 64.6339 115.952 63.3275 115.191C62.0618 114.454 61.3708 113.472 61.3766 112.433C61.3824 111.394 62.085 110.418 63.3565 109.693C65.9519 108.206 70.1671 108.229 72.7508 109.733C74.0166 110.471 74.7075 111.452 74.7017 112.491C74.6959 113.53 73.9933 114.506 72.7218 115.232C71.4386 115.969 69.7549 116.335 68.0711 116.335ZM68.0014 108.717C66.3409 108.717 64.6861 109.077 63.4146 109.803C62.1895 110.505 61.5102 111.434 61.5044 112.427C61.4986 113.42 62.1721 114.361 63.3914 115.069C65.9402 116.555 70.0916 116.573 72.6521 115.11C73.8772 114.407 74.5565 113.478 74.5623 112.485C74.5681 111.493 73.8946 110.552 72.6753 109.844C71.3922 109.095 69.6968 108.717 68.0014 108.717Z" fill="#F4A856"/>
	<path d="M72.6868 115.174C70.1031 116.648 65.9285 116.631 63.3564 115.133C60.7843 113.635 60.7959 111.22 63.3796 109.745C65.9633 108.27 70.1379 108.287 72.71 109.785C75.2821 111.289 75.2705 113.699 72.6868 115.174Z" fill="url(#paint24_radial)"/>
	<path d="M63.3796 110.064C65.9633 108.589 70.1379 108.607 72.7101 110.105C73.9235 110.813 74.5622 111.725 74.6261 112.648C74.7015 111.62 74.0687 110.581 72.7159 109.785C70.1437 108.287 65.9692 108.27 63.3854 109.745C62.0268 110.523 61.3765 111.562 61.4462 112.59C61.5159 111.667 62.1603 110.761 63.3796 110.064Z" fill="#F4A856"/>
	<path d="M73.581 115.394C70.5038 117.153 65.528 117.13 62.4681 115.342C61.005 114.488 60.2444 113.385 60.1863 112.271C60.1109 113.478 60.8715 114.709 62.4681 115.638C65.528 117.426 70.5038 117.444 73.581 115.69C75.1835 114.773 75.9557 113.554 75.8919 112.34C75.8222 113.455 75.05 114.552 73.581 115.394Z" fill="#FCE586"/>
	<path d="M81.3262 113.745L80.7688 114.285C80.5307 113.588 80.0488 112.88 79.2999 112.206C76.6697 109.832 71.8042 108.793 68.4308 109.884C67.496 110.186 66.7761 110.621 66.2767 111.138L65.9516 110.459L65.6671 111.8H65.6729C65.3942 112.95 65.8935 114.273 67.2347 115.481C69.8649 117.856 74.7304 118.895 78.1038 117.804C79.7876 117.258 80.7804 116.282 81.0243 115.15L81.3262 113.745Z" fill="#F4A856"/>
	<path d="M78.3999 116.404C75.0266 117.496 70.1611 116.457 67.5309 114.082C64.9007 111.707 65.4988 108.897 68.8721 107.806C72.2455 106.714 77.111 107.753 79.7412 110.128C82.3771 112.503 81.7733 115.313 78.3999 116.404Z" fill="#FCCC6B"/>
	<path d="M78.3999 116.404C75.0266 117.496 70.1611 116.457 67.5309 114.082C64.9007 111.707 65.4988 108.897 68.8721 107.806C72.2455 106.714 77.111 107.753 79.7412 110.128C82.3771 112.503 81.7733 115.313 78.3999 116.404Z" fill="url(#paint25_radial)"/>
	<path d="M72.8783 115.899C71.1945 115.545 69.592 114.819 68.4656 113.809C67.3799 112.828 66.9038 111.725 67.1186 110.709C67.3392 109.687 68.2218 108.88 69.6152 108.427C72.4602 107.504 76.5826 108.386 78.8063 110.389C79.892 111.37 80.374 112.474 80.1533 113.49C79.9327 114.512 79.0502 115.319 77.6567 115.771C76.2516 116.23 74.5272 116.248 72.8783 115.899ZM74.3704 108.433C72.7447 108.09 71.0493 108.107 69.6617 108.554C68.3147 108.99 67.4612 109.762 67.2521 110.732C67.0431 111.701 67.5076 112.758 68.5585 113.704C70.7474 115.679 74.8117 116.549 77.616 115.644C78.9631 115.208 79.8166 114.436 80.0256 113.461C80.2346 112.491 79.7701 111.434 78.7192 110.488C77.6161 109.495 76.031 108.781 74.3704 108.433Z" fill="#F4A856"/>
	<path d="M77.6393 115.713C74.8117 116.631 70.7242 115.754 68.5179 113.763C66.3116 111.771 66.8109 109.414 69.6443 108.496C72.4718 107.579 76.5594 108.456 78.7657 110.447C80.972 112.439 80.4669 114.796 77.6393 115.713Z" fill="url(#paint26_radial)"/>
	<path d="M69.5747 108.804C72.4023 107.887 76.4898 108.763 78.6961 110.755C79.7412 111.696 80.1767 112.723 80.0489 113.635C80.3334 112.648 79.927 111.492 78.76 110.441C76.5537 108.45 72.4662 107.573 69.6386 108.491C68.1464 108.973 67.3045 109.855 67.1594 110.877C67.4206 109.994 68.2335 109.234 69.5747 108.804Z" fill="#F4A856"/>
	<path d="M78.4637 116.108C75.0904 117.2 70.2249 116.161 67.5947 113.786C66.3348 112.648 65.818 111.417 65.9922 110.314C65.6729 111.481 66.1606 112.839 67.5366 114.076C70.1668 116.451 75.0323 117.49 78.4057 116.399C80.1649 115.83 81.1636 114.79 81.3552 113.594C81.0533 114.668 80.0779 115.586 78.4637 116.108Z" fill="#FCE586"/>
	<path d="M69.3424 80.6735L68.6515 81.0218C68.6398 80.2903 68.3902 79.4658 67.8851 78.5949C66.1026 75.5351 61.7828 73.0617 58.2353 73.0791C57.2541 73.0849 56.4354 73.2765 55.8025 73.6248L55.698 72.8759L55.0187 74.0661H55.0245C54.4091 75.0764 54.4845 76.4931 55.3961 78.0491C57.1786 81.1089 61.4983 83.5823 65.0459 83.5649C66.8167 83.5591 68.0592 82.9321 68.634 81.9218L69.3424 80.6735Z" fill="#F4A856"/>
	<path d="M69.3434 80.6708C70.5864 78.4965 68.5404 74.9883 64.7736 72.8351C61.0069 70.6819 56.9458 70.699 55.7028 72.8733C54.4599 75.0476 56.5059 78.5557 60.2726 80.709C64.0394 82.8622 68.1005 82.8451 69.3434 80.6708Z" fill="#FCCC6B"/>
	<path d="M65.7543 82.3166C62.2125 82.334 57.8928 79.8606 56.1045 76.8008C54.322 73.741 55.7445 71.2443 59.2862 71.2327C62.828 71.2153 67.1477 73.6887 68.936 76.7485C70.7243 79.8084 69.296 82.2992 65.7543 82.3166Z" fill="url(#paint27_radial)"/>
	<path d="M60.6448 80.1625C59.1468 79.3148 57.8405 78.1361 57.0799 76.8297C56.3425 75.564 56.2206 74.3679 56.7373 73.468C57.254 72.5622 58.3456 72.0629 59.8087 72.0571C62.7989 72.0455 66.4567 74.1357 67.9663 76.7194C68.7037 77.9852 68.8256 79.1754 68.3089 80.0812C67.7921 80.9869 66.7006 81.4862 65.2375 81.4921C63.7569 81.4979 62.108 80.9927 60.6448 80.1625ZM64.3317 73.5028C62.886 72.6842 61.2661 72.1848 59.8087 72.1907C58.392 72.1965 57.3469 72.6726 56.8534 73.5377C56.3599 74.397 56.4818 75.5466 57.196 76.7659C58.6824 79.3148 62.288 81.3759 65.2375 81.3643C66.6541 81.3585 67.6992 80.8824 68.1928 80.0173C68.6863 79.158 68.5644 78.0084 67.8502 76.7891C67.1012 75.5001 65.8065 74.3331 64.3317 73.5028Z" fill="#F4A856"/>
	<path d="M65.2374 81.4282C62.2647 81.4399 58.6358 79.3671 57.1379 76.8008C55.6399 74.2287 56.836 72.1385 59.8087 72.1268C62.7814 72.1152 66.4102 74.188 67.9082 76.7543C69.4062 79.3206 68.2101 81.4166 65.2374 81.4282Z" fill="url(#paint28_radial)"/>
	<path d="M59.6521 72.3939C62.6248 72.3823 66.2536 74.4551 67.7516 77.0214C68.46 78.2349 68.5645 79.3438 68.1639 80.1799C68.7387 79.3264 68.698 78.1013 67.9084 76.7485C66.4104 74.1764 62.7816 72.1036 59.8089 72.121C58.2412 72.1268 57.1671 72.7132 56.72 73.6422C57.2367 72.87 58.247 72.3997 59.6521 72.3939Z" fill="#F4A856"/>
	<path d="M65.8994 82.0553C62.3577 82.0727 58.0379 79.5993 56.2496 76.5395C55.3961 75.0763 55.28 73.7409 55.7735 72.7423C55.1116 73.7583 55.1697 75.1983 56.0987 76.7949C57.8811 79.8548 62.2009 82.3282 65.7484 82.3108C67.5948 82.305 68.8663 81.6198 69.4063 80.5341C68.8082 81.4747 67.5948 82.0495 65.8994 82.0553Z" fill="#FCE586"/>
	<path d="M67.827 94.4225L67.769 95.1947C67.1303 94.8289 66.3 94.6199 65.2956 94.6025C61.7538 94.5561 57.4109 96.9946 55.6052 100.037C55.1058 100.879 54.8504 101.68 54.8213 102.4L54.1304 102.104L54.8039 103.3V103.294C55.3555 104.339 56.6038 105.001 58.4095 105.024C61.9512 105.071 66.2942 102.632 68.0999 99.59C69.0057 98.0688 69.1044 96.6811 68.5354 95.665L67.827 94.4225Z" fill="#F4A856"/>
	<path d="M67.3858 98.3474C65.5743 101.396 61.2371 103.828 57.6954 103.782C54.1536 103.735 52.7486 101.233 54.5543 98.1848C56.3658 95.1366 60.7029 92.7038 64.2447 92.7503C67.7922 92.7909 69.1973 95.2992 67.3858 98.3474Z" fill="#FCCC6B"/>
	<path d="M67.3858 98.3474C65.5743 101.396 61.2371 103.828 57.6954 103.782C54.1536 103.735 52.7486 101.233 54.5543 98.1848C56.3658 95.1366 60.7029 92.7038 64.2447 92.7503C67.7922 92.7909 69.1973 95.2992 67.3858 98.3474Z" fill="url(#paint29_radial)"/>
	<path d="M62.9094 101.616C61.4114 102.464 59.7276 102.981 58.218 102.963C56.7549 102.946 55.6691 102.435 55.1582 101.523C54.6473 100.612 54.7808 99.4215 55.5298 98.1616C57.0568 95.5895 60.7321 93.5283 63.728 93.5631C65.1912 93.5806 66.2769 94.0915 66.7879 95.0031C67.2988 95.9146 67.1652 97.1049 66.4163 98.3648C65.6615 99.6363 64.3783 100.786 62.9094 101.616ZM59.0947 95.0263C57.649 95.845 56.3833 96.9771 55.6401 98.2313C54.9202 99.4447 54.7866 100.594 55.2743 101.459C55.762 102.325 56.8071 102.812 58.218 102.83C61.1675 102.865 64.7905 100.832 66.3001 98.3009C67.0201 97.0875 67.1536 95.9379 66.6659 95.0727C66.1782 94.2076 65.1331 93.7199 63.7222 93.7025C62.2359 93.6793 60.5695 94.1902 59.0947 95.0263Z" fill="#F4A856"/>
	<path d="M66.3581 98.3299C64.8369 100.885 61.1964 102.928 58.2179 102.894C55.2452 102.859 54.0607 100.751 55.5819 98.1964C57.1031 95.6417 60.7436 93.598 63.7221 93.6328C66.7006 93.6734 67.8793 95.7752 66.3581 98.3299Z" fill="url(#paint30_radial)"/>
	<path d="M55.7387 98.4752C57.2599 95.9205 60.9003 93.8767 63.8788 93.9116C65.2839 93.929 66.2884 94.4109 66.7993 95.1831C66.3638 94.2541 65.2955 93.6561 63.7279 93.6387C60.7551 93.6038 57.1089 95.6476 55.5877 98.2023C54.7864 99.5493 54.7342 100.769 55.3032 101.634C54.9084 100.792 55.0245 99.6828 55.7387 98.4752Z" fill="#F4A856"/>
	<path d="M67.2406 98.0861C65.4291 101.134 61.0919 103.567 57.5502 103.521C55.8548 103.497 54.6529 102.911 54.0491 101.976C54.5833 103.068 55.8432 103.759 57.6953 103.782C61.2371 103.828 65.58 101.39 67.3857 98.3474C68.3321 96.7565 68.396 95.3166 67.7457 94.2947C68.2334 95.2934 68.1057 96.6288 67.2406 98.0861Z" fill="#FCE586"/>
	<path d="M21.3026 94.4573C21.0356 94.4573 20.7685 94.3876 20.5304 94.2482L0.185796 82.5083C0.0696734 82.4386 0 82.3225 0 82.1889C0 82.0554 0.0696734 81.9335 0.185796 81.8638L18.1789 71.4767L18.3589 71.7902L0.365785 82.1773L20.7104 93.9405C21.0762 94.1495 21.5291 94.1495 21.8949 93.9405L34.0296 86.9616C34.5115 86.6829 35.1038 86.6887 35.5799 86.9674L40.5499 89.8704L40.3699 90.184L35.3999 87.2809C35.0341 87.0661 34.5812 87.0661 34.2096 87.2751L22.0748 94.2599C21.8368 94.3934 21.5697 94.4573 21.3026 94.4573Z" fill="white"/>
	<path d="M112.215 77.1433L93.275 56.8045L74.3355 55.2717C74.3355 55.2717 71.293 80.9463 93.275 108.177C115.263 106.331 112.215 77.1433 112.215 77.1433Z" fill="url(#paint31_linear)"/>
	<path d="M74.3413 55.2717L70.0796 57.7335L89.0192 59.2663L93.2808 56.8045L74.3413 55.2717Z" fill="url(#paint32_linear)"/>
	<path d="M107.959 79.6052L89.0192 59.2664L81.2332 58.4768L70.0796 57.7336C70.0796 57.7336 67.0372 83.4082 89.0192 110.639C111.001 108.793 107.959 79.6052 107.959 79.6052Z" fill="url(#paint33_linear)"/>
	<path d="M107.959 79.6051L89.0192 59.2663L70.0796 57.7335C70.6138 57.4258 70.6138 57.4258 70.6138 57.4258L89.803 58.976L108.743 79.3148C108.743 79.3148 111.286 103.712 94.9124 109.309C110.415 103.213 107.959 79.6051 107.959 79.6051Z" fill="white"/>
	<path opacity="0.2" d="M105.66 79.9188L88.6303 61.6353L81.6281 60.927L71.601 60.2593C71.601 60.2593 68.8663 83.3444 88.6303 107.829C108.394 106.162 105.66 79.9188 105.66 79.9188Z" fill="white"/>
	<defs>
	<filter id="filter0_d" x="28.3922" y="75.673" width="112.26" height="68.327" filterUnits="userSpaceOnUse" color-interpolation-filters="sRGB">
	<feFlood flood-opacity="0" result="BackgroundImageFix"/>
	<feColorMatrix in="SourceAlpha" type="matrix" values="0 0 0 0 0 0 0 0 0 0 0 0 0 0 0 0 0 0 127 0"/>
	<feOffset dy="4"/>
	<feGaussianBlur stdDeviation="2"/>
	<feColorMatrix type="matrix" values="0 0 0 0 0.811765 0 0 0 0 0.898039 0 0 0 0 1 0 0 0 1 0"/>
	<feBlend mode="normal" in2="BackgroundImageFix" result="effect1_dropShadow"/>
	<feBlend mode="normal" in="SourceGraphic" in2="effect1_dropShadow" result="shape"/>
	</filter>
	<linearGradient id="paint0_linear" x1="25.4255" y1="53.534" x2="9.27803" y2="41.0588" gradientUnits="userSpaceOnUse">
	<stop stop-color="#59BDEF"/>
	<stop offset="1" stop-color="#7BDAFF"/>
	</linearGradient>
	<linearGradient id="paint1_linear" x1="25.4903" y1="59.4847" x2="34.5254" y2="59.4847" gradientUnits="userSpaceOnUse">
	<stop stop-color="#2573BA"/>
	<stop offset="1" stop-color="#0063AD"/>
	</linearGradient>
	<linearGradient id="paint2_linear" x1="14.1202" y1="58.8109" x2="25.4903" y2="58.8109" gradientUnits="userSpaceOnUse">
	<stop stop-color="#3A9BD5"/>
	<stop offset="1" stop-color="#2573BA"/>
	</linearGradient>
	<linearGradient id="paint3_linear" x1="16.1893" y1="52.5442" x2="21.114" y2="52.5442" gradientUnits="userSpaceOnUse">
	<stop stop-color="#2573BA"/>
	<stop offset="1" stop-color="#0063AD"/>
	</linearGradient>
	<linearGradient id="paint4_linear" x1="19.3162" y1="54.3484" x2="24.2409" y2="54.3484" gradientUnits="userSpaceOnUse">
	<stop stop-color="#2573BA"/>
	<stop offset="1" stop-color="#0063AD"/>
	</linearGradient>
	<linearGradient id="paint5_linear" x1="22.4465" y1="56.1554" x2="27.3712" y2="56.1554" gradientUnits="userSpaceOnUse">
	<stop stop-color="#2573BA"/>
	<stop offset="1" stop-color="#0063AD"/>
	</linearGradient>
	<linearGradient id="paint6_linear" x1="65.9139" y1="60.237" x2="182.319" y2="60.237" gradientUnits="userSpaceOnUse">
	<stop stop-color="#3A9BD5"/>
	<stop offset="0.522" stop-color="#3088C8"/>
	<stop offset="1" stop-color="#297BBF"/>
	</linearGradient>
	<linearGradient id="paint7_linear" x1="56.4012" y1="22.5364" x2="135.05" y2="62.8024" gradientUnits="userSpaceOnUse">
	<stop stop-color="#59BDEF"/>
	<stop offset="1" stop-color="#7BDAFF"/>
	</linearGradient>
	<radialGradient id="paint8_radial" cx="0" cy="0" r="1" gradientUnits="userSpaceOnUse" gradientTransform="translate(56.5369 60.9366) rotate(-51.5165) scale(11.2221)">
	<stop stop-color="#FCE586"/>
	<stop offset="0.2273" stop-color="#FCDB7B"/>
	<stop offset="0.6161" stop-color="#FCD06F"/>
	<stop offset="1" stop-color="#FCCC6B"/>
	</radialGradient>
	<radialGradient id="paint9_radial" cx="0" cy="0" r="1" gradientUnits="userSpaceOnUse" gradientTransform="translate(67.7863 62.9276) rotate(-51.5165) scale(26.6954)">
	<stop stop-color="#FCE586"/>
	<stop offset="0.2273" stop-color="#FCDB7B"/>
	<stop offset="0.6161" stop-color="#FCD06F"/>
	<stop offset="1" stop-color="#FCCC6B"/>
	</radialGradient>
	<linearGradient id="paint10_linear" x1="40.284" y1="40.0392" x2="88.435" y2="40.0392" gradientUnits="userSpaceOnUse">
	<stop stop-color="#7BDAFF"/>
	<stop offset="1" stop-color="#59BDEF"/>
	</linearGradient>
	<radialGradient id="paint11_radial" cx="0" cy="0" r="1" gradientUnits="userSpaceOnUse" gradientTransform="translate(56.9579 106.978) rotate(-17.0741) scale(11.222)">
	<stop stop-color="#FCE586"/>
	<stop offset="0.2273" stop-color="#FCDB7B"/>
	<stop offset="0.6161" stop-color="#FCD06F"/>
	<stop offset="1" stop-color="#FCCC6B"/>
	</radialGradient>
	<radialGradient id="paint12_radial" cx="0" cy="0" r="1" gradientUnits="userSpaceOnUse" gradientTransform="translate(65.1066 114.982) rotate(-17.0741) scale(26.6955)">
	<stop stop-color="#FCE586"/>
	<stop offset="0.2273" stop-color="#FCDB7B"/>
	<stop offset="0.6161" stop-color="#FCD06F"/>
	<stop offset="1" stop-color="#FCCC6B"/>
	</radialGradient>
	<radialGradient id="paint13_radial" cx="0" cy="0" r="1" gradientUnits="userSpaceOnUse" gradientTransform="translate(58.3073 105.053) rotate(-17.0741) scale(11.2221)">
	<stop stop-color="#FCE586"/>
	<stop offset="0.2273" stop-color="#FCDB7B"/>
	<stop offset="0.6161" stop-color="#FCD06F"/>
	<stop offset="1" stop-color="#FCCC6B"/>
	</radialGradient>
	<radialGradient id="paint14_radial" cx="0" cy="0" r="1" gradientUnits="userSpaceOnUse" gradientTransform="translate(66.4556 113.057) rotate(-17.0741) scale(26.6955)">
	<stop stop-color="#FCE586"/>
	<stop offset="0.2273" stop-color="#FCDB7B"/>
	<stop offset="0.6161" stop-color="#FCD06F"/>
	<stop offset="1" stop-color="#FCCC6B"/>
	</radialGradient>
	<radialGradient id="paint15_radial" cx="0" cy="0" r="1" gradientUnits="userSpaceOnUse" gradientTransform="translate(68.6599 114.623) rotate(-17.0741) scale(11.222)">
	<stop stop-color="#FCE586"/>
	<stop offset="0.2273" stop-color="#FCDB7B"/>
	<stop offset="0.6161" stop-color="#FCD06F"/>
	<stop offset="1" stop-color="#FCCC6B"/>
	</radialGradient>
	<radialGradient id="paint16_radial" cx="0" cy="0" r="1" gradientUnits="userSpaceOnUse" gradientTransform="translate(76.8107 122.626) rotate(-17.0741) scale(26.6955)">
	<stop stop-color="#FCE586"/>
	<stop offset="0.2273" stop-color="#FCDB7B"/>
	<stop offset="0.6161" stop-color="#FCD06F"/>
	<stop offset="1" stop-color="#FCCC6B"/>
	</radialGradient>
	<radialGradient id="paint17_radial" cx="0" cy="0" r="1" gradientUnits="userSpaceOnUse" gradientTransform="translate(52.9452 117.348) rotate(-17.0741) scale(11.222)">
	<stop stop-color="#FCE586"/>
	<stop offset="0.2273" stop-color="#FCDB7B"/>
	<stop offset="0.6161" stop-color="#FCD06F"/>
	<stop offset="1" stop-color="#FCCC6B"/>
	</radialGradient>
	<radialGradient id="paint18_radial" cx="0" cy="0" r="1" gradientUnits="userSpaceOnUse" gradientTransform="translate(61.0966 125.352) rotate(-17.0741) scale(26.6955)">
	<stop stop-color="#FCE586"/>
	<stop offset="0.2273" stop-color="#FCDB7B"/>
	<stop offset="0.6161" stop-color="#FCD06F"/>
	<stop offset="1" stop-color="#FCCC6B"/>
	</radialGradient>
	<radialGradient id="paint19_radial" cx="0" cy="0" r="1" gradientUnits="userSpaceOnUse" gradientTransform="translate(60.38 114.458) rotate(-17.0741) scale(11.222)">
	<stop stop-color="#FCE586"/>
	<stop offset="0.2273" stop-color="#FCDB7B"/>
	<stop offset="0.6161" stop-color="#FCD06F"/>
	<stop offset="1" stop-color="#FCCC6B"/>
	</radialGradient>
	<radialGradient id="paint20_radial" cx="0" cy="0" r="1" gradientUnits="userSpaceOnUse" gradientTransform="translate(68.5313 122.462) rotate(-17.0741) scale(26.6956)">
	<stop stop-color="#FCE586"/>
	<stop offset="0.2273" stop-color="#FCDB7B"/>
	<stop offset="0.6161" stop-color="#FCD06F"/>
	<stop offset="1" stop-color="#FCCC6B"/>
	</radialGradient>
	<radialGradient id="paint21_radial" cx="0" cy="0" r="1" gradientUnits="userSpaceOnUse" gradientTransform="translate(62.4142 112.888) rotate(-17.0741) scale(11.222)">
	<stop stop-color="#FCE586"/>
	<stop offset="0.2273" stop-color="#FCDB7B"/>
	<stop offset="0.6161" stop-color="#FCD06F"/>
	<stop offset="1" stop-color="#FCCC6B"/>
	</radialGradient>
	<radialGradient id="paint22_radial" cx="0" cy="0" r="1" gradientUnits="userSpaceOnUse" gradientTransform="translate(70.5634 120.892) rotate(-17.0741) scale(26.6956)">
	<stop stop-color="#FCE586"/>
	<stop offset="0.2273" stop-color="#FCDB7B"/>
	<stop offset="0.6161" stop-color="#FCD06F"/>
	<stop offset="1" stop-color="#FCCC6B"/>
	</radialGradient>
	<radialGradient id="paint23_radial" cx="0" cy="0" r="1" gradientUnits="userSpaceOnUse" gradientTransform="translate(63.4886 109.866) rotate(-17.0741) scale(11.222)">
	<stop stop-color="#FCE586"/>
	<stop offset="0.2273" stop-color="#FCDB7B"/>
	<stop offset="0.6161" stop-color="#FCD06F"/>
	<stop offset="1" stop-color="#FCCC6B"/>
	</radialGradient>
	<radialGradient id="paint24_radial" cx="0" cy="0" r="1" gradientUnits="userSpaceOnUse" gradientTransform="translate(71.6402 117.871) rotate(-17.0741) scale(26.6955)">
	<stop stop-color="#FCE586"/>
	<stop offset="0.2273" stop-color="#FCDB7B"/>
	<stop offset="0.6161" stop-color="#FCD06F"/>
	<stop offset="1" stop-color="#FCCC6B"/>
	</radialGradient>
	<radialGradient id="paint25_radial" cx="0" cy="0" r="1" gradientUnits="userSpaceOnUse" gradientTransform="translate(69.7193 108.633) rotate(-5.26135) scale(11.222)">
	<stop stop-color="#FCE586"/>
	<stop offset="0.2273" stop-color="#FCDB7B"/>
	<stop offset="0.6161" stop-color="#FCD06F"/>
	<stop offset="1" stop-color="#FCCC6B"/>
	</radialGradient>
	<radialGradient id="paint26_radial" cx="0" cy="0" r="1" gradientUnits="userSpaceOnUse" gradientTransform="translate(76.0593 118.136) rotate(-5.26135) scale(26.6955)">
	<stop stop-color="#FCE586"/>
	<stop offset="0.2273" stop-color="#FCDB7B"/>
	<stop offset="0.6161" stop-color="#FCD06F"/>
	<stop offset="1" stop-color="#FCCC6B"/>
	</radialGradient>
	<radialGradient id="paint27_radial" cx="0" cy="0" r="1" gradientUnits="userSpaceOnUse" gradientTransform="translate(59.8403 72.2773) rotate(12.4213) scale(11.2221)">
	<stop stop-color="#FCE586"/>
	<stop offset="0.2273" stop-color="#FCDB7B"/>
	<stop offset="0.6161" stop-color="#FCD06F"/>
	<stop offset="1" stop-color="#FCCC6B"/>
	</radialGradient>
	<radialGradient id="paint28_radial" cx="0" cy="0" r="1" gradientUnits="userSpaceOnUse" gradientTransform="translate(62.9941 83.2575) rotate(12.4213) scale(26.6954)">
	<stop stop-color="#FCE586"/>
	<stop offset="0.2273" stop-color="#FCDB7B"/>
	<stop offset="0.6161" stop-color="#FCD06F"/>
	<stop offset="1" stop-color="#FCCC6B"/>
	</radialGradient>
	<radialGradient id="paint29_radial" cx="0" cy="0" r="1" gradientUnits="userSpaceOnUse" gradientTransform="translate(55.7371 98.2507) rotate(-46.6167) scale(11.2221)">
	<stop stop-color="#FCE586"/>
	<stop offset="0.2273" stop-color="#FCDB7B"/>
	<stop offset="0.6161" stop-color="#FCD06F"/>
	<stop offset="1" stop-color="#FCCC6B"/>
	</radialGradient>
	<radialGradient id="paint30_radial" cx="0" cy="0" r="1" gradientUnits="userSpaceOnUse" gradientTransform="translate(66.7752 101.195) rotate(-46.6167) scale(26.6954)">
	<stop stop-color="#FCE586"/>
	<stop offset="0.2273" stop-color="#FCDB7B"/>
	<stop offset="0.6161" stop-color="#FCD06F"/>
	<stop offset="1" stop-color="#FCCC6B"/>
	</radialGradient>
	<linearGradient id="paint31_linear" x1="87.7997" y1="76.7904" x2="144.74" y2="94.2629" gradientUnits="userSpaceOnUse">
	<stop stop-color="#2573BA"/>
	<stop offset="0.907" stop-color="#0364AE"/>
	<stop offset="1" stop-color="#0063AD"/>
	</linearGradient>
	<linearGradient id="paint32_linear" x1="93.2782" y1="57.2699" x2="70.0779" y2="57.2699" gradientUnits="userSpaceOnUse">
	<stop stop-color="#0063AD"/>
	<stop offset="1" stop-color="#2573BA"/>
	</linearGradient>
	<linearGradient id="paint33_linear" x1="69.9347" y1="73.9352" x2="108.099" y2="73.9352" gradientUnits="userSpaceOnUse">
	<stop stop-color="#7BDAFF"/>
	<stop offset="1" stop-color="#59BDEF"/>
	</linearGradient>
	</defs>
	</svg>
	