<svg width="122" height="37" viewBox="0 0 122 37" fill="none" xmlns="http://www.w3.org/2000/svg">
<path fill-rule="evenodd" clip-rule="evenodd" d="M39.0481 30.7598H34.6433L36.6254 27.236L31.7068 18.4999H36.1116L38.681 23.7122L41.2504 18.4999H45.6552L39.0481 30.7598Z" fill="#334690"/>
<path fill-rule="evenodd" clip-rule="evenodd" d="M94.1636 30.761H88.7311C85.7212 30.761 83.3719 28.265 83.3719 24.7412C83.3719 20.7769 85.7212 18.4277 88.7311 18.4277H94.1636V21.5111H90.6398C88.5108 21.5111 87.3362 22.1718 87.3362 24.6678C87.3362 27.1638 88.5843 27.6777 90.6398 27.6777H94.1636V30.761Z" fill="#334690"/>
<path fill-rule="evenodd" clip-rule="evenodd" d="M108.489 30.7598H104.451V22.0971L99.8264 30.7598H94.9812V18.4999H98.9455V26.8689L103.57 18.4999H108.489V30.7598Z" fill="#334690"/>
<path fill-rule="evenodd" clip-rule="evenodd" d="M56.4436 30.7598L61.5825 18.4999H66.1341L70.392 28.7042L74.7234 18.4999H79.1281L84.3404 30.7598H80.0825L76.9257 21.8769L73.769 30.7598H67.0884L66.1341 28.2638H61.5825L60.6281 30.7598H56.4436Z" fill="#334690"/>
<path fill-rule="evenodd" clip-rule="evenodd" d="M63.8618 21.8779L62.6138 25.4018H65.1832L63.8618 21.8779Z" fill="#FEFEFE"/>
<path fill-rule="evenodd" clip-rule="evenodd" d="M49.9041 30.761H45.9398V18.4277H54.2355C58.42 18.4277 58.42 21.8781 58.42 22.6123C58.42 23.4198 58.42 27.1638 54.2355 27.1638H49.9041V30.761Z" fill="#334690"/>
<path fill-rule="evenodd" clip-rule="evenodd" d="M49.8898 24.1554H52.7529C53.1933 24.1554 54.3679 24.1554 54.3679 22.834C54.3679 21.5859 53.1933 21.5859 52.7529 21.5859H49.8898V24.2288V24.1554Z" fill="#FEFEFE"/>
<path fill-rule="evenodd" clip-rule="evenodd" d="M120.97 18.4999V21.5832H113.262V23.1983H117.299C121.557 23.1983 121.557 25.6209 121.557 26.9423C121.557 28.3372 121.557 30.8332 117.373 30.8332H109.224V18.4999H120.97Z" fill="#334690"/>
<path fill-rule="evenodd" clip-rule="evenodd" d="M13.7172 12.3333C14.0108 12.3333 14.3779 12.3333 14.5981 12.4802L14.5247 4.11111H15.5525C15.5525 4.11111 15.4057 6.38691 15.8462 12.627C21.3521 13.875 25.5366 18.7202 25.5366 24.5933C25.5366 28.998 23.2608 32.7421 19.8104 34.9444C19.737 34.871 19.5902 34.7242 19.5168 34.5774C15.8462 29.9524 14.9652 22.9782 14.6716 16.8849C15.1854 17.0317 15.6993 17.1052 16.2132 17.1052C17.241 23.7123 20.3243 28.1171 22.8204 30.9067C23.995 29.3651 24.6557 27.6766 24.6557 25.7679C24.6557 23.5655 23.7747 21.5833 22.3065 19.9683C20.8382 18.3532 18.8561 17.1052 16.4335 16.4444C15.4057 16.2242 14.3045 16.0774 13.1299 16.0774C12.0287 16.0774 10.9275 16.2242 9.82632 16.4444C5.05449 17.6925 1.53068 21.3631 1.53068 25.7679C1.53068 27.6766 2.26481 29.4385 3.29259 30.9067C5.86203 28.1905 8.87195 23.7857 9.89973 17.1052C10.4136 17.0317 10.9275 16.9583 11.5148 16.8849C11.2946 22.9782 10.3402 29.8056 6.66957 34.504V34.4306C6.52275 34.6508 6.37592 34.7976 6.30251 34.9444C2.92553 32.7421 0.723145 28.998 0.723145 24.5933C0.723145 18.7202 4.83426 13.875 10.4136 12.627C10.7073 6.38691 10.6339 4.11111 10.6339 4.11111H11.6616L11.5882 12.4802C11.8819 12.3333 12.1755 12.3333 12.3958 12.3333V0H13.497V12.3333H13.7172ZM13.7906 16.8115C13.9374 22.6111 14.3045 29.879 16.2132 34.7976C16.4335 35.3115 16.7271 35.8988 17.0208 36.4127C15.7727 36.7064 14.5247 37 13.2033 37C11.8819 37 10.5604 36.7798 9.38584 36.4127C9.67949 35.752 9.97314 35.1647 10.1934 34.6508C11.9553 29.8056 12.4692 22.6111 12.5426 16.8115C12.6894 16.8115 12.9097 16.8115 13.1299 16.8115C13.3501 16.8115 13.497 16.8115 13.7172 16.8115H13.7906Z" fill="#334690"/>
</svg>
